Source-HROTn_VROTd.ufo
<glyph name="quotedbl" format="2">
  <advance width="366"/>
  <unicode hex="0022"/>
  <outline>
    <contour>
      <point x="-17" y="444" type="line"/>
      <point x="-17" y="618" type="line"/>
      <point x="-1" y="618" type="line"/>
      <point x="-1" y="444" type="line"/>
    </contour>
    <contour>
      <point x="95" y="391" type="line"/>
      <point x="-12" y="437" type="line" smooth="yes"/>
      <point x="-20" y="440"/>
      <point x="-8" y="455"/>
      <point x="-3" y="449" type="curve" smooth="yes"/>
      <point x="33" y="403" type="line"/>
      <point x="21" y="393" type="line"/>
      <point x="-15" y="439" type="line" smooth="yes"/>
      <point x="-20" y="446"/>
      <point x="-13" y="455"/>
      <point x="-6" y="451" type="curve" smooth="yes"/>
      <point x="101" y="405" type="line"/>
    </contour>
    <contour>
      <point x="11" y="678" type="line"/>
      <point x="-1" y="616" type="line" smooth="yes"/>
      <point x="-2" y="610"/>
      <point x="-18" y="622"/>
      <point x="-12" y="625" type="curve" smooth="yes"/>
      <point x="119" y="687" type="line"/>
      <point x="125" y="673" type="line"/>
      <point x="-6" y="611" type="line" smooth="yes"/>
      <point x="-12" y="608"/>
      <point x="-18" y="613"/>
      <point x="-17" y="620" type="curve" smooth="yes"/>
      <point x="-5" y="682" type="line"/>
    </contour>
    <contour>
      <point x="140" y="444" type="line"/>
      <point x="140" y="618" type="line"/>
      <point x="156" y="618" type="line"/>
      <point x="156" y="444" type="line"/>
    </contour>
    <contour>
      <point x="251" y="391" type="line"/>
      <point x="145" y="437" type="line" smooth="yes"/>
      <point x="137" y="440"/>
      <point x="149" y="455"/>
      <point x="154" y="449" type="curve" smooth="yes"/>
      <point x="189" y="403" type="line"/>
      <point x="177" y="393" type="line"/>
      <point x="142" y="439" type="line" smooth="yes"/>
      <point x="137" y="446"/>
      <point x="144" y="455"/>
      <point x="151" y="451" type="curve" smooth="yes"/>
      <point x="257" y="405" type="line"/>
    </contour>
    <contour>
      <point x="167" y="679" type="line"/>
      <point x="156" y="617" type="line" smooth="yes"/>
      <point x="155" y="610"/>
      <point x="139" y="622"/>
      <point x="145" y="625" type="curve" smooth="yes"/>
      <point x="275" y="687" type="line"/>
      <point x="281" y="673" type="line"/>
      <point x="151" y="611" type="line" smooth="yes"/>
      <point x="146" y="608"/>
      <point x="139" y="613"/>
      <point x="140" y="619" type="curve" smooth="yes"/>
      <point x="151" y="681" type="line"/>
    </contour>
  </outline>
</glyph>
<glyph name="percent" format="2">
  <advance width="723"/>
  <unicode hex="0025"/>
  <outline>
    <contour>
      <point x="56" y="322" type="curve"/>
      <point x="56" y="322"/>
      <point x="56" y="322"/>
      <point x="56" y="322" type="curve"/>
      <point x="108" y="322"/>
      <point x="142" y="389"/>
      <point x="142" y="478" type="curve"/>
      <point x="142" y="478"/>
      <point x="142" y="478"/>
      <point x="142" y="478" type="curve"/>
      <point x="142" y="566"/>
      <point x="108" y="632"/>
      <point x="56" y="632" type="curve"/>
      <point x="56" y="632"/>
      <point x="56" y="632"/>
      <point x="56" y="632" type="curve"/>
      <point x="4" y="632"/>
      <point x="-29" y="566"/>
      <point x="-29" y="478" type="curve"/>
      <point x="-29" y="478"/>
      <point x="-29" y="478"/>
      <point x="-29" y="478" type="curve"/>
      <point x="-29" y="389"/>
      <point x="4" y="322"/>
    </contour>
    <contour>
      <point x="441" y="48" type="curve"/>
      <point x="441" y="48"/>
      <point x="441" y="48"/>
      <point x="441" y="48" type="curve"/>
      <point x="494" y="48"/>
      <point x="526" y="115"/>
      <point x="526" y="204" type="curve"/>
      <point x="526" y="204"/>
      <point x="526" y="204"/>
      <point x="526" y="204" type="curve"/>
      <point x="526" y="292"/>
      <point x="494" y="358"/>
      <point x="441" y="358" type="curve"/>
      <point x="441" y="358"/>
      <point x="441" y="358"/>
      <point x="441" y="358" type="curve"/>
      <point x="388" y="358"/>
      <point x="356" y="292"/>
      <point x="356" y="204" type="curve"/>
      <point x="356" y="204"/>
      <point x="356" y="204"/>
      <point x="356" y="204" type="curve"/>
      <point x="356" y="115"/>
      <point x="388" y="48"/>
    </contour>
    <contour>
      <point x="56" y="306" type="curve"/>
      <point x="-4" y="306"/>
      <point x="-45" y="375"/>
      <point x="-45" y="478" type="curve"/>
      <point x="-45" y="478"/>
      <point x="-45" y="478"/>
      <point x="-45" y="478" type="curve"/>
      <point x="-45" y="580"/>
      <point x="-4" y="648"/>
      <point x="56" y="648" type="curve"/>
      <point x="56" y="648"/>
      <point x="56" y="648"/>
      <point x="56" y="648" type="curve"/>
      <point x="116" y="648"/>
      <point x="158" y="580"/>
      <point x="158" y="478" type="curve"/>
      <point x="158" y="478"/>
      <point x="158" y="478"/>
      <point x="158" y="478" type="curve"/>
      <point x="158" y="375"/>
      <point x="116" y="306"/>
      <point x="56" y="306" type="curve"/>
      <point x="56" y="306"/>
      <point x="56" y="306"/>
    </contour>
    <contour>
      <point x="441" y="32" type="curve"/>
      <point x="380" y="32"/>
      <point x="340" y="101"/>
      <point x="340" y="204" type="curve"/>
      <point x="340" y="204"/>
      <point x="340" y="204"/>
      <point x="340" y="204" type="curve"/>
      <point x="340" y="306"/>
      <point x="380" y="374"/>
      <point x="441" y="374" type="curve"/>
      <point x="441" y="374"/>
      <point x="441" y="374"/>
      <point x="441" y="374" type="curve"/>
      <point x="502" y="374"/>
      <point x="542" y="306"/>
      <point x="542" y="204" type="curve"/>
      <point x="542" y="204"/>
      <point x="542" y="204"/>
      <point x="542" y="204" type="curve"/>
      <point x="542" y="101"/>
      <point x="502" y="32"/>
      <point x="441" y="32" type="curve"/>
      <point x="441" y="32"/>
      <point x="441" y="32"/>
    </contour>
    <contour>
      <point x="379" y="625" type="line"/>
      <point x="131" y="49" type="line"/>
      <point x="117" y="55" type="line"/>
      <point x="365" y="631" type="line"/>
    </contour>
    <contour>
      <point x="213" y="-7" type="line"/>
      <point x="120" y="45" type="line" smooth="yes"/>
      <point x="115" y="48"/>
      <point x="132" y="59"/>
      <point x="132" y="52" type="curve" smooth="yes"/>
      <point x="134" y="0" type="line"/>
      <point x="118" y="0" type="line"/>
      <point x="116" y="52" type="line" smooth="yes"/>
      <point x="116" y="58"/>
      <point x="122" y="62"/>
      <point x="128" y="59" type="curve" smooth="yes"/>
      <point x="221" y="7" type="line"/>
    </contour>
    <contour>
      <point x="427" y="675" type="line"/>
      <point x="378" y="623" type="line" smooth="yes"/>
      <point x="372" y="616"/>
      <point x="361" y="633"/>
      <point x="369" y="635" type="curve" smooth="yes"/>
      <point x="508" y="687" type="line"/>
      <point x="514" y="673" type="line"/>
      <point x="375" y="621" type="line" smooth="yes"/>
      <point x="367" y="618"/>
      <point x="360" y="627"/>
      <point x="366" y="633" type="curve" smooth="yes"/>
      <point x="415" y="685" type="line"/>
    </contour>
  </outline>
</glyph>
<glyph name="quotesingle" format="2">
  <advance width="211"/>
  <unicode hex="0027"/>
  <outline>
    <contour>
      <point x="-16" y="444" type="line"/>
      <point x="-16" y="618" type="line"/>
      <point x="0" y="618" type="line"/>
      <point x="0" y="444" type="line"/>
    </contour>
    <contour>
      <point x="96" y="391" type="line"/>
      <point x="-11" y="437" type="line" smooth="yes"/>
      <point x="-19" y="440"/>
      <point x="-7" y="455"/>
      <point x="-2" y="449" type="curve" smooth="yes"/>
      <point x="33" y="403" type="line"/>
      <point x="21" y="393" type="line"/>
      <point x="-14" y="439" type="line" smooth="yes"/>
      <point x="-19" y="446"/>
      <point x="-12" y="455"/>
      <point x="-5" y="451" type="curve" smooth="yes"/>
      <point x="102" y="405" type="line"/>
    </contour>
    <contour>
      <point x="11" y="679" type="line"/>
      <point x="0" y="617" type="line" smooth="yes"/>
      <point x="-1" y="610"/>
      <point x="-17" y="622"/>
      <point x="-11" y="625" type="curve" smooth="yes"/>
      <point x="120" y="687" type="line"/>
      <point x="126" y="673" type="line"/>
      <point x="-5" y="611" type="line" smooth="yes"/>
      <point x="-10" y="608"/>
      <point x="-17" y="613"/>
      <point x="-16" y="619" type="curve" smooth="yes"/>
      <point x="-5" y="681" type="line"/>
    </contour>
  </outline>
</glyph>
<glyph name="parenright" format="2">
  <advance width="341"/>
  <unicode hex="0029"/>
  <outline>
    <contour>
      <point x="-37" y="-56" type="line"/>
      <point x="60" y="-14"/>
      <point x="135" y="115"/>
      <point x="135" y="341" type="curve"/>
      <point x="135" y="341"/>
      <point x="135" y="341"/>
      <point x="135" y="341" type="curve"/>
      <point x="135" y="567"/>
      <point x="60" y="696"/>
      <point x="-37" y="738" type="curve"/>
      <point x="-31" y="752" type="line"/>
      <point x="70" y="710"/>
      <point x="151" y="575"/>
      <point x="151" y="341" type="curve"/>
      <point x="151" y="341"/>
      <point x="151" y="341"/>
      <point x="151" y="341" type="curve"/>
      <point x="151" y="107"/>
      <point x="70" y="-28"/>
      <point x="-31" y="-70" type="curve"/>
    </contour>
    <contour>
      <point x="-15" y="-154" type="line"/>
      <point x="-42" y="-65" type="line" smooth="yes"/>
      <point x="-42" y="-64"/>
      <point x="-42" y="-62"/>
      <point x="-41" y="-60" type="curve" smooth="yes"/>
      <point x="-14" y="6" type="line"/>
      <point x="0" y="0" type="line"/>
      <point x="-27" y="-66" type="line" smooth="yes"/>
      <point x="-27" y="-68"/>
      <point x="-27" y="-59"/>
      <point x="-26" y="-61" type="curve" smooth="yes"/>
      <point x="1" y="-150" type="line"/>
    </contour>
    <contour>
      <point x="-14" y="676" type="line"/>
      <point x="-41" y="742" type="line" smooth="yes"/>
      <point x="-42" y="744"/>
      <point x="-42" y="746"/>
      <point x="-42" y="747" type="curve" smooth="yes"/>
      <point x="-15" y="836" type="line"/>
      <point x="1" y="832" type="line"/>
      <point x="-26" y="743" type="line" smooth="yes"/>
      <point x="-27" y="741"/>
      <point x="-27" y="750"/>
      <point x="-27" y="748" type="curve" smooth="yes"/>
      <point x="0" y="682" type="line"/>
    </contour>
  </outline>
</glyph>
<glyph name="asterisk" format="2">
  <advance width="434"/>
  <unicode hex="002A"/>
  <outline>
    <contour>
      <point x="167" y="610" type="line"/>
      <point x="102" y="451" type="line"/>
      <point x="102" y="451"/>
      <point x="102" y="451"/>
      <point x="102" y="451" type="curve"/>
      <point x="37" y="292" type="line"/>
      <point x="23" y="298" type="line"/>
      <point x="88" y="457" type="line"/>
      <point x="88" y="457"/>
      <point x="88" y="457"/>
      <point x="88" y="457" type="curve"/>
      <point x="153" y="616" type="line"/>
    </contour>
    <contour>
      <point x="225" y="446" type="line"/>
      <point x="95" y="446" type="line"/>
      <point x="95" y="446"/>
      <point x="95" y="446"/>
      <point x="95" y="446" type="curve"/>
      <point x="-35" y="446" type="line"/>
      <point x="-35" y="462" type="line"/>
      <point x="95" y="462" type="line"/>
      <point x="95" y="462"/>
      <point x="95" y="462"/>
      <point x="95" y="462" type="curve"/>
      <point x="225" y="462" type="line"/>
    </contour>
    <contour>
      <point x="-15" y="385" type="line"/>
      <point x="-42" y="451" type="line" smooth="yes"/>
      <point x="-43" y="453"/>
      <point x="-43" y="455"/>
      <point x="-42" y="457" type="curve" smooth="yes"/>
      <point x="-15" y="523" type="line"/>
      <point x="-1" y="517" type="line"/>
      <point x="-28" y="451" type="line" smooth="yes"/>
      <point x="-28" y="449"/>
      <point x="-28" y="459"/>
      <point x="-28" y="457" type="curve" smooth="yes"/>
      <point x="-1" y="391" type="line"/>
    </contour>
    <contour>
      <point x="344" y="513" type="line"/>
      <point x="229" y="447" type="line" smooth="yes"/>
      <point x="224" y="444"/>
      <point x="224" y="464"/>
      <point x="229" y="461" type="curve" smooth="yes"/>
      <point x="344" y="395" type="line"/>
      <point x="336" y="381" type="line"/>
      <point x="221" y="447" type="line" smooth="yes"/>
      <point x="216" y="450"/>
      <point x="216" y="458"/>
      <point x="221" y="461" type="curve" smooth="yes"/>
      <point x="336" y="527" type="line"/>
    </contour>
    <contour>
      <point x="113" y="202" type="line"/>
      <point x="24" y="289" type="line" smooth="yes"/>
      <point x="18" y="295"/>
      <point x="34" y="306"/>
      <point x="37" y="298" type="curve" smooth="yes"/>
      <point x="45" y="277" type="line"/>
      <point x="31" y="271" type="line"/>
      <point x="23" y="292" type="line" smooth="yes"/>
      <point x="19" y="300"/>
      <point x="29" y="307"/>
      <point x="36" y="301" type="curve" smooth="yes"/>
      <point x="125" y="214" type="line"/>
    </contour>
    <contour>
      <point x="219" y="696" type="line"/>
      <point x="167" y="609" type="line" smooth="yes"/>
      <point x="163" y="603"/>
      <point x="152" y="620"/>
      <point x="159" y="621" type="curve" smooth="yes"/>
      <point x="292" y="642" type="line"/>
      <point x="294" y="626" type="line"/>
      <point x="161" y="605" type="line" smooth="yes"/>
      <point x="155" y="604"/>
      <point x="150" y="611"/>
      <point x="153" y="617" type="curve" smooth="yes"/>
      <point x="205" y="704" type="line"/>
    </contour>
    <contour>
      <point x="154" y="292" type="line"/>
      <point x="88" y="451" type="line" smooth="yes"/>
      <point x="88" y="451"/>
      <point x="88" y="451"/>
      <point x="88" y="451" type="curve" smooth="yes"/>
      <point x="24" y="610" type="line"/>
      <point x="38" y="616" type="line"/>
      <point x="102" y="457" type="line" smooth="yes"/>
      <point x="102" y="457"/>
      <point x="102" y="457"/>
      <point x="102" y="457" type="curve" smooth="yes"/>
      <point x="168" y="298" type="line"/>
    </contour>
    <contour>
      <point x="293" y="266" type="line"/>
      <point x="160" y="287" type="line" smooth="yes"/>
      <point x="153" y="288"/>
      <point x="164" y="305"/>
      <point x="168" y="299" type="curve" smooth="yes"/>
      <point x="220" y="212" type="line"/>
      <point x="206" y="204" type="line"/>
      <point x="154" y="291" type="line" smooth="yes"/>
      <point x="151" y="297"/>
      <point x="156" y="304"/>
      <point x="162" y="303" type="curve" smooth="yes"/>
      <point x="295" y="282" type="line"/>
    </contour>
    <contour>
      <point x="47" y="631" type="line"/>
      <point x="38" y="610" type="line" smooth="yes"/>
      <point x="35" y="602"/>
      <point x="19" y="613"/>
      <point x="25" y="619" type="curve" smooth="yes"/>
      <point x="114" y="706" type="line"/>
      <point x="126" y="694" type="line"/>
      <point x="37" y="607" type="line" smooth="yes"/>
      <point x="30" y="601"/>
      <point x="20" y="608"/>
      <point x="24" y="616" type="curve" smooth="yes"/>
      <point x="33" y="637" type="line"/>
    </contour>
    <contour>
      <point x="101" y="514" type="line"/>
      <point x="103" y="454" type="line" smooth="yes"/>
      <point x="103" y="451"/>
      <point x="95" y="463"/>
      <point x="98" y="461" type="curve" smooth="yes"/>
      <point x="243" y="401" type="line"/>
      <point x="237" y="387" type="line"/>
      <point x="92" y="447" type="line" smooth="yes"/>
      <point x="89" y="448"/>
      <point x="87" y="451"/>
      <point x="87" y="454" type="curve" smooth="yes"/>
      <point x="85" y="514" type="line"/>
    </contour>
    <contour>
      <point x="84" y="394" type="line"/>
      <point x="87" y="454" type="line" smooth="yes"/>
      <point x="87" y="457"/>
      <point x="89" y="460"/>
      <point x="92" y="461" type="curve" smooth="yes"/>
      <point x="236" y="521" type="line"/>
      <point x="242" y="507" type="line"/>
      <point x="98" y="447" type="line" smooth="yes"/>
      <point x="95" y="445"/>
      <point x="103" y="457"/>
      <point x="103" y="454" type="curve" smooth="yes"/>
      <point x="100" y="394" type="line"/>
    </contour>
    <contour>
      <point x="173" y="572" type="line"/>
      <point x="102" y="450" type="line" smooth="yes"/>
      <point x="100" y="447"/>
      <point x="100" y="461"/>
      <point x="102" y="458" type="curve" smooth="yes"/>
      <point x="173" y="340" type="line"/>
      <point x="159" y="332" type="line"/>
      <point x="88" y="450" type="line" smooth="yes"/>
      <point x="87" y="452"/>
      <point x="87" y="456"/>
      <point x="88" y="458" type="curve" smooth="yes"/>
      <point x="159" y="580" type="line"/>
    </contour>
  </outline>
</glyph>
<glyph name="period" format="2">
  <advance width="191"/>
  <unicode hex="002E"/>
  <outline>
    <contour>
      <point x="4" y="160" type="line"/>
      <point x="-10" y="80" type="line" smooth="yes"/>
      <point x="-11" y="76"/>
      <point x="-16" y="89"/>
      <point x="-14" y="88" type="curve" smooth="yes"/>
      <point x="114" y="7" type="line"/>
      <point x="106" y="-7" type="line"/>
      <point x="-22" y="74" type="line" smooth="yes"/>
      <point x="-25" y="76"/>
      <point x="-26" y="79"/>
      <point x="-26" y="82" type="curve" smooth="yes"/>
      <point x="-12" y="162" type="line"/>
    </contour>
    <contour>
      <point x="-12" y="-1" type="line"/>
      <point x="-26" y="80" type="line" smooth="yes"/>
      <point x="-26" y="83"/>
      <point x="-25" y="86"/>
      <point x="-22" y="88" type="curve" smooth="yes"/>
      <point x="106" y="168" type="line"/>
      <point x="114" y="154" type="line"/>
      <point x="-14" y="74" type="line" smooth="yes"/>
      <point x="-17" y="72"/>
      <point x="-11" y="86"/>
      <point x="-10" y="82" type="curve" smooth="yes"/>
      <point x="4" y="1" type="line"/>
    </contour>
  </outline>
</glyph>
<glyph name="one" format="2">
  <advance width="278"/>
  <unicode hex="0031"/>
  <outline>
    <contour>
      <point x="190" y="686" type="line"/>
      <point x="61" y="606" type="line" smooth="yes"/>
      <point x="58" y="605"/>
      <point x="64" y="617"/>
      <point x="65" y="614" type="curve" smooth="yes"/>
      <point x="78" y="533" type="line"/>
      <point x="62" y="531" type="line"/>
      <point x="49" y="612" type="line" smooth="yes"/>
      <point x="49" y="615"/>
      <point x="50" y="618"/>
      <point x="53" y="620" type="curve" smooth="yes"/>
      <point x="182" y="700" type="line"/>
    </contour>
    <contour>
      <point x="190" y="-7" type="line"/>
      <point x="48" y="55" type="line" smooth="yes"/>
      <point x="43" y="57"/>
      <point x="59" y="67"/>
      <point x="59" y="61" type="curve" smooth="yes"/>
      <point x="54" y="-1" type="line"/>
      <point x="38" y="1" type="line"/>
      <point x="43" y="63" type="line" smooth="yes"/>
      <point x="43" y="68"/>
      <point x="49" y="72"/>
      <point x="54" y="69" type="curve" smooth="yes"/>
      <point x="196" y="7" type="line"/>
    </contour>
    <contour>
      <point x="-52" y="581" type="line"/>
      <point x="-21" y="595"/>
      <point x="21" y="612"/>
      <point x="55" y="621" type="curve" smooth="yes"/>
      <point x="60" y="622"/>
      <point x="65" y="618"/>
      <point x="65" y="613" type="curve" smooth="yes"/>
      <point x="62" y="563"/>
      <point x="61" y="506"/>
      <point x="61" y="349" type="curve" smooth="yes"/>
      <point x="61" y="349"/>
      <point x="61" y="349"/>
      <point x="61" y="349" type="curve" smooth="yes"/>
      <point x="59" y="62" type="line"/>
      <point x="43" y="62" type="line"/>
      <point x="45" y="349" type="line" smooth="yes"/>
      <point x="45" y="349"/>
      <point x="45" y="349"/>
      <point x="45" y="349" type="curve" smooth="yes"/>
      <point x="45" y="506"/>
      <point x="46" y="563"/>
      <point x="49" y="613" type="curve" smooth="yes"/>
      <point x="49" y="619"/>
      <point x="64" y="607"/>
      <point x="59" y="605" type="curve" smooth="yes"/>
      <point x="27" y="596"/>
      <point x="-15" y="581"/>
      <point x="-46" y="567" type="curve"/>
    </contour>
    <contour>
      <point x="-30" y="466" type="line"/>
      <point x="-57" y="572" type="line" smooth="yes"/>
      <point x="-57" y="574"/>
      <point x="-57" y="576"/>
      <point x="-56" y="577" type="curve" smooth="yes"/>
      <point x="-29" y="633" type="line"/>
      <point x="-15" y="627" type="line"/>
      <point x="-42" y="571" type="line" smooth="yes"/>
      <point x="-43" y="569"/>
      <point x="-42" y="578"/>
      <point x="-41" y="576" type="curve" smooth="yes"/>
      <point x="-14" y="470" type="line"/>
    </contour>
  </outline>
</glyph>
<glyph name="semicolon" format="2">
  <advance width="196"/>
  <unicode hex="003B"/>
  <outline>
    <contour>
      <point x="8" y="522" type="line"/>
      <point x="-6" y="442" type="line" smooth="yes"/>
      <point x="-7" y="438"/>
      <point x="-12" y="451"/>
      <point x="-10" y="450" type="curve" smooth="yes"/>
      <point x="118" y="369" type="line"/>
      <point x="110" y="355" type="line"/>
      <point x="-18" y="436" type="line" smooth="yes"/>
      <point x="-21" y="438"/>
      <point x="-22" y="441"/>
      <point x="-22" y="444" type="curve" smooth="yes"/>
      <point x="-8" y="524" type="line"/>
    </contour>
    <contour>
      <point x="-8" y="361" type="line"/>
      <point x="-22" y="442" type="line" smooth="yes"/>
      <point x="-22" y="445"/>
      <point x="-21" y="448"/>
      <point x="-18" y="450" type="curve" smooth="yes"/>
      <point x="110" y="530" type="line"/>
      <point x="118" y="516" type="line"/>
      <point x="-10" y="436" type="line" smooth="yes"/>
      <point x="-13" y="434"/>
      <point x="-7" y="448"/>
      <point x="-6" y="444" type="curve" smooth="yes"/>
      <point x="8" y="363" type="line"/>
    </contour>
    <contour>
      <point x="-31" y="-126" type="line"/>
      <point x="8" y="-61"/>
      <point x="4" y="19"/>
      <point x="-16" y="97" type="curve"/>
      <point x="0" y="101" type="line"/>
      <point x="20" y="19"/>
      <point x="24" y="-65"/>
      <point x="-17" y="-134" type="curve"/>
    </contour>
    <contour>
      <point x="8" y="160" type="line"/>
      <point x="0" y="98" type="line" smooth="yes"/>
      <point x="-1" y="92"/>
      <point x="-17" y="103"/>
      <point x="-12" y="106" type="curve" smooth="yes"/>
      <point x="115" y="168" type="line"/>
      <point x="123" y="154" type="line"/>
      <point x="-4" y="92" type="line" smooth="yes"/>
      <point x="-10" y="89"/>
      <point x="-17" y="94"/>
      <point x="-16" y="100" type="curve" smooth="yes"/>
      <point x="-8" y="162" type="line"/>
    </contour>
  </outline>
</glyph>
<glyph name="less" format="2">
  <advance width="323"/>
  <unicode hex="003C"/>
  <outline>
    <contour>
      <point x="136" y="433" type="line"/>
      <point x="-20" y="303" type="line" smooth="yes"/>
      <point x="-24" y="300"/>
      <point x="-24" y="318"/>
      <point x="-20" y="315" type="curve" smooth="yes"/>
      <point x="136" y="185" type="line"/>
      <point x="126" y="173" type="line"/>
      <point x="-30" y="303" type="line" smooth="yes"/>
      <point x="-34" y="306"/>
      <point x="-34" y="312"/>
      <point x="-30" y="315" type="curve" smooth="yes"/>
      <point x="126" y="445" type="line"/>
    </contour>
    <contour>
      <point x="248" y="213" type="line"/>
      <point x="134" y="171" type="line" smooth="yes"/>
      <point x="128" y="169"/>
      <point x="133" y="189"/>
      <point x="137" y="185" type="curve" smooth="yes"/>
      <point x="251" y="69" type="line"/>
      <point x="239" y="57" type="line"/>
      <point x="125" y="173" type="line" smooth="yes"/>
      <point x="121" y="178"/>
      <point x="123" y="184"/>
      <point x="128" y="187" type="curve" smooth="yes"/>
      <point x="242" y="229" type="line"/>
    </contour>
    <contour>
      <point x="251" y="547" type="line"/>
      <point x="137" y="433" type="line" smooth="yes"/>
      <point x="133" y="429"/>
      <point x="128" y="449"/>
      <point x="134" y="447" type="curve" smooth="yes"/>
      <point x="248" y="406" type="line"/>
      <point x="242" y="390" type="line"/>
      <point x="128" y="431" type="line" smooth="yes"/>
      <point x="123" y="433"/>
      <point x="121" y="441"/>
      <point x="125" y="445" type="curve" smooth="yes"/>
      <point x="239" y="559" type="line"/>
    </contour>
    <contour>
      <point x="-36" y="316" type="line"/>
      <point x="-26" y="317" type="line" smooth="yes"/>
      <point x="-26" y="317"/>
      <point x="-25" y="317"/>
      <point x="-25" y="317" type="curve" smooth="yes"/>
      <point x="131" y="318" type="line"/>
      <point x="131" y="302" type="line"/>
      <point x="-25" y="301" type="line" smooth="yes"/>
      <point x="-25" y="301"/>
      <point x="-24" y="301"/>
      <point x="-24" y="301" type="curve" smooth="yes"/>
      <point x="-34" y="300" type="line"/>
    </contour>
  </outline>
</glyph>
<glyph name="question" format="2">
  <advance width="369"/>
  <unicode hex="003F"/>
  <outline>
    <contour>
      <point x="73" y="160" type="line"/>
      <point x="59" y="80" type="line" smooth="yes"/>
      <point x="58" y="76"/>
      <point x="53" y="89"/>
      <point x="55" y="88" type="curve" smooth="yes"/>
      <point x="182" y="7" type="line"/>
      <point x="174" y="-7" type="line"/>
      <point x="47" y="74" type="line" smooth="yes"/>
      <point x="44" y="76"/>
      <point x="43" y="79"/>
      <point x="43" y="82" type="curve" smooth="yes"/>
      <point x="57" y="162" type="line"/>
    </contour>
    <contour>
      <point x="57" y="-1" type="line"/>
      <point x="43" y="80" type="line" smooth="yes"/>
      <point x="43" y="83"/>
      <point x="44" y="86"/>
      <point x="47" y="88" type="curve" smooth="yes"/>
      <point x="174" y="168" type="line"/>
      <point x="182" y="154" type="line"/>
      <point x="55" y="74" type="line" smooth="yes"/>
      <point x="53" y="73"/>
      <point x="58" y="86"/>
      <point x="59" y="82" type="curve" smooth="yes"/>
      <point x="73" y="1" type="line"/>
    </contour>
    <contour>
      <point x="156" y="250" type="line"/>
      <point x="53" y="296" type="line" smooth="yes"/>
      <point x="46" y="299"/>
      <point x="59" y="314"/>
      <point x="63" y="307" type="curve" smooth="yes"/>
      <point x="91" y="261" type="line"/>
      <point x="77" y="253" type="line"/>
      <point x="49" y="299" type="line" smooth="yes"/>
      <point x="45" y="306"/>
      <point x="52" y="314"/>
      <point x="59" y="310" type="curve" smooth="yes"/>
      <point x="162" y="264" type="line"/>
    </contour>
    <contour>
      <point x="-41" y="613" type="line"/>
      <point x="-11" y="628"/>
      <point x="20" y="636"/>
      <point x="49" y="636" type="curve"/>
      <point x="49" y="636"/>
      <point x="49" y="636"/>
      <point x="49" y="636" type="curve"/>
      <point x="131" y="636"/>
      <point x="186" y="588"/>
      <point x="186" y="506" type="curve"/>
      <point x="186" y="506"/>
      <point x="186" y="506"/>
      <point x="186" y="506" type="curve"/>
      <point x="186" y="398"/>
      <point x="87" y="377"/>
      <point x="64" y="301" type="curve"/>
      <point x="48" y="305" type="line"/>
      <point x="73" y="387"/>
      <point x="170" y="406"/>
      <point x="170" y="506" type="curve"/>
      <point x="170" y="506"/>
      <point x="170" y="506"/>
      <point x="170" y="506" type="curve"/>
      <point x="170" y="580"/>
      <point x="123" y="620"/>
      <point x="49" y="620" type="curve"/>
      <point x="49" y="620"/>
      <point x="49" y="620"/>
      <point x="49" y="620" type="curve"/>
      <point x="22" y="620"/>
      <point x="-7" y="612"/>
      <point x="-35" y="599" type="curve"/>
    </contour>
    <contour>
      <point x="-19" y="492" type="line"/>
      <point x="-46" y="604" type="line" smooth="yes"/>
      <point x="-46" y="606"/>
      <point x="-46" y="608"/>
      <point x="-45" y="609" type="curve" smooth="yes"/>
      <point x="-18" y="668" type="line"/>
      <point x="-4" y="662" type="line"/>
      <point x="-31" y="603" type="line" smooth="yes"/>
      <point x="-31" y="601"/>
      <point x="-31" y="610"/>
      <point x="-30" y="608" type="curve" smooth="yes"/>
      <point x="-3" y="496" type="line"/>
    </contour>
  </outline>
</glyph>
<glyph name="B" format="2">
  <advance width="419"/>
  <unicode hex="0042"/>
  <outline>
    <contour>
      <point x="95" y="357" type="line"/>
      <point x="159" y="357"/>
      <point x="204" y="406"/>
      <point x="204" y="488" type="curve"/>
      <point x="204" y="488"/>
      <point x="204" y="488"/>
      <point x="204" y="488" type="curve"/>
      <point x="204" y="561"/>
      <point x="166" y="610"/>
      <point x="100" y="610" type="curve"/>
      <point x="100" y="610"/>
      <point x="100" y="610"/>
      <point x="100" y="610" type="curve"/>
      <point x="-3" y="610" type="line" smooth="yes"/>
      <point x="-7" y="610"/>
      <point x="5" y="622"/>
      <point x="5" y="618" type="curve"/>
      <point x="5" y="62" type="line"/>
      <point x="5" y="58"/>
      <point x="-7" y="70"/>
      <point x="-3" y="70" type="curve" smooth="yes"/>
      <point x="112" y="70" type="line"/>
      <point x="112" y="70"/>
      <point x="112" y="70"/>
      <point x="112" y="70" type="curve"/>
      <point x="175" y="70"/>
      <point x="218" y="121"/>
      <point x="218" y="202" type="curve"/>
      <point x="218" y="202"/>
      <point x="218" y="202"/>
      <point x="218" y="202" type="curve"/>
      <point x="218" y="289"/>
      <point x="172" y="341"/>
      <point x="97" y="341" type="curve"/>
      <point x="97" y="357" type="line"/>
      <point x="180" y="357"/>
      <point x="234" y="299"/>
      <point x="234" y="202" type="curve"/>
      <point x="234" y="202"/>
      <point x="234" y="202"/>
      <point x="234" y="202" type="curve"/>
      <point x="234" y="111"/>
      <point x="183" y="54"/>
      <point x="112" y="54" type="curve"/>
      <point x="112" y="54"/>
      <point x="112" y="54"/>
      <point x="112" y="54" type="curve"/>
      <point x="-3" y="54" type="line" smooth="yes"/>
      <point x="-7" y="54"/>
      <point x="-11" y="58"/>
      <point x="-11" y="62" type="curve"/>
      <point x="-11" y="618" type="line"/>
      <point x="-11" y="622"/>
      <point x="-7" y="626"/>
      <point x="-3" y="626" type="curve" smooth="yes"/>
      <point x="100" y="626" type="line"/>
      <point x="100" y="626"/>
      <point x="100" y="626"/>
      <point x="100" y="626" type="curve"/>
      <point x="174" y="626"/>
      <point x="220" y="571"/>
      <point x="220" y="488" type="curve"/>
      <point x="220" y="488"/>
      <point x="220" y="488"/>
      <point x="220" y="488" type="curve"/>
      <point x="220" y="396"/>
      <point x="167" y="341"/>
      <point x="95" y="341" type="curve"/>
    </contour>
    <contour>
      <point x="125" y="116" type="line"/>
      <point x="1" y="55" type="line" smooth="yes"/>
      <point x="-2" y="53"/>
      <point x="5" y="65"/>
      <point x="5" y="62" type="curve" smooth="yes"/>
      <point x="6" y="0" type="line"/>
      <point x="-10" y="0" type="line"/>
      <point x="-11" y="62" type="line" smooth="yes"/>
      <point x="-11" y="65"/>
      <point x="-9" y="68"/>
      <point x="-7" y="69" type="curve" smooth="yes"/>
      <point x="117" y="130" type="line"/>
    </contour>
    <contour>
      <point x="6" y="680" type="line"/>
      <point x="5" y="618" type="line" smooth="yes"/>
      <point x="5" y="615"/>
      <point x="-2" y="627"/>
      <point x="1" y="625" type="curve" smooth="yes"/>
      <point x="125" y="564" type="line"/>
      <point x="117" y="550" type="line"/>
      <point x="-7" y="611" type="line" smooth="yes"/>
      <point x="-9" y="612"/>
      <point x="-11" y="615"/>
      <point x="-11" y="618" type="curve" smooth="yes"/>
      <point x="-10" y="680" type="line"/>
    </contour>
    <contour>
      <point x="121" y="399" type="line"/>
      <point x="0" y="342" type="line" smooth="yes"/>
      <point x="-6" y="339"/>
      <point x="-5" y="359"/>
      <point x="1" y="356" type="curve" smooth="yes"/>
      <point x="122" y="296" type="line"/>
      <point x="114" y="282" type="line"/>
      <point x="-7" y="342" type="line" smooth="yes"/>
      <point x="-13" y="345"/>
      <point x="-12" y="353"/>
      <point x="-6" y="356" type="curve" smooth="yes"/>
      <point x="115" y="413" type="line"/>
    </contour>
    <contour>
      <point x="-3" y="357" type="line"/>
      <point x="97" y="357" type="line" smooth="yes"/>
      <point x="97" y="357"/>
      <point x="97" y="357"/>
      <point x="97" y="357" type="curve" smooth="yes"/>
      <point x="280" y="361" type="line"/>
      <point x="280" y="345" type="line"/>
      <point x="97" y="341" type="line" smooth="yes"/>
      <point x="97" y="341"/>
      <point x="97" y="341"/>
      <point x="97" y="341" type="curve" smooth="yes"/>
      <point x="-3" y="341" type="line"/>
    </contour>
  </outline>
</glyph>
<glyph name="E" format="2">
  <advance width="389"/>
  <unicode hex="0045"/>
  <anchor x="350.0" y="0" name="ogonek"/>
  <anchor x="196.0" y="0" name="below"/>
  <anchor x="196.0" y="680.0" name="above"/>
  <outline>
    <contour>
      <point x="179" y="603" type="line"/>
      <point x="130" y="608"/>
      <point x="46" y="612"/>
      <point x="-2" y="610" type="curve" smooth="yes"/>
      <point x="-6" y="610"/>
      <point x="6" y="622"/>
      <point x="6" y="618" type="curve"/>
      <point x="6" y="62" type="line"/>
      <point x="6" y="58"/>
      <point x="-6" y="70"/>
      <point x="-2" y="70" type="curve" smooth="yes"/>
      <point x="48" y="68"/>
      <point x="127" y="71"/>
      <point x="178" y="77" type="curve"/>
      <point x="180" y="61" type="line"/>
      <point x="128" y="55"/>
      <point x="48" y="52"/>
      <point x="-2" y="54" type="curve" smooth="yes"/>
      <point x="-7" y="54"/>
      <point x="-10" y="58"/>
      <point x="-10" y="62" type="curve"/>
      <point x="-10" y="618" type="line"/>
      <point x="-10" y="622"/>
      <point x="-7" y="626"/>
      <point x="-2" y="626" type="curve" smooth="yes"/>
      <point x="46" y="628"/>
      <point x="130" y="624"/>
      <point x="181" y="619" type="curve"/>
    </contour>
    <contour>
      <point x="161" y="342" type="line"/>
      <point x="-2" y="342" type="line"/>
      <point x="-2" y="358" type="line"/>
      <point x="161" y="358" type="line"/>
    </contour>
    <contour>
      <point x="125" y="118" type="line"/>
      <point x="2" y="55" type="line" smooth="yes"/>
      <point x="-1" y="54"/>
      <point x="6" y="65"/>
      <point x="6" y="62" type="curve"/>
      <point x="6" y="0" type="line"/>
      <point x="-10" y="0" type="line"/>
      <point x="-10" y="62" type="line"/>
      <point x="-10" y="65"/>
      <point x="-8" y="68"/>
      <point x="-6" y="69" type="curve" smooth="yes"/>
      <point x="117" y="132" type="line"/>
    </contour>
    <contour>
      <point x="6" y="680" type="line"/>
      <point x="6" y="618" type="line"/>
      <point x="6" y="615"/>
      <point x="-1" y="626"/>
      <point x="2" y="625" type="curve" smooth="yes"/>
      <point x="125" y="562" type="line"/>
      <point x="117" y="548" type="line"/>
      <point x="-6" y="611" type="line" smooth="yes"/>
      <point x="-8" y="612"/>
      <point x="-10" y="615"/>
      <point x="-10" y="618" type="curve"/>
      <point x="-10" y="680" type="line"/>
    </contour>
    <contour>
      <point x="299" y="673" type="line"/>
      <point x="184" y="604" type="line" smooth="yes"/>
      <point x="179" y="601"/>
      <point x="180" y="621"/>
      <point x="185" y="617" type="curve" smooth="yes"/>
      <point x="300" y="530" type="line"/>
      <point x="290" y="518" type="line"/>
      <point x="175" y="605" type="line" smooth="yes"/>
      <point x="171" y="608"/>
      <point x="171" y="615"/>
      <point x="176" y="618" type="curve" smooth="yes"/>
      <point x="291" y="687" type="line"/>
    </contour>
    <contour>
      <point x="312" y="160" type="line"/>
      <point x="184" y="63" type="line" smooth="yes"/>
      <point x="179" y="59"/>
      <point x="178" y="79"/>
      <point x="183" y="76" type="curve" smooth="yes"/>
      <point x="297" y="7" type="line"/>
      <point x="289" y="-7" type="line"/>
      <point x="175" y="62" type="line" smooth="yes"/>
      <point x="170" y="65"/>
      <point x="170" y="72"/>
      <point x="174" y="75" type="curve" smooth="yes"/>
      <point x="302" y="172" type="line"/>
    </contour>
    <contour>
      <point x="280" y="426" type="line"/>
      <point x="166" y="344" type="line" smooth="yes"/>
      <point x="161" y="340"/>
      <point x="161" y="360"/>
      <point x="166" y="357" type="curve" smooth="yes"/>
      <point x="280" y="276" type="line"/>
      <point x="270" y="262" type="line"/>
      <point x="156" y="343" type="line" smooth="yes"/>
      <point x="152" y="347"/>
      <point x="152" y="353"/>
      <point x="156" y="356" type="curve" smooth="yes"/>
      <point x="270" y="438" type="line"/>
    </contour>
    <contour>
      <point x="122" y="403" type="line"/>
      <point x="2" y="343" type="line" smooth="yes"/>
      <point x="-4" y="340"/>
      <point x="-4" y="360"/>
      <point x="2" y="357" type="curve" smooth="yes"/>
      <point x="122" y="297" type="line"/>
      <point x="114" y="283" type="line"/>
      <point x="-6" y="343" type="line" smooth="yes"/>
      <point x="-11" y="346"/>
      <point x="-11" y="354"/>
      <point x="-6" y="357" type="curve" smooth="yes"/>
      <point x="114" y="417" type="line"/>
    </contour>
  </outline>
</glyph>
<glyph name="G" format="2">
  <advance width="474"/>
  <unicode hex="0047"/>
  <outline>
    <contour>
      <point x="379" y="645" type="line"/>
      <point x="265" y="592" type="line" smooth="yes"/>
      <point x="260" y="589"/>
      <point x="264" y="609"/>
      <point x="268" y="605" type="curve" smooth="yes"/>
      <point x="382" y="490" type="line"/>
      <point x="370" y="478" type="line"/>
      <point x="256" y="593" type="line" smooth="yes"/>
      <point x="252" y="597"/>
      <point x="254" y="604"/>
      <point x="259" y="606" type="curve" smooth="yes"/>
      <point x="373" y="659" type="line"/>
    </contour>
    <contour>
      <point x="278" y="349" type="line"/>
      <point x="274" y="287" type="line" smooth="yes"/>
      <point x="274" y="281"/>
      <point x="257" y="293"/>
      <point x="263" y="295" type="curve" smooth="yes"/>
      <point x="393" y="357" type="line"/>
      <point x="399" y="343" type="line"/>
      <point x="269" y="281" type="line" smooth="yes"/>
      <point x="264" y="278"/>
      <point x="258" y="282"/>
      <point x="258" y="289" type="curve" smooth="yes"/>
      <point x="262" y="351" type="line"/>
    </contour>
    <contour>
      <point x="258" y="592" type="line"/>
      <point x="227" y="610"/>
      <point x="191" y="620"/>
      <point x="160" y="620" type="curve"/>
      <point x="160" y="620"/>
      <point x="160" y="620"/>
      <point x="160" y="620" type="curve"/>
      <point x="47" y="620"/>
      <point x="-25" y="506"/>
      <point x="-25" y="338" type="curve"/>
      <point x="-25" y="338"/>
      <point x="-25" y="338"/>
      <point x="-25" y="338" type="curve"/>
      <point x="-25" y="175"/>
      <point x="44" y="58"/>
      <point x="156" y="58" type="curve"/>
      <point x="156" y="58"/>
      <point x="156" y="58"/>
      <point x="156" y="58" type="curve"/>
      <point x="193" y="58"/>
      <point x="229" y="70"/>
      <point x="265" y="92" type="curve" smooth="yes"/>
      <point x="267" y="93"/>
      <point x="261" y="82"/>
      <point x="261" y="85" type="curve" smooth="yes"/>
      <point x="260" y="189"/>
      <point x="259" y="249"/>
      <point x="258" y="288" type="curve"/>
      <point x="274" y="288" type="line"/>
      <point x="275" y="249"/>
      <point x="276" y="189"/>
      <point x="277" y="85" type="curve" smooth="yes"/>
      <point x="277" y="82"/>
      <point x="276" y="80"/>
      <point x="273" y="78" type="curve" smooth="yes"/>
      <point x="235" y="54"/>
      <point x="195" y="42"/>
      <point x="156" y="42" type="curve"/>
      <point x="156" y="42"/>
      <point x="156" y="42"/>
      <point x="156" y="42" type="curve"/>
      <point x="36" y="42"/>
      <point x="-41" y="165"/>
      <point x="-41" y="338" type="curve"/>
      <point x="-41" y="338"/>
      <point x="-41" y="338"/>
      <point x="-41" y="338" type="curve"/>
      <point x="-41" y="516"/>
      <point x="39" y="636"/>
      <point x="160" y="636" type="curve"/>
      <point x="160" y="636"/>
      <point x="160" y="636"/>
      <point x="160" y="636" type="curve"/>
      <point x="193" y="636"/>
      <point x="233" y="626"/>
      <point x="266" y="606" type="curve"/>
    </contour>
    <contour>
      <point x="298" y="123" type="line"/>
      <point x="276" y="81" type="line" smooth="yes"/>
      <point x="274" y="77"/>
      <point x="267" y="94"/>
      <point x="272" y="92" type="curve" smooth="yes"/>
      <point x="391" y="47" type="line"/>
      <point x="385" y="33" type="line"/>
      <point x="266" y="78" type="line" smooth="yes"/>
      <point x="262" y="79"/>
      <point x="260" y="84"/>
      <point x="262" y="89" type="curve" smooth="yes"/>
      <point x="284" y="131" type="line"/>
    </contour>
  </outline>
</glyph>
<glyph name="H" format="2">
  <advance width="497"/>
  <unicode hex="0048"/>
  <anchor x="248.0" y="0" name="below"/>
  <anchor x="248.0" y="680.0" name="above"/>
  <outline>
    <contour>
      <point x="5" y="618" type="line"/>
      <point x="5" y="354" type="line"/>
      <point x="5" y="354"/>
      <point x="5" y="354"/>
      <point x="5" y="354" type="curve"/>
      <point x="5" y="62" type="line"/>
      <point x="-11" y="62" type="line"/>
      <point x="-11" y="354" type="line"/>
      <point x="-11" y="354"/>
      <point x="-11" y="354"/>
      <point x="-11" y="354" type="curve"/>
      <point x="-11" y="618" type="line"/>
    </contour>
    <contour>
      <point x="282" y="618" type="line"/>
      <point x="282" y="354" type="line"/>
      <point x="282" y="354"/>
      <point x="282" y="354"/>
      <point x="282" y="354" type="curve"/>
      <point x="282" y="62" type="line"/>
      <point x="266" y="62" type="line"/>
      <point x="266" y="354" type="line"/>
      <point x="266" y="354"/>
      <point x="266" y="354"/>
      <point x="266" y="354" type="curve"/>
      <point x="266" y="618" type="line"/>
    </contour>
    <contour>
      <point x="274" y="346" type="line"/>
      <point x="-3" y="346" type="line"/>
      <point x="-3" y="362" type="line"/>
      <point x="274" y="362" type="line"/>
    </contour>
    <contour>
      <point x="122" y="411" type="line"/>
      <point x="1" y="347" type="line" smooth="yes"/>
      <point x="-5" y="344"/>
      <point x="-5" y="364"/>
      <point x="1" y="361" type="curve" smooth="yes"/>
      <point x="122" y="298" type="line"/>
      <point x="114" y="284" type="line"/>
      <point x="-7" y="347" type="line" smooth="yes"/>
      <point x="-12" y="350"/>
      <point x="-12" y="358"/>
      <point x="-7" y="361" type="curve" smooth="yes"/>
      <point x="114" y="425" type="line"/>
    </contour>
    <contour>
      <point x="134" y="-7" type="line"/>
      <point x="-6" y="55" type="line" smooth="yes"/>
      <point x="-12" y="57"/>
      <point x="5" y="68"/>
      <point x="5" y="62" type="curve" smooth="yes"/>
      <point x="6" y="0" type="line"/>
      <point x="-10" y="0" type="line"/>
      <point x="-11" y="62" type="line" smooth="yes"/>
      <point x="-11" y="68"/>
      <point x="-5" y="72"/>
      <point x="0" y="69" type="curve" smooth="yes"/>
      <point x="140" y="7" type="line"/>
    </contour>
    <contour>
      <point x="6" y="680" type="line"/>
      <point x="5" y="618" type="line" smooth="yes"/>
      <point x="5" y="612"/>
      <point x="-12" y="623"/>
      <point x="-6" y="625" type="curve" smooth="yes"/>
      <point x="134" y="687" type="line"/>
      <point x="140" y="673" type="line"/>
      <point x="0" y="611" type="line" smooth="yes"/>
      <point x="-5" y="608"/>
      <point x="-11" y="612"/>
      <point x="-11" y="618" type="curve" smooth="yes"/>
      <point x="-10" y="680" type="line"/>
    </contour>
    <contour>
      <point x="286" y="289" type="line"/>
      <point x="266" y="352" type="line" smooth="yes"/>
      <point x="266" y="353"/>
      <point x="266" y="355"/>
      <point x="266" y="356" type="curve" smooth="yes"/>
      <point x="286" y="420" type="line"/>
      <point x="302" y="416" type="line"/>
      <point x="282" y="352" type="line" smooth="yes"/>
      <point x="281" y="350"/>
      <point x="281" y="358"/>
      <point x="282" y="356" type="curve" smooth="yes"/>
      <point x="302" y="293" type="line"/>
    </contour>
    <contour>
      <point x="411" y="-7" type="line"/>
      <point x="271" y="55" type="line" smooth="yes"/>
      <point x="265" y="57"/>
      <point x="282" y="68"/>
      <point x="282" y="62" type="curve" smooth="yes"/>
      <point x="283" y="0" type="line"/>
      <point x="267" y="0" type="line"/>
      <point x="266" y="62" type="line" smooth="yes"/>
      <point x="266" y="68"/>
      <point x="272" y="72"/>
      <point x="277" y="69" type="curve" smooth="yes"/>
      <point x="417" y="7" type="line"/>
    </contour>
    <contour>
      <point x="283" y="680" type="line"/>
      <point x="282" y="618" type="line" smooth="yes"/>
      <point x="282" y="612"/>
      <point x="265" y="623"/>
      <point x="271" y="625" type="curve" smooth="yes"/>
      <point x="411" y="687" type="line"/>
      <point x="417" y="673" type="line"/>
      <point x="277" y="611" type="line" smooth="yes"/>
      <point x="272" y="608"/>
      <point x="266" y="612"/>
      <point x="266" y="618" type="curve" smooth="yes"/>
      <point x="267" y="680" type="line"/>
    </contour>
  </outline>
</glyph>
<glyph name="I" format="2">
  <advance width="225"/>
  <unicode hex="0049"/>
  <anchor x="70.0" y="0" name="below"/>
  <anchor x="70.0" y="680.0" name="above"/>
  <outline>
    <contour>
      <point x="8" y="618" type="line"/>
      <point x="8" y="62" type="line"/>
      <point x="-8" y="62" type="line"/>
      <point x="-8" y="618" type="line"/>
    </contour>
    <contour>
      <point x="137" y="-7" type="line"/>
      <point x="-3" y="55" type="line" smooth="yes"/>
      <point x="-9" y="57"/>
      <point x="8" y="68"/>
      <point x="8" y="62" type="curve"/>
      <point x="8" y="0" type="line"/>
      <point x="-8" y="0" type="line"/>
      <point x="-8" y="62" type="line"/>
      <point x="-8" y="68"/>
      <point x="-2" y="72"/>
      <point x="3" y="69" type="curve" smooth="yes"/>
      <point x="143" y="7" type="line"/>
    </contour>
    <contour>
      <point x="8" y="680" type="line"/>
      <point x="8" y="618" type="line"/>
      <point x="8" y="612"/>
      <point x="-9" y="623"/>
      <point x="-3" y="625" type="curve" smooth="yes"/>
      <point x="137" y="687" type="line"/>
      <point x="143" y="673" type="line"/>
      <point x="3" y="611" type="line" smooth="yes"/>
      <point x="-2" y="608"/>
      <point x="-8" y="612"/>
      <point x="-8" y="618" type="curve"/>
      <point x="-8" y="680" type="line"/>
    </contour>
  </outline>
</glyph>
<glyph name="J" format="2">
  <advance width="331"/>
  <unicode hex="004A"/>
  <anchor x="185.0" y="-10" name="below"/>
  <anchor x="185.0" y="680.0" name="above"/>
  <outline>
    <contour>
      <point x="124" y="680" type="line"/>
      <point x="123" y="618" type="line" smooth="yes"/>
      <point x="123" y="612"/>
      <point x="106" y="623"/>
      <point x="112" y="625" type="curve" smooth="yes"/>
      <point x="252" y="687" type="line"/>
      <point x="258" y="673" type="line"/>
      <point x="118" y="611" type="line" smooth="yes"/>
      <point x="113" y="608"/>
      <point x="107" y="612"/>
      <point x="107" y="618" type="curve" smooth="yes"/>
      <point x="108" y="680" type="line"/>
    </contour>
    <contour>
      <point x="123" y="618" type="line"/>
      <point x="123" y="234" type="line"/>
      <point x="123" y="234"/>
      <point x="123" y="234"/>
      <point x="123" y="234" type="curve"/>
      <point x="123" y="118"/>
      <point x="77" y="47"/>
      <point x="0" y="46" type="curve" smooth="yes"/>
      <point x="0" y="46"/>
      <point x="0" y="46"/>
      <point x="0" y="46" type="curve" smooth="yes"/>
      <point x="-18" y="46"/>
      <point x="-38" y="51"/>
      <point x="-58" y="61" type="curve"/>
      <point x="-52" y="75" type="line"/>
      <point x="-34" y="67"/>
      <point x="-16" y="62"/>
      <point x="0" y="62" type="curve" smooth="yes"/>
      <point x="0" y="62"/>
      <point x="0" y="62"/>
      <point x="0" y="62" type="curve" smooth="yes"/>
      <point x="69" y="63"/>
      <point x="107" y="130"/>
      <point x="107" y="234" type="curve"/>
      <point x="107" y="234"/>
      <point x="107" y="234"/>
      <point x="107" y="234" type="curve"/>
      <point x="107" y="618" type="line"/>
    </contour>
    <contour>
      <point x="-35" y="11" type="line"/>
      <point x="-62" y="64" type="line" smooth="yes"/>
      <point x="-63" y="66"/>
      <point x="-63" y="68"/>
      <point x="-63" y="70" type="curve" smooth="yes"/>
      <point x="-36" y="188" type="line"/>
      <point x="-20" y="184" type="line"/>
      <point x="-47" y="66" type="line" smooth="yes"/>
      <point x="-48" y="64"/>
      <point x="-49" y="73"/>
      <point x="-48" y="72" type="curve" smooth="yes"/>
      <point x="-21" y="19" type="line"/>
    </contour>
  </outline>
</glyph>
<glyph name="K" format="2">
  <advance width="461"/>
  <unicode hex="004B"/>
  <anchor x="242.0" y="0" name="below"/>
  <anchor x="242.0" y="680.0" name="above"/>
  <outline>
    <contour>
      <point x="1" y="618" type="line"/>
      <point x="1" y="341" type="line"/>
      <point x="1" y="341"/>
      <point x="1" y="341"/>
      <point x="1" y="341" type="curve"/>
      <point x="1" y="62" type="line"/>
      <point x="-15" y="62" type="line"/>
      <point x="-15" y="341" type="line"/>
      <point x="-15" y="341"/>
      <point x="-15" y="341"/>
      <point x="-15" y="341" type="curve"/>
      <point x="-15" y="618" type="line"/>
    </contour>
    <contour>
      <point x="240" y="614" type="line"/>
      <point x="94" y="394" type="line" smooth="yes"/>
      <point x="94" y="394"/>
      <point x="94" y="394"/>
      <point x="94" y="394" type="curve" smooth="yes"/>
      <point x="61" y="344"/>
      <point x="41" y="336"/>
      <point x="-6" y="333" type="curve" smooth="yes"/>
      <point x="-17" y="332"/>
      <point x="-18" y="348"/>
      <point x="-8" y="349" type="curve" smooth="yes"/>
      <point x="40" y="352"/>
      <point x="63" y="343"/>
      <point x="90" y="300" type="curve" smooth="yes"/>
      <point x="90" y="300"/>
      <point x="90" y="300"/>
      <point x="90" y="300" type="curve" smooth="yes"/>
      <point x="240" y="66" type="line"/>
      <point x="226" y="58" type="line"/>
      <point x="76" y="292" type="line" smooth="yes"/>
      <point x="76" y="292"/>
      <point x="76" y="292"/>
      <point x="76" y="292" type="curve" smooth="yes"/>
      <point x="53" y="329"/>
      <point x="36" y="336"/>
      <point x="-6" y="333" type="curve" smooth="yes"/>
      <point x="-17" y="332"/>
      <point x="-18" y="348"/>
      <point x="-8" y="349" type="curve" smooth="yes"/>
      <point x="35" y="352"/>
      <point x="51" y="358"/>
      <point x="80" y="402" type="curve" smooth="yes"/>
      <point x="80" y="402"/>
      <point x="80" y="402"/>
      <point x="80" y="402" type="curve" smooth="yes"/>
      <point x="226" y="622" type="line"/>
    </contour>
    <contour>
      <point x="117" y="410" type="line"/>
      <point x="-3" y="334" type="line" smooth="yes"/>
      <point x="-8" y="331"/>
      <point x="-7" y="351"/>
      <point x="-3" y="348" type="curve" smooth="yes"/>
      <point x="117" y="268" type="line"/>
      <point x="109" y="254" type="line"/>
      <point x="-11" y="334" type="line" smooth="yes"/>
      <point x="-16" y="338"/>
      <point x="-16" y="345"/>
      <point x="-11" y="348" type="curve" smooth="yes"/>
      <point x="109" y="424" type="line"/>
    </contour>
    <contour>
      <point x="130" y="-7" type="line"/>
      <point x="-10" y="55" type="line" smooth="yes"/>
      <point x="-16" y="57"/>
      <point x="1" y="68"/>
      <point x="1" y="62" type="curve"/>
      <point x="1" y="0" type="line"/>
      <point x="-15" y="0" type="line"/>
      <point x="-15" y="62" type="line"/>
      <point x="-15" y="68"/>
      <point x="-9" y="72"/>
      <point x="-4" y="69" type="curve" smooth="yes"/>
      <point x="136" y="7" type="line"/>
    </contour>
    <contour>
      <point x="1" y="680" type="line"/>
      <point x="1" y="618" type="line"/>
      <point x="1" y="612"/>
      <point x="-16" y="623"/>
      <point x="-10" y="625" type="curve" smooth="yes"/>
      <point x="130" y="687" type="line"/>
      <point x="136" y="673" type="line"/>
      <point x="-4" y="611" type="line" smooth="yes"/>
      <point x="-9" y="608"/>
      <point x="-15" y="612"/>
      <point x="-15" y="618" type="curve"/>
      <point x="-15" y="680" type="line"/>
    </contour>
    <contour>
      <point x="423" y="-8" type="line"/>
      <point x="231" y="54" type="line" smooth="yes"/>
      <point x="224" y="57"/>
      <point x="237" y="72"/>
      <point x="240" y="65" type="curve" smooth="yes"/>
      <point x="268" y="3" type="line"/>
      <point x="254" y="-3" type="line"/>
      <point x="226" y="59" type="line" smooth="yes"/>
      <point x="223" y="65"/>
      <point x="229" y="72"/>
      <point x="235" y="70" type="curve" smooth="yes"/>
      <point x="427" y="8" type="line"/>
    </contour>
    <contour>
      <point x="276" y="676" type="line"/>
      <point x="240" y="614" type="line" smooth="yes"/>
      <point x="236" y="608"/>
      <point x="223" y="623"/>
      <point x="230" y="626" type="curve" smooth="yes"/>
      <point x="417" y="688" type="line"/>
      <point x="423" y="672" type="line"/>
      <point x="236" y="610" type="line" smooth="yes"/>
      <point x="229" y="608"/>
      <point x="222" y="616"/>
      <point x="226" y="622" type="curve" smooth="yes"/>
      <point x="262" y="684" type="line"/>
    </contour>
    <contour>
      <point x="-7" y="349" type="line"/>
      <point x="32" y="351"/>
      <point x="72" y="354"/>
      <point x="182" y="356" type="curve"/>
      <point x="182" y="340" type="line"/>
      <point x="72" y="338"/>
      <point x="32" y="335"/>
      <point x="-7" y="333" type="curve"/>
    </contour>
  </outline>
</glyph>
<glyph name="M" format="2">
  <advance width="610"/>
  <unicode hex="004D"/>
  <anchor x="303.0" y="0" name="below"/>
  <anchor x="305.0" y="680.0" name="above"/>
  <outline>
    <contour>
      <point x="124" y="-7" type="line"/>
      <point x="-12" y="55" type="line" smooth="yes"/>
      <point x="-18" y="57"/>
      <point x="-2" y="69"/>
      <point x="-1" y="63" type="curve" smooth="yes"/>
      <point x="5" y="1" type="line"/>
      <point x="-11" y="-1" type="line"/>
      <point x="-17" y="61" type="line" smooth="yes"/>
      <point x="-18" y="67"/>
      <point x="-11" y="72"/>
      <point x="-6" y="69" type="curve" smooth="yes"/>
      <point x="130" y="7" type="line"/>
    </contour>
    <contour>
      <point x="525" y="-7" type="line"/>
      <point x="388" y="55" type="line" smooth="yes"/>
      <point x="382" y="57"/>
      <point x="399" y="69"/>
      <point x="399" y="63" type="curve" smooth="yes"/>
      <point x="403" y="1" type="line"/>
      <point x="387" y="-1" type="line"/>
      <point x="383" y="61" type="line" smooth="yes"/>
      <point x="383" y="68"/>
      <point x="389" y="72"/>
      <point x="394" y="69" type="curve" smooth="yes"/>
      <point x="531" y="7" type="line"/>
    </contour>
    <contour>
      <point x="102" y="498" type="line"/>
      <point x="-15" y="612" type="line" smooth="yes"/>
      <point x="-16" y="614"/>
      <point x="-17" y="616"/>
      <point x="-17" y="619" type="curve" smooth="yes"/>
      <point x="-11" y="681" type="line"/>
      <point x="5" y="679" type="line"/>
      <point x="-1" y="617" type="line" smooth="yes"/>
      <point x="-1" y="615"/>
      <point x="-5" y="625"/>
      <point x="-3" y="624" type="curve" smooth="yes"/>
      <point x="114" y="510" type="line"/>
    </contour>
    <contour>
      <point x="531" y="673" type="line"/>
      <point x="394" y="611" type="line" smooth="yes"/>
      <point x="391" y="609"/>
      <point x="398" y="623"/>
      <point x="399" y="620" type="curve" smooth="yes"/>
      <point x="421" y="511" type="line"/>
      <point x="405" y="507" type="line"/>
      <point x="383" y="616" type="line" smooth="yes"/>
      <point x="382" y="620"/>
      <point x="384" y="624"/>
      <point x="388" y="625" type="curve" smooth="yes"/>
      <point x="525" y="687" type="line"/>
    </contour>
    <contour>
      <point x="-17" y="62" type="line"/>
      <point x="-17" y="618" type="line" smooth="yes"/>
      <point x="-17" y="622"/>
      <point x="-13" y="626"/>
      <point x="-9" y="626" type="curve" smooth="yes"/>
      <point x="60" y="626" type="line" smooth="yes"/>
      <point x="64" y="626"/>
      <point x="67" y="623"/>
      <point x="68" y="620" type="curve" smooth="yes"/>
      <point x="198" y="70" type="line" smooth="yes"/>
      <point x="200" y="62"/>
      <point x="180" y="62"/>
      <point x="182" y="70" type="curve" smooth="yes"/>
      <point x="317" y="620" type="line" smooth="yes"/>
      <point x="318" y="623"/>
      <point x="321" y="626"/>
      <point x="325" y="626" type="curve" smooth="yes"/>
      <point x="391" y="626" type="line" smooth="yes"/>
      <point x="395" y="626"/>
      <point x="399" y="622"/>
      <point x="399" y="618" type="curve" smooth="yes"/>
      <point x="399" y="62" type="line"/>
      <point x="383" y="62" type="line"/>
      <point x="383" y="618" type="line" smooth="yes"/>
      <point x="383" y="622"/>
      <point x="395" y="610"/>
      <point x="391" y="610" type="curve" smooth="yes"/>
      <point x="325" y="610" type="line" smooth="yes"/>
      <point x="321" y="610"/>
      <point x="334" y="620"/>
      <point x="333" y="616" type="curve" smooth="yes"/>
      <point x="198" y="66" type="line" smooth="yes"/>
      <point x="196" y="58"/>
      <point x="184" y="58"/>
      <point x="182" y="66" type="curve" smooth="yes"/>
      <point x="52" y="616" type="line" smooth="yes"/>
      <point x="51" y="620"/>
      <point x="64" y="610"/>
      <point x="60" y="610" type="curve" smooth="yes"/>
      <point x="-9" y="610" type="line" smooth="yes"/>
      <point x="-13" y="610"/>
      <point x="-1" y="622"/>
      <point x="-1" y="618" type="curve" smooth="yes"/>
      <point x="-1" y="62" type="line"/>
    </contour>
    <contour>
      <point x="185" y="673" type="line"/>
      <point x="64" y="611" type="line" smooth="yes"/>
      <point x="60" y="609"/>
      <point x="66" y="625"/>
      <point x="67" y="621" type="curve" smooth="yes"/>
      <point x="115" y="507" type="line"/>
      <point x="101" y="501" type="line"/>
      <point x="53" y="615" type="line" smooth="yes"/>
      <point x="51" y="619"/>
      <point x="53" y="623"/>
      <point x="56" y="625" type="curve" smooth="yes"/>
      <point x="177" y="687" type="line"/>
    </contour>
    <contour>
      <point x="407" y="504" type="line"/>
      <point x="319" y="613" type="line" smooth="yes"/>
      <point x="317" y="615"/>
      <point x="316" y="618"/>
      <point x="318" y="621" type="curve" smooth="yes"/>
      <point x="343" y="683" type="line"/>
      <point x="357" y="677" type="line"/>
      <point x="332" y="615" type="line" smooth="yes"/>
      <point x="331" y="612"/>
      <point x="329" y="625"/>
      <point x="331" y="623" type="curve" smooth="yes"/>
      <point x="419" y="514" type="line"/>
    </contour>
    <contour>
      <point x="282" y="-7" type="line"/>
      <point x="185" y="61" type="line" smooth="yes"/>
      <point x="178" y="66"/>
      <point x="193" y="79"/>
      <point x="197" y="72" type="curve" smooth="yes"/>
      <point x="237" y="4" type="line"/>
      <point x="223" y="-4" type="line"/>
      <point x="183" y="64" type="line" smooth="yes"/>
      <point x="179" y="71"/>
      <point x="188" y="79"/>
      <point x="195" y="75" type="curve" smooth="yes"/>
      <point x="292" y="7" type="line"/>
    </contour>
    <contour>
      <point x="272" y="247" type="line"/>
      <point x="197" y="65" type="line"/>
      <point x="183" y="71" type="line"/>
      <point x="258" y="253" type="line"/>
    </contour>
  </outline>
</glyph>
<glyph name="O" format="2">
  <advance width="524"/>
  <unicode hex="004F"/>
  <anchor x="220.0" y="680.0" name="above"/>
  <anchor x="220.0" y="1" name="below"/>
  <outline>
    <contour>
      <point x="149" y="60" type="curve"/>
      <point x="149" y="60"/>
      <point x="149" y="60"/>
      <point x="149" y="60" type="curve"/>
      <point x="252" y="60"/>
      <point x="323" y="174"/>
      <point x="323" y="341" type="curve"/>
      <point x="323" y="341"/>
      <point x="323" y="341"/>
      <point x="323" y="341" type="curve"/>
      <point x="323" y="507"/>
      <point x="252" y="620"/>
      <point x="149" y="620" type="curve"/>
      <point x="149" y="620"/>
      <point x="149" y="620"/>
      <point x="149" y="620" type="curve"/>
      <point x="45" y="620"/>
      <point x="-25" y="508"/>
      <point x="-25" y="341" type="curve"/>
      <point x="-25" y="341"/>
      <point x="-25" y="341"/>
      <point x="-25" y="341" type="curve"/>
      <point x="-25" y="174"/>
      <point x="45" y="60"/>
    </contour>
    <contour>
      <point x="149" y="44" type="curve"/>
      <point x="37" y="44"/>
      <point x="-41" y="162"/>
      <point x="-41" y="341" type="curve"/>
      <point x="-41" y="341"/>
      <point x="-41" y="341"/>
      <point x="-41" y="341" type="curve"/>
      <point x="-41" y="520"/>
      <point x="37" y="636"/>
      <point x="149" y="636" type="curve"/>
      <point x="149" y="636"/>
      <point x="149" y="636"/>
      <point x="149" y="636" type="curve"/>
      <point x="260" y="636"/>
      <point x="339" y="519"/>
      <point x="339" y="341" type="curve"/>
      <point x="339" y="341"/>
      <point x="339" y="341"/>
      <point x="339" y="341" type="curve"/>
      <point x="339" y="162"/>
      <point x="260" y="44"/>
      <point x="149" y="44" type="curve"/>
      <point x="149" y="44"/>
      <point x="149" y="44"/>
    </contour>
  </outline>
</glyph>
<glyph name="P" format="2">
  <advance width="419"/>
  <unicode hex="0050"/>
  <outline>
    <contour>
      <point x="-3" y="300" type="line"/>
      <point x="111" y="300" type="line"/>
      <point x="111" y="300"/>
      <point x="111" y="300"/>
      <point x="111" y="300" type="curve"/>
      <point x="185" y="300"/>
      <point x="228" y="363"/>
      <point x="228" y="455" type="curve"/>
      <point x="228" y="455"/>
      <point x="228" y="455"/>
      <point x="228" y="455" type="curve"/>
      <point x="228" y="547"/>
      <point x="185" y="610"/>
      <point x="111" y="610" type="curve"/>
      <point x="111" y="610"/>
      <point x="111" y="610"/>
      <point x="111" y="610" type="curve"/>
      <point x="-3" y="610" type="line" smooth="yes"/>
      <point x="-7" y="610"/>
      <point x="5" y="622"/>
      <point x="5" y="618" type="curve"/>
      <point x="5" y="62" type="line"/>
      <point x="-11" y="62" type="line"/>
      <point x="-11" y="618" type="line"/>
      <point x="-11" y="622"/>
      <point x="-7" y="626"/>
      <point x="-3" y="626" type="curve" smooth="yes"/>
      <point x="111" y="626" type="line"/>
      <point x="111" y="626"/>
      <point x="111" y="626"/>
      <point x="111" y="626" type="curve"/>
      <point x="193" y="626"/>
      <point x="244" y="557"/>
      <point x="244" y="455" type="curve"/>
      <point x="244" y="455"/>
      <point x="244" y="455"/>
      <point x="244" y="455" type="curve"/>
      <point x="244" y="353"/>
      <point x="193" y="284"/>
      <point x="111" y="284" type="curve"/>
      <point x="111" y="284"/>
      <point x="111" y="284"/>
      <point x="111" y="284" type="curve"/>
      <point x="-3" y="284" type="line"/>
    </contour>
    <contour>
      <point x="122" y="348" type="line"/>
      <point x="1" y="285" type="line" smooth="yes"/>
      <point x="-5" y="282"/>
      <point x="-5" y="302"/>
      <point x="1" y="299" type="curve" smooth="yes"/>
      <point x="123" y="237" type="line"/>
      <point x="115" y="223" type="line"/>
      <point x="-7" y="285" type="line" smooth="yes"/>
      <point x="-12" y="288"/>
      <point x="-12" y="296"/>
      <point x="-7" y="299" type="curve" smooth="yes"/>
      <point x="114" y="362" type="line"/>
    </contour>
    <contour>
      <point x="134" y="-7" type="line"/>
      <point x="-6" y="55" type="line" smooth="yes"/>
      <point x="-12" y="57"/>
      <point x="5" y="68"/>
      <point x="5" y="62" type="curve" smooth="yes"/>
      <point x="6" y="0" type="line"/>
      <point x="-10" y="0" type="line"/>
      <point x="-11" y="62" type="line" smooth="yes"/>
      <point x="-11" y="68"/>
      <point x="-5" y="72"/>
      <point x="0" y="69" type="curve" smooth="yes"/>
      <point x="140" y="7" type="line"/>
    </contour>
    <contour>
      <point x="6" y="680" type="line"/>
      <point x="5" y="618" type="line" smooth="yes"/>
      <point x="5" y="615"/>
      <point x="-2" y="627"/>
      <point x="1" y="625" type="curve" smooth="yes"/>
      <point x="125" y="562" type="line"/>
      <point x="117" y="548" type="line"/>
      <point x="-7" y="611" type="line" smooth="yes"/>
      <point x="-9" y="612"/>
      <point x="-11" y="615"/>
      <point x="-11" y="618" type="curve" smooth="yes"/>
      <point x="-10" y="680" type="line"/>
    </contour>
  </outline>
</glyph>
<glyph name="Q" format="2">
  <advance width="524"/>
  <unicode hex="0051"/>
  <outline>
    <contour>
      <point x="149" y="60" type="curve"/>
      <point x="149" y="60"/>
      <point x="149" y="60"/>
      <point x="149" y="60" type="curve"/>
      <point x="175" y="60"/>
      <point x="200" y="68"/>
      <point x="222" y="82" type="curve" smooth="yes"/>
      <point x="222" y="82"/>
      <point x="222" y="82"/>
      <point x="222" y="82" type="curve" smooth="yes"/>
      <point x="284" y="124"/>
      <point x="323" y="217"/>
      <point x="323" y="341" type="curve"/>
      <point x="323" y="341"/>
      <point x="323" y="341"/>
      <point x="323" y="341" type="curve"/>
      <point x="323" y="507"/>
      <point x="251" y="620"/>
      <point x="149" y="620" type="curve"/>
      <point x="149" y="620"/>
      <point x="149" y="620"/>
      <point x="149" y="620" type="curve"/>
      <point x="47" y="620"/>
      <point x="-25" y="508"/>
      <point x="-25" y="341" type="curve"/>
      <point x="-25" y="341"/>
      <point x="-25" y="341"/>
      <point x="-25" y="341" type="curve"/>
      <point x="-25" y="174"/>
      <point x="47" y="60"/>
    </contour>
    <contour>
      <point x="149" y="44" type="curve"/>
      <point x="40" y="44"/>
      <point x="-41" y="162"/>
      <point x="-41" y="341" type="curve"/>
      <point x="-41" y="341"/>
      <point x="-41" y="341"/>
      <point x="-41" y="341" type="curve"/>
      <point x="-41" y="520"/>
      <point x="40" y="636"/>
      <point x="149" y="636" type="curve"/>
      <point x="149" y="636"/>
      <point x="149" y="636"/>
      <point x="149" y="636" type="curve"/>
      <point x="258" y="636"/>
      <point x="339" y="519"/>
      <point x="339" y="341" type="curve"/>
      <point x="339" y="341"/>
      <point x="339" y="341"/>
      <point x="339" y="341" type="curve"/>
      <point x="339" y="211"/>
      <point x="296" y="112"/>
      <point x="230" y="68" type="curve" smooth="yes"/>
      <point x="230" y="68"/>
      <point x="230" y="68"/>
      <point x="230" y="68" type="curve" smooth="yes"/>
      <point x="206" y="52"/>
      <point x="179" y="44"/>
      <point x="149" y="44" type="curve"/>
      <point x="149" y="44"/>
      <point x="149" y="44"/>
    </contour>
    <contour>
      <point x="510" y="-69" type="line"/>
      <point x="410" y="-102"/>
      <point x="299" y="-67"/>
      <point x="219" y="71" type="curve"/>
      <point x="233" y="79" type="line"/>
      <point x="309" y="-51"/>
      <point x="410" y="-84"/>
      <point x="504" y="-53" type="curve"/>
    </contour>
    <contour>
      <point x="266" y="-8" type="line"/>
      <point x="219" y="71" type="line" smooth="yes"/>
      <point x="216" y="77"/>
      <point x="220" y="84"/>
      <point x="227" y="83" type="curve" smooth="yes"/>
      <point x="369" y="69" type="line"/>
      <point x="367" y="53" type="line"/>
      <point x="225" y="67" type="line" smooth="yes"/>
      <point x="219" y="68"/>
      <point x="230" y="85"/>
      <point x="233" y="79" type="curve" smooth="yes"/>
      <point x="280" y="0" type="line"/>
    </contour>
  </outline>
</glyph>
<glyph name="S" format="2">
  <advance width="377"/>
  <unicode hex="0053"/>
  <anchor x="145.0" y="-2" name="below"/>
  <anchor x="152.0" y="682.0" name="above"/>
  <outline>
    <contour>
      <point x="175" y="601" type="line"/>
      <point x="149" y="613"/>
      <point x="121" y="620"/>
      <point x="96" y="620" type="curve"/>
      <point x="96" y="620"/>
      <point x="96" y="620"/>
      <point x="96" y="620" type="curve"/>
      <point x="25" y="620"/>
      <point x="-17" y="570"/>
      <point x="-17" y="490" type="curve"/>
      <point x="-17" y="490"/>
      <point x="-17" y="490"/>
      <point x="-17" y="490" type="curve"/>
      <point x="-17" y="415"/>
      <point x="35" y="381"/>
      <point x="86" y="347" type="curve"/>
      <point x="86" y="347"/>
      <point x="86" y="347"/>
      <point x="86" y="347" type="curve"/>
      <point x="143" y="309"/>
      <point x="198" y="272"/>
      <point x="198" y="192" type="curve"/>
      <point x="198" y="192"/>
      <point x="198" y="192"/>
      <point x="198" y="192" type="curve"/>
      <point x="198" y="97"/>
      <point x="144" y="42"/>
      <point x="62" y="42" type="curve"/>
      <point x="62" y="42"/>
      <point x="62" y="42"/>
      <point x="62" y="42" type="curve"/>
      <point x="32" y="42"/>
      <point x="-3" y="49"/>
      <point x="-35" y="65" type="curve"/>
      <point x="-29" y="79" type="line"/>
      <point x="1" y="65"/>
      <point x="34" y="58"/>
      <point x="62" y="58" type="curve"/>
      <point x="62" y="58"/>
      <point x="62" y="58"/>
      <point x="62" y="58" type="curve"/>
      <point x="136" y="58"/>
      <point x="182" y="107"/>
      <point x="182" y="192" type="curve"/>
      <point x="182" y="192"/>
      <point x="182" y="192"/>
      <point x="182" y="192" type="curve"/>
      <point x="182" y="266"/>
      <point x="129" y="299"/>
      <point x="78" y="333" type="curve"/>
      <point x="78" y="333"/>
      <point x="78" y="333"/>
      <point x="78" y="333" type="curve"/>
      <point x="21" y="371"/>
      <point x="-33" y="409"/>
      <point x="-33" y="490" type="curve"/>
      <point x="-33" y="490"/>
      <point x="-33" y="490"/>
      <point x="-33" y="490" type="curve"/>
      <point x="-33" y="580"/>
      <point x="17" y="636"/>
      <point x="96" y="636" type="curve"/>
      <point x="96" y="636"/>
      <point x="96" y="636"/>
      <point x="96" y="636" type="curve"/>
      <point x="123" y="636"/>
      <point x="153" y="629"/>
      <point x="181" y="615" type="curve"/>
    </contour>
    <contour>
      <point x="297" y="657" type="line"/>
      <point x="182" y="601" type="line" smooth="yes"/>
      <point x="176" y="598"/>
      <point x="179" y="618"/>
      <point x="183" y="614" type="curve" smooth="yes"/>
      <point x="298" y="506" type="line"/>
      <point x="288" y="494" type="line"/>
      <point x="173" y="602" type="line" smooth="yes"/>
      <point x="168" y="606"/>
      <point x="169" y="613"/>
      <point x="174" y="615" type="curve" smooth="yes"/>
      <point x="289" y="671" type="line"/>
    </contour>
    <contour>
      <point x="-13" y="12" type="line"/>
      <point x="-39" y="69" type="line" smooth="yes"/>
      <point x="-40" y="70"/>
      <point x="-40" y="72"/>
      <point x="-40" y="74" type="curve" smooth="yes"/>
      <point x="-14" y="183" type="line"/>
      <point x="2" y="179" type="line"/>
      <point x="-24" y="70" type="line" smooth="yes"/>
      <point x="-25" y="68"/>
      <point x="-25" y="77"/>
      <point x="-25" y="75" type="curve" smooth="yes"/>
      <point x="1" y="18" type="line"/>
    </contour>
  </outline>
</glyph>
<glyph name="T" format="2">
  <advance width="389"/>
  <unicode hex="0054"/>
  <anchor x="194.0" y="0" name="below"/>
  <anchor x="194.0" y="680.0" name="above"/>
  <outline>
    <contour>
      <point x="214" y="608" type="line"/>
      <point x="81" y="608" type="line"/>
      <point x="81" y="608"/>
      <point x="81" y="608"/>
      <point x="81" y="608" type="curve"/>
      <point x="-51" y="608" type="line"/>
      <point x="-51" y="624" type="line"/>
      <point x="81" y="624" type="line"/>
      <point x="81" y="624"/>
      <point x="81" y="624"/>
      <point x="81" y="624" type="curve"/>
      <point x="214" y="624" type="line"/>
    </contour>
    <contour>
      <point x="89" y="616" type="line"/>
      <point x="89" y="62" type="line"/>
      <point x="73" y="62" type="line"/>
      <point x="73" y="616" type="line"/>
    </contour>
    <contour>
      <point x="219" y="-7" type="line"/>
      <point x="78" y="55" type="line" smooth="yes"/>
      <point x="72" y="57"/>
      <point x="89" y="68"/>
      <point x="89" y="62" type="curve" smooth="yes"/>
      <point x="90" y="0" type="line"/>
      <point x="74" y="0" type="line"/>
      <point x="73" y="62" type="line" smooth="yes"/>
      <point x="73" y="68"/>
      <point x="79" y="72"/>
      <point x="84" y="69" type="curve" smooth="yes"/>
      <point x="225" y="7" type="line"/>
    </contour>
    <contour>
      <point x="332" y="673" type="line"/>
      <point x="218" y="609" type="line" smooth="yes"/>
      <point x="213" y="606"/>
      <point x="215" y="626"/>
      <point x="219" y="622" type="curve" smooth="yes"/>
      <point x="333" y="530" type="line"/>
      <point x="323" y="518" type="line"/>
      <point x="209" y="610" type="line" smooth="yes"/>
      <point x="205" y="613"/>
      <point x="205" y="620"/>
      <point x="210" y="623" type="curve" smooth="yes"/>
      <point x="324" y="687" type="line"/>
    </contour>
    <contour>
      <point x="-32" y="522" type="line"/>
      <point x="-59" y="614" type="line" smooth="yes"/>
      <point x="-59" y="616"/>
      <point x="-59" y="617"/>
      <point x="-58" y="619" type="curve" smooth="yes"/>
      <point x="-31" y="683" type="line"/>
      <point x="-17" y="677" type="line"/>
      <point x="-44" y="613" type="line" smooth="yes"/>
      <point x="-44" y="611"/>
      <point x="-44" y="620"/>
      <point x="-43" y="618" type="curve" smooth="yes"/>
      <point x="-16" y="526" type="line"/>
    </contour>
    <contour>
      <point x="91" y="551" type="line"/>
      <point x="73" y="614" type="line" smooth="yes"/>
      <point x="71" y="621"/>
      <point x="78" y="626"/>
      <point x="85" y="623" type="curve" smooth="yes"/>
      <point x="209" y="560" type="line"/>
      <point x="201" y="546" type="line"/>
      <point x="77" y="609" type="line" smooth="yes"/>
      <point x="71" y="612"/>
      <point x="87" y="625"/>
      <point x="89" y="618" type="curve" smooth="yes"/>
      <point x="107" y="555" type="line"/>
    </contour>
  </outline>
</glyph>
<glyph name="U" format="2">
  <advance width="484"/>
  <unicode hex="0055"/>
  <anchor x="321.0" y="680" name="horn"/>
  <anchor x="241.0" y="-5" name="below"/>
  <anchor x="241.0" y="680.0" name="above"/>
  <outline>
    <contour>
      <point x="275" y="618" type="line"/>
      <point x="275" y="234" type="line"/>
      <point x="275" y="234"/>
      <point x="275" y="234"/>
      <point x="275" y="234" type="curve"/>
      <point x="275" y="115"/>
      <point x="216" y="40"/>
      <point x="129" y="40" type="curve"/>
      <point x="129" y="40"/>
      <point x="129" y="40"/>
      <point x="129" y="40" type="curve"/>
      <point x="42" y="40"/>
      <point x="-18" y="115"/>
      <point x="-18" y="234" type="curve"/>
      <point x="-18" y="234"/>
      <point x="-18" y="234"/>
      <point x="-18" y="234" type="curve"/>
      <point x="-18" y="618" type="line"/>
      <point x="-2" y="618" type="line"/>
      <point x="-2" y="234" type="line"/>
      <point x="-2" y="234"/>
      <point x="-2" y="234"/>
      <point x="-2" y="234" type="curve"/>
      <point x="-2" y="125"/>
      <point x="50" y="56"/>
      <point x="129" y="56" type="curve"/>
      <point x="129" y="56"/>
      <point x="129" y="56"/>
      <point x="129" y="56" type="curve"/>
      <point x="208" y="56"/>
      <point x="259" y="125"/>
      <point x="259" y="234" type="curve"/>
      <point x="259" y="234"/>
      <point x="259" y="234"/>
      <point x="259" y="234" type="curve"/>
      <point x="259" y="618" type="line"/>
    </contour>
    <contour>
      <point x="-1" y="680" type="line"/>
      <point x="-2" y="618" type="line" smooth="yes"/>
      <point x="-2" y="612"/>
      <point x="-19" y="623"/>
      <point x="-13" y="625" type="curve" smooth="yes"/>
      <point x="127" y="687" type="line"/>
      <point x="133" y="673" type="line"/>
      <point x="-7" y="611" type="line" smooth="yes"/>
      <point x="-12" y="608"/>
      <point x="-18" y="612"/>
      <point x="-18" y="618" type="curve" smooth="yes"/>
      <point x="-17" y="680" type="line"/>
    </contour>
    <contour>
      <point x="277" y="680" type="line"/>
      <point x="275" y="618" type="line" smooth="yes"/>
      <point x="275" y="612"/>
      <point x="258" y="623"/>
      <point x="264" y="625" type="curve" smooth="yes"/>
      <point x="405" y="687" type="line"/>
      <point x="411" y="673" type="line"/>
      <point x="270" y="611" type="line" smooth="yes"/>
      <point x="265" y="608"/>
      <point x="259" y="612"/>
      <point x="259" y="618" type="curve" smooth="yes"/>
      <point x="261" y="680" type="line"/>
    </contour>
  </outline>
</glyph>
<glyph name="V" format="2">
  <advance width="462"/>
  <unicode hex="0056"/>
  <outline>
    <contour>
      <point x="283" y="679" type="line"/>
      <point x="274" y="609" type="line" smooth="yes"/>
      <point x="273" y="603"/>
      <point x="257" y="615"/>
      <point x="263" y="617" type="curve" smooth="yes"/>
      <point x="416" y="687" type="line"/>
      <point x="422" y="673" type="line"/>
      <point x="269" y="603" type="line" smooth="yes"/>
      <point x="264" y="600"/>
      <point x="257" y="605"/>
      <point x="258" y="611" type="curve" smooth="yes"/>
      <point x="267" y="681" type="line"/>
    </contour>
    <contour>
      <point x="-34" y="682" type="line"/>
      <point x="-18" y="612" type="line" smooth="yes"/>
      <point x="-17" y="607"/>
      <point x="-34" y="615"/>
      <point x="-30" y="617" type="curve" smooth="yes"/>
      <point x="107" y="687" type="line"/>
      <point x="115" y="673" type="line"/>
      <point x="-22" y="603" type="line" smooth="yes"/>
      <point x="-27" y="601"/>
      <point x="-33" y="603"/>
      <point x="-34" y="608" type="curve" smooth="yes"/>
      <point x="-50" y="678" type="line"/>
    </contour>
    <contour>
      <point x="-18" y="612" type="line"/>
      <point x="49" y="333" type="line" smooth="yes"/>
      <point x="49" y="333"/>
      <point x="49" y="333"/>
      <point x="49" y="333" type="curve" smooth="yes"/>
      <point x="68" y="258"/>
      <point x="91" y="164"/>
      <point x="105" y="92" type="curve" smooth="yes"/>
      <point x="106" y="88"/>
      <point x="93" y="98"/>
      <point x="97" y="98" type="curve" smooth="yes"/>
      <point x="143" y="98" type="line" smooth="yes"/>
      <point x="147" y="98"/>
      <point x="134" y="88"/>
      <point x="135" y="92" type="curve" smooth="yes"/>
      <point x="149" y="164"/>
      <point x="172" y="258"/>
      <point x="191" y="333" type="curve" smooth="yes"/>
      <point x="191" y="333"/>
      <point x="191" y="333"/>
      <point x="191" y="333" type="curve" smooth="yes"/>
      <point x="258" y="612" type="line"/>
      <point x="274" y="608" type="line"/>
      <point x="207" y="329" type="line" smooth="yes"/>
      <point x="207" y="329"/>
      <point x="207" y="329"/>
      <point x="207" y="329" type="curve" smooth="yes"/>
      <point x="188" y="254"/>
      <point x="165" y="160"/>
      <point x="151" y="88" type="curve" smooth="yes"/>
      <point x="150" y="85"/>
      <point x="147" y="82"/>
      <point x="143" y="82" type="curve" smooth="yes"/>
      <point x="97" y="82" type="line" smooth="yes"/>
      <point x="93" y="82"/>
      <point x="90" y="85"/>
      <point x="89" y="88" type="curve" smooth="yes"/>
      <point x="75" y="160"/>
      <point x="52" y="254"/>
      <point x="33" y="329" type="curve" smooth="yes"/>
      <point x="33" y="329"/>
      <point x="33" y="329"/>
      <point x="33" y="329" type="curve" smooth="yes"/>
      <point x="-34" y="608" type="line"/>
    </contour>
    <contour>
      <point x="129" y="-3" type="line"/>
      <point x="90" y="87" type="line" smooth="yes"/>
      <point x="88" y="90"/>
      <point x="89" y="93"/>
      <point x="91" y="95" type="curve" smooth="yes"/>
      <point x="187" y="214" type="line" smooth="yes"/>
      <point x="193" y="221"/>
      <point x="204" y="214"/>
      <point x="200" y="206" type="curve" smooth="yes"/>
      <point x="150" y="87" type="line" smooth="yes"/>
      <point x="149" y="84"/>
      <point x="146" y="98"/>
      <point x="148" y="96" type="curve" smooth="yes"/>
      <point x="249" y="6" type="line"/>
      <point x="239" y="-6" type="line"/>
      <point x="138" y="84" type="line" smooth="yes"/>
      <point x="135" y="86"/>
      <point x="134" y="90"/>
      <point x="136" y="93" type="curve" smooth="yes"/>
      <point x="186" y="212" type="line" smooth="yes"/>
      <point x="189" y="221"/>
      <point x="205" y="211"/>
      <point x="199" y="204" type="curve" smooth="yes"/>
      <point x="103" y="85" type="line" smooth="yes"/>
      <point x="101" y="83"/>
      <point x="103" y="96"/>
      <point x="104" y="93" type="curve" smooth="yes"/>
      <point x="143" y="3" type="line"/>
    </contour>
  </outline>
</glyph>
<glyph name="W" format="2">
  <advance width="646"/>
  <unicode hex="0057"/>
  <anchor x="324.0" y="0" name="below"/>
  <anchor x="324.0" y="680.0" name="above"/>
  <outline>
    <contour>
      <point x="197" y="-7" type="line"/>
      <point x="90" y="65" type="line" smooth="yes"/>
      <point x="83" y="70"/>
      <point x="99" y="82"/>
      <point x="101" y="75" type="curve" smooth="yes"/>
      <point x="128" y="3" type="line"/>
      <point x="114" y="-3" type="line"/>
      <point x="87" y="69" type="line" smooth="yes"/>
      <point x="84" y="76"/>
      <point x="92" y="83"/>
      <point x="98" y="79" type="curve" smooth="yes"/>
      <point x="205" y="7" type="line"/>
    </contour>
    <contour>
      <point x="-31" y="682" type="line"/>
      <point x="-18" y="620" type="line" smooth="yes"/>
      <point x="-17" y="615"/>
      <point x="-34" y="623"/>
      <point x="-29" y="625" type="curve" smooth="yes"/>
      <point x="113" y="687" type="line"/>
      <point x="119" y="673" type="line"/>
      <point x="-23" y="611" type="line" smooth="yes"/>
      <point x="-27" y="609"/>
      <point x="-33" y="611"/>
      <point x="-34" y="616" type="curve" smooth="yes"/>
      <point x="-47" y="678" type="line"/>
    </contour>
    <contour>
      <point x="436" y="-7" type="line"/>
      <point x="325" y="65" type="line" smooth="yes"/>
      <point x="318" y="70"/>
      <point x="333" y="82"/>
      <point x="336" y="75" type="curve" smooth="yes"/>
      <point x="366" y="3" type="line"/>
      <point x="352" y="-3" type="line"/>
      <point x="322" y="69" type="line" smooth="yes"/>
      <point x="319" y="76"/>
      <point x="327" y="83"/>
      <point x="333" y="79" type="curve" smooth="yes"/>
      <point x="444" y="7" type="line"/>
    </contour>
    <contour>
      <point x="243" y="678" type="line"/>
      <point x="221" y="606" type="line" smooth="yes"/>
      <point x="219" y="599"/>
      <point x="203" y="611"/>
      <point x="209" y="615" type="curve" smooth="yes"/>
      <point x="333" y="687" type="line"/>
      <point x="341" y="673" type="line"/>
      <point x="217" y="601" type="line" smooth="yes"/>
      <point x="211" y="597"/>
      <point x="203" y="603"/>
      <point x="205" y="610" type="curve" smooth="yes"/>
      <point x="227" y="682" type="line"/>
    </contour>
    <contour>
      <point x="462" y="679" type="line"/>
      <point x="458" y="617" type="line" smooth="yes"/>
      <point x="458" y="612"/>
      <point x="441" y="623"/>
      <point x="447" y="625" type="curve" smooth="yes"/>
      <point x="597" y="687" type="line"/>
      <point x="603" y="673" type="line"/>
      <point x="453" y="611" type="line" smooth="yes"/>
      <point x="448" y="608"/>
      <point x="442" y="613"/>
      <point x="442" y="619" type="curve" smooth="yes"/>
      <point x="446" y="681" type="line"/>
    </contour>
    <contour>
      <point x="458" y="616" type="line"/>
      <point x="337" y="70" type="line" smooth="yes"/>
      <point x="335" y="62"/>
      <point x="323" y="62"/>
      <point x="321" y="70" type="curve" smooth="yes"/>
      <point x="205" y="606" type="line" smooth="yes"/>
      <point x="203" y="615"/>
      <point x="223" y="615"/>
      <point x="221" y="606" type="curve" smooth="yes"/>
      <point x="102" y="70" type="line" smooth="yes"/>
      <point x="100" y="62"/>
      <point x="88" y="62"/>
      <point x="86" y="70" type="curve" smooth="yes"/>
      <point x="-34" y="616" type="line"/>
      <point x="-18" y="620" type="line"/>
      <point x="102" y="74" type="line" smooth="yes"/>
      <point x="104" y="65"/>
      <point x="84" y="65"/>
      <point x="86" y="74" type="curve" smooth="yes"/>
      <point x="205" y="610" type="line" smooth="yes"/>
      <point x="207" y="618"/>
      <point x="219" y="618"/>
      <point x="221" y="610" type="curve" smooth="yes"/>
      <point x="337" y="74" type="line" smooth="yes"/>
      <point x="339" y="65"/>
      <point x="319" y="65"/>
      <point x="321" y="74" type="curve" smooth="yes"/>
      <point x="442" y="620" type="line"/>
    </contour>
    <contour>
      <point x="177" y="283" type="line"/>
      <point x="102" y="69" type="line"/>
      <point x="86" y="75" type="line"/>
      <point x="161" y="289" type="line"/>
    </contour>
    <contour>
      <point x="409" y="285" type="line"/>
      <point x="337" y="69" type="line"/>
      <point x="321" y="75" type="line"/>
      <point x="393" y="291" type="line"/>
    </contour>
    <contour>
      <point x="221" y="610" type="line"/>
      <point x="289" y="392" type="line"/>
      <point x="273" y="388" type="line"/>
      <point x="205" y="606" type="line"/>
    </contour>
  </outline>
</glyph>
<glyph name="Z" format="2">
  <advance width="416"/>
  <unicode hex="005A"/>
  <outline>
    <contour>
      <point x="-30" y="619" type="line"/>
      <point x="16" y="624"/>
      <point x="76" y="625"/>
      <point x="124" y="625" type="curve"/>
      <point x="124" y="625"/>
      <point x="124" y="625"/>
      <point x="124" y="625" type="curve"/>
      <point x="201" y="625" type="line" smooth="yes"/>
      <point x="207" y="625"/>
      <point x="210" y="619"/>
      <point x="208" y="614" type="curve" smooth="yes"/>
      <point x="-4" y="60" type="line" smooth="yes"/>
      <point x="-6" y="55"/>
      <point x="-17" y="71"/>
      <point x="-11" y="71" type="curve" smooth="yes"/>
      <point x="60" y="71" type="line"/>
      <point x="60" y="71"/>
      <point x="60" y="71"/>
      <point x="60" y="71" type="curve"/>
      <point x="108" y="71"/>
      <point x="162" y="72"/>
      <point x="210" y="78" type="curve"/>
      <point x="212" y="62" type="line"/>
      <point x="164" y="56"/>
      <point x="108" y="55"/>
      <point x="60" y="55" type="curve"/>
      <point x="60" y="55"/>
      <point x="60" y="55"/>
      <point x="60" y="55" type="curve"/>
      <point x="-11" y="55" type="line" smooth="yes"/>
      <point x="-17" y="55"/>
      <point x="-20" y="61"/>
      <point x="-18" y="66" type="curve" smooth="yes"/>
      <point x="194" y="620" type="line" smooth="yes"/>
      <point x="196" y="625"/>
      <point x="207" y="609"/>
      <point x="201" y="609" type="curve" smooth="yes"/>
      <point x="124" y="609" type="line"/>
      <point x="124" y="609"/>
      <point x="124" y="609"/>
      <point x="124" y="609" type="curve"/>
      <point x="76" y="609"/>
      <point x="18" y="608"/>
      <point x="-28" y="603" type="curve"/>
    </contour>
    <contour>
      <point x="-10" y="522" type="line"/>
      <point x="-37" y="609" type="line" smooth="yes"/>
      <point x="-37" y="610"/>
      <point x="-37" y="612"/>
      <point x="-36" y="614" type="curve" smooth="yes"/>
      <point x="-9" y="683" type="line"/>
      <point x="5" y="677" type="line"/>
      <point x="-22" y="608" type="line" smooth="yes"/>
      <point x="-22" y="606"/>
      <point x="-22" y="615"/>
      <point x="-21" y="613" type="curve" smooth="yes"/>
      <point x="6" y="526" type="line"/>
    </contour>
    <contour>
      <point x="345" y="160" type="line"/>
      <point x="216" y="64" type="line" smooth="yes"/>
      <point x="211" y="60"/>
      <point x="210" y="80"/>
      <point x="215" y="77" type="curve" smooth="yes"/>
      <point x="329" y="7" type="line"/>
      <point x="321" y="-7" type="line"/>
      <point x="207" y="63" type="line" smooth="yes"/>
      <point x="202" y="66"/>
      <point x="202" y="73"/>
      <point x="206" y="76" type="curve" smooth="yes"/>
      <point x="335" y="172" type="line"/>
    </contour>
    <contour>
      <point x="-29" y="1" type="line"/>
      <point x="-19" y="64" type="line" smooth="yes"/>
      <point x="-18" y="67"/>
      <point x="-17" y="69"/>
      <point x="-14" y="70" type="curve" smooth="yes"/>
      <point x="138" y="132" type="line"/>
      <point x="144" y="118" type="line"/>
      <point x="-8" y="56" type="line" smooth="yes"/>
      <point x="-11" y="55"/>
      <point x="-3" y="65"/>
      <point x="-3" y="62" type="curve" smooth="yes"/>
      <point x="-13" y="-1" type="line"/>
    </contour>
    <contour>
      <point x="355" y="673" type="line"/>
      <point x="204" y="610" type="line" smooth="yes"/>
      <point x="202" y="609"/>
      <point x="209" y="618"/>
      <point x="209" y="616" type="curve" smooth="yes"/>
      <point x="198" y="553" type="line"/>
      <point x="182" y="555" type="line"/>
      <point x="193" y="618" type="line" smooth="yes"/>
      <point x="194" y="621"/>
      <point x="195" y="623"/>
      <point x="198" y="624" type="curve" smooth="yes"/>
      <point x="349" y="687" type="line"/>
    </contour>
  </outline>
</glyph>
<glyph name="bracketleft" format="2">
  <advance width="323"/>
  <unicode hex="005B"/>
  <outline>
    <contour>
      <point x="266" y="-142" type="line"/>
      <point x="183" y="-92"/>
      <point x="91" y="-59"/>
      <point x="16" y="-53" type="curve" smooth="yes"/>
      <point x="12" y="-53"/>
      <point x="9" y="-49"/>
      <point x="9" y="-45" type="curve" smooth="yes"/>
      <point x="9" y="725" type="line" smooth="yes"/>
      <point x="9" y="729"/>
      <point x="12" y="733"/>
      <point x="16" y="733" type="curve" smooth="yes"/>
      <point x="92" y="739"/>
      <point x="184" y="772"/>
      <point x="266" y="822" type="curve"/>
      <point x="274" y="808" type="line"/>
      <point x="190" y="756"/>
      <point x="96" y="723"/>
      <point x="18" y="717" type="curve" smooth="yes"/>
      <point x="13" y="717"/>
      <point x="25" y="729"/>
      <point x="25" y="725" type="curve" smooth="yes"/>
      <point x="25" y="-45" type="line" smooth="yes"/>
      <point x="25" y="-49"/>
      <point x="13" y="-37"/>
      <point x="18" y="-37" type="curve" smooth="yes"/>
      <point x="95" y="-43"/>
      <point x="189" y="-76"/>
      <point x="274" y="-128" type="curve"/>
    </contour>
    <contour>
      <point x="26" y="795" type="line"/>
      <point x="25" y="725" type="line" smooth="yes"/>
      <point x="25" y="722"/>
      <point x="18" y="734"/>
      <point x="21" y="732" type="curve" smooth="yes"/>
      <point x="145" y="670" type="line"/>
      <point x="137" y="656" type="line"/>
      <point x="13" y="718" type="line" smooth="yes"/>
      <point x="11" y="719"/>
      <point x="9" y="722"/>
      <point x="9" y="725" type="curve" smooth="yes"/>
      <point x="10" y="795" type="line"/>
    </contour>
    <contour>
      <point x="145" y="10" type="line"/>
      <point x="21" y="-52" type="line" smooth="yes"/>
      <point x="18" y="-54"/>
      <point x="25" y="-42"/>
      <point x="25" y="-45" type="curve" smooth="yes"/>
      <point x="26" y="-115" type="line"/>
      <point x="10" y="-115" type="line"/>
      <point x="9" y="-45" type="line" smooth="yes"/>
      <point x="9" y="-42"/>
      <point x="11" y="-39"/>
      <point x="13" y="-38" type="curve" smooth="yes"/>
      <point x="137" y="24" type="line"/>
    </contour>
  </outline>
</glyph>
<glyph name="bracketright" format="2">
  <advance width="323"/>
  <unicode hex="005D"/>
  <outline>
    <contour>
      <point x="-24" y="817" type="line"/>
      <point x="-20" y="769"/>
      <point x="18" y="740"/>
      <point x="81" y="734" type="curve" smooth="yes"/>
      <point x="85" y="734"/>
      <point x="88" y="730"/>
      <point x="88" y="726" type="curve" smooth="yes"/>
      <point x="88" y="-44" type="line" smooth="yes"/>
      <point x="88" y="-48"/>
      <point x="85" y="-52"/>
      <point x="81" y="-52" type="curve" smooth="yes"/>
      <point x="17" y="-58"/>
      <point x="-20" y="-87"/>
      <point x="-24" y="-135" type="curve"/>
      <point x="-40" y="-133" type="line"/>
      <point x="-36" y="-79"/>
      <point x="7" y="-42"/>
      <point x="79" y="-36" type="curve" smooth="yes"/>
      <point x="83" y="-36"/>
      <point x="72" y="-48"/>
      <point x="72" y="-44" type="curve" smooth="yes"/>
      <point x="72" y="726" type="line" smooth="yes"/>
      <point x="72" y="730"/>
      <point x="83" y="718"/>
      <point x="79" y="718" type="curve" smooth="yes"/>
      <point x="8" y="724"/>
      <point x="-36" y="761"/>
      <point x="-40" y="815" type="curve"/>
    </contour>
    <contour>
      <point x="217" y="-121" type="line"/>
      <point x="76" y="-51" type="line" smooth="yes"/>
      <point x="73" y="-49"/>
      <point x="71" y="-45"/>
      <point x="72" y="-42" type="curve" smooth="yes"/>
      <point x="90" y="20" type="line"/>
      <point x="106" y="16" type="line"/>
      <point x="88" y="-46" type="line" smooth="yes"/>
      <point x="87" y="-50"/>
      <point x="80" y="-35"/>
      <point x="84" y="-37" type="curve" smooth="yes"/>
      <point x="225" y="-107" type="line"/>
    </contour>
    <contour>
      <point x="90" y="662" type="line"/>
      <point x="72" y="724" type="line" smooth="yes"/>
      <point x="71" y="727"/>
      <point x="73" y="731"/>
      <point x="76" y="733" type="curve" smooth="yes"/>
      <point x="217" y="803" type="line"/>
      <point x="225" y="789" type="line"/>
      <point x="84" y="719" type="line" smooth="yes"/>
      <point x="80" y="717"/>
      <point x="87" y="732"/>
      <point x="88" y="728" type="curve" smooth="yes"/>
      <point x="106" y="666" type="line"/>
    </contour>
  </outline>
</glyph>
<glyph name="asciicircum" format="2">
  <advance width="396"/>
  <unicode hex="005E"/>
  <outline>
    <contour>
      <point x="-20" y="328" type="line"/>
      <point x="77" y="571" type="line" smooth="yes"/>
      <point x="79" y="578"/>
      <point x="89" y="578"/>
      <point x="91" y="571" type="curve" smooth="yes"/>
      <point x="189" y="328" type="line"/>
      <point x="175" y="322" type="line"/>
      <point x="77" y="565" type="line" smooth="yes"/>
      <point x="74" y="572"/>
      <point x="94" y="572"/>
      <point x="91" y="565" type="curve" smooth="yes"/>
      <point x="-6" y="322" type="line"/>
    </contour>
    <contour>
      <point x="80" y="256" type="line"/>
      <point x="-17" y="318" type="line" smooth="yes"/>
      <point x="-22" y="321"/>
      <point x="-4" y="330"/>
      <point x="-5" y="324" type="curve" smooth="yes"/>
      <point x="-11" y="262" type="line"/>
      <point x="-27" y="264" type="line"/>
      <point x="-21" y="326" type="line" smooth="yes"/>
      <point x="-20" y="332"/>
      <point x="-14" y="335"/>
      <point x="-9" y="332" type="curve" smooth="yes"/>
      <point x="88" y="270" type="line"/>
    </contour>
    <contour>
      <point x="326" y="256" type="line"/>
      <point x="179" y="318" type="line" smooth="yes"/>
      <point x="171" y="321"/>
      <point x="184" y="336"/>
      <point x="189" y="330" type="curve" smooth="yes"/>
      <point x="233" y="268" type="line"/>
      <point x="219" y="258" type="line"/>
      <point x="175" y="320" type="line" smooth="yes"/>
      <point x="171" y="327"/>
      <point x="178" y="336"/>
      <point x="185" y="332" type="curve" smooth="yes"/>
      <point x="332" y="270" type="line"/>
    </contour>
    <contour>
      <point x="162" y="690" type="line"/>
      <point x="91" y="564" type="line" smooth="yes"/>
      <point x="90" y="562"/>
      <point x="90" y="574"/>
      <point x="91" y="572" type="curve" smooth="yes"/>
      <point x="162" y="446" type="line"/>
      <point x="148" y="438" type="line"/>
      <point x="77" y="564" type="line" smooth="yes"/>
      <point x="76" y="567"/>
      <point x="76" y="569"/>
      <point x="77" y="572" type="curve" smooth="yes"/>
      <point x="148" y="698" type="line"/>
    </contour>
  </outline>
</glyph>
<glyph name="underscore" format="2">
  <advance width="435"/>
  <unicode hex="005F"/>
  <outline>
    <contour>
      <point x="271" y="-71" type="line"/>
      <point x="-62" y="-71" type="line"/>
      <point x="-62" y="-55" type="line"/>
      <point x="271" y="-55" type="line"/>
    </contour>
    <contour>
      <point x="-42" y="-128" type="line"/>
      <point x="-69" y="-66" type="line" smooth="yes"/>
      <point x="-70" y="-64"/>
      <point x="-70" y="-62"/>
      <point x="-69" y="-60" type="curve" smooth="yes"/>
      <point x="-42" y="3" type="line"/>
      <point x="-28" y="-3" type="line"/>
      <point x="-55" y="-66" type="line" smooth="yes"/>
      <point x="-56" y="-68"/>
      <point x="-56" y="-58"/>
      <point x="-55" y="-60" type="curve" smooth="yes"/>
      <point x="-28" y="-122" type="line"/>
    </contour>
    <contour>
      <point x="389" y="-7" type="line"/>
      <point x="275" y="-70" type="line" smooth="yes"/>
      <point x="269" y="-73"/>
      <point x="269" y="-53"/>
      <point x="275" y="-56" type="curve" smooth="yes"/>
      <point x="389" y="-118" type="line"/>
      <point x="381" y="-132" type="line"/>
      <point x="267" y="-70" type="line" smooth="yes"/>
      <point x="262" y="-67"/>
      <point x="262" y="-59"/>
      <point x="267" y="-56" type="curve" smooth="yes"/>
      <point x="381" y="7" type="line"/>
    </contour>
  </outline>
</glyph>
<glyph name="c" format="2">
  <advance width="383"/>
  <unicode hex="0063"/>
  <outline>
    <contour>
      <point x="183" y="502" type="line"/>
      <point x="162" y="514"/>
      <point x="139" y="523"/>
      <point x="115" y="523" type="curve"/>
      <point x="115" y="523"/>
      <point x="115" y="523"/>
      <point x="115" y="523" type="curve"/>
      <point x="25" y="523"/>
      <point x="-33" y="428"/>
      <point x="-33" y="289" type="curve"/>
      <point x="-33" y="289"/>
      <point x="-33" y="289"/>
      <point x="-33" y="289" type="curve"/>
      <point x="-33" y="150"/>
      <point x="25" y="58"/>
      <point x="115" y="58" type="curve"/>
      <point x="115" y="58"/>
      <point x="115" y="58"/>
      <point x="115" y="58" type="curve"/>
      <point x="140" y="58"/>
      <point x="162" y="66"/>
      <point x="183" y="77" type="curve"/>
      <point x="191" y="63" type="line"/>
      <point x="168" y="50"/>
      <point x="142" y="42"/>
      <point x="115" y="42" type="curve"/>
      <point x="115" y="42"/>
      <point x="115" y="42"/>
      <point x="115" y="42" type="curve"/>
      <point x="17" y="42"/>
      <point x="-49" y="138"/>
      <point x="-49" y="289" type="curve"/>
      <point x="-49" y="289"/>
      <point x="-49" y="289"/>
      <point x="-49" y="289" type="curve"/>
      <point x="-49" y="440"/>
      <point x="17" y="539"/>
      <point x="115" y="539" type="curve"/>
      <point x="115" y="539"/>
      <point x="115" y="539"/>
      <point x="115" y="539" type="curve"/>
      <point x="141" y="539"/>
      <point x="168" y="530"/>
      <point x="191" y="516" type="curve"/>
    </contour>
    <contour>
      <point x="304" y="551" type="line"/>
      <point x="190" y="502" type="line" smooth="yes"/>
      <point x="185" y="499"/>
      <point x="189" y="519"/>
      <point x="193" y="515" type="curve" smooth="yes"/>
      <point x="307" y="402" type="line"/>
      <point x="295" y="390" type="line"/>
      <point x="181" y="503" type="line" smooth="yes"/>
      <point x="177" y="507"/>
      <point x="179" y="514"/>
      <point x="184" y="516" type="curve" smooth="yes"/>
      <point x="298" y="565" type="line"/>
    </contour>
    <contour>
      <point x="307" y="178" type="line"/>
      <point x="193" y="64" type="line" smooth="yes"/>
      <point x="189" y="60"/>
      <point x="185" y="80"/>
      <point x="190" y="77" type="curve" smooth="yes"/>
      <point x="304" y="29" type="line"/>
      <point x="298" y="15" type="line"/>
      <point x="184" y="63" type="line" smooth="yes"/>
      <point x="179" y="65"/>
      <point x="177" y="72"/>
      <point x="181" y="76" type="curve" smooth="yes"/>
      <point x="295" y="190" type="line"/>
    </contour>
  </outline>
</glyph>
<glyph name="f" format="2">
  <advance width="327"/>
  <unicode hex="0066"/>
  <outline>
    <contour>
      <point x="-18" y="62" type="line"/>
      <point x="-18" y="282" type="line"/>
      <point x="-18" y="282"/>
      <point x="-18" y="282"/>
      <point x="-18" y="282" type="curve"/>
      <point x="-18" y="520" type="line" smooth="yes"/>
      <point x="-18" y="524"/>
      <point x="-15" y="528"/>
      <point x="-10" y="528" type="curve" smooth="yes"/>
      <point x="42" y="529"/>
      <point x="103" y="526"/>
      <point x="143" y="522" type="curve"/>
      <point x="141" y="506" type="line"/>
      <point x="101" y="510"/>
      <point x="42" y="513"/>
      <point x="-10" y="512" type="curve" smooth="yes"/>
      <point x="-14" y="512"/>
      <point x="-2" y="524"/>
      <point x="-2" y="520" type="curve" smooth="yes"/>
      <point x="-2" y="282" type="line"/>
      <point x="-2" y="282"/>
      <point x="-2" y="282"/>
      <point x="-2" y="282" type="curve"/>
      <point x="-2" y="62" type="line"/>
    </contour>
    <contour>
      <point x="123" y="274" type="line"/>
      <point x="-10" y="274" type="line"/>
      <point x="-10" y="290" type="line"/>
      <point x="123" y="290" type="line"/>
    </contour>
    <contour>
      <point x="260" y="573" type="line"/>
      <point x="146" y="507" type="line" smooth="yes"/>
      <point x="141" y="504"/>
      <point x="142" y="524"/>
      <point x="147" y="520" type="curve" smooth="yes"/>
      <point x="261" y="436" type="line"/>
      <point x="251" y="424" type="line"/>
      <point x="137" y="508" type="line" smooth="yes"/>
      <point x="133" y="511"/>
      <point x="133" y="518"/>
      <point x="138" y="521" type="curve" smooth="yes"/>
      <point x="252" y="587" type="line"/>
    </contour>
    <contour>
      <point x="242" y="353" type="line"/>
      <point x="128" y="275" type="line" smooth="yes"/>
      <point x="123" y="272"/>
      <point x="123" y="292"/>
      <point x="128" y="289" type="curve" smooth="yes"/>
      <point x="242" y="210" type="line"/>
      <point x="232" y="196" type="line"/>
      <point x="118" y="275" type="line" smooth="yes"/>
      <point x="114" y="279"/>
      <point x="114" y="285"/>
      <point x="118" y="289" type="curve" smooth="yes"/>
      <point x="232" y="367" type="line"/>
    </contour>
    <contour>
      <point x="1" y="580" type="line"/>
      <point x="-2" y="520" type="line" smooth="yes"/>
      <point x="-2" y="516"/>
      <point x="-9" y="529"/>
      <point x="-6" y="527" type="curve" smooth="yes"/>
      <point x="115" y="468" type="line"/>
      <point x="107" y="454" type="line"/>
      <point x="-14" y="513" type="line" smooth="yes"/>
      <point x="-16" y="514"/>
      <point x="-18" y="517"/>
      <point x="-18" y="520" type="curve" smooth="yes"/>
      <point x="-15" y="580" type="line"/>
    </contour>
    <contour>
      <point x="112" y="331" type="line"/>
      <point x="-7" y="275" type="line" smooth="yes"/>
      <point x="-13" y="272"/>
      <point x="-13" y="292"/>
      <point x="-6" y="289" type="curve" smooth="yes"/>
      <point x="113" y="231" type="line"/>
      <point x="105" y="217" type="line"/>
      <point x="-14" y="275" type="line" smooth="yes"/>
      <point x="-20" y="278"/>
      <point x="-19" y="286"/>
      <point x="-13" y="289" type="curve" smooth="yes"/>
      <point x="106" y="345" type="line"/>
    </contour>
    <contour>
      <point x="125" y="-7" type="line"/>
      <point x="-13" y="55" type="line" smooth="yes"/>
      <point x="-19" y="57"/>
      <point x="-2" y="68"/>
      <point x="-2" y="62" type="curve" smooth="yes"/>
      <point x="1" y="0" type="line"/>
      <point x="-15" y="0" type="line"/>
      <point x="-18" y="62" type="line" smooth="yes"/>
      <point x="-18" y="68"/>
      <point x="-12" y="72"/>
      <point x="-7" y="69" type="curve" smooth="yes"/>
      <point x="131" y="7" type="line"/>
    </contour>
  </outline>
</glyph>
<glyph name="g" format="2">
  <advance width="418"/>
  <unicode hex="0067"/>
  <anchor x="230.0" y="-2" name="below"/>
  <anchor x="230.0" y="581.0" name="above"/>
  <outline>
    <contour>
      <point x="204" y="497" type="line"/>
      <point x="178" y="513"/>
      <point x="152" y="524"/>
      <point x="123" y="524" type="curve"/>
      <point x="123" y="524"/>
      <point x="123" y="524"/>
      <point x="123" y="524" type="curve"/>
      <point x="29" y="524"/>
      <point x="-33" y="427"/>
      <point x="-33" y="288" type="curve"/>
      <point x="-33" y="288"/>
      <point x="-33" y="288"/>
      <point x="-33" y="288" type="curve"/>
      <point x="-33" y="151"/>
      <point x="26" y="54"/>
      <point x="122" y="54" type="curve"/>
      <point x="122" y="54"/>
      <point x="122" y="54"/>
      <point x="122" y="54" type="curve"/>
      <point x="153" y="54"/>
      <point x="183" y="68"/>
      <point x="212" y="89" type="curve" smooth="yes"/>
      <point x="214" y="90"/>
      <point x="209" y="79"/>
      <point x="209" y="82" type="curve" smooth="yes"/>
      <point x="209" y="159"/>
      <point x="208" y="206"/>
      <point x="207" y="238" type="curve"/>
      <point x="223" y="238" type="line"/>
      <point x="224" y="206"/>
      <point x="225" y="159"/>
      <point x="225" y="82" type="curve" smooth="yes"/>
      <point x="225" y="79"/>
      <point x="224" y="77"/>
      <point x="222" y="75" type="curve" smooth="yes"/>
      <point x="189" y="52"/>
      <point x="157" y="38"/>
      <point x="122" y="38" type="curve"/>
      <point x="122" y="38"/>
      <point x="122" y="38"/>
      <point x="122" y="38" type="curve"/>
      <point x="18" y="38"/>
      <point x="-49" y="141"/>
      <point x="-49" y="288" type="curve"/>
      <point x="-49" y="288"/>
      <point x="-49" y="288"/>
      <point x="-49" y="288" type="curve"/>
      <point x="-49" y="438"/>
      <point x="21" y="540"/>
      <point x="123" y="540" type="curve"/>
      <point x="123" y="540"/>
      <point x="123" y="540"/>
      <point x="123" y="540" type="curve"/>
      <point x="156" y="540"/>
      <point x="184" y="529"/>
      <point x="212" y="511" type="curve"/>
    </contour>
    <contour>
      <point x="326" y="546" type="line"/>
      <point x="211" y="497" type="line" smooth="yes"/>
      <point x="206" y="494"/>
      <point x="210" y="514"/>
      <point x="214" y="510" type="curve" smooth="yes"/>
      <point x="329" y="396" type="line"/>
      <point x="317" y="384" type="line"/>
      <point x="202" y="498" type="line" smooth="yes"/>
      <point x="198" y="502"/>
      <point x="200" y="509"/>
      <point x="205" y="511" type="curve" smooth="yes"/>
      <point x="320" y="560" type="line"/>
    </contour>
    <contour>
      <point x="229" y="299" type="line"/>
      <point x="223" y="237" type="line" smooth="yes"/>
      <point x="222" y="231"/>
      <point x="206" y="242"/>
      <point x="212" y="245" type="curve" smooth="yes"/>
      <point x="340" y="307" type="line"/>
      <point x="346" y="293" type="line"/>
      <point x="218" y="231" type="line" smooth="yes"/>
      <point x="213" y="228"/>
      <point x="206" y="233"/>
      <point x="207" y="239" type="curve" smooth="yes"/>
      <point x="213" y="301" type="line"/>
    </contour>
    <contour>
      <point x="249" y="115" type="line"/>
      <point x="224" y="78" type="line" smooth="yes"/>
      <point x="221" y="73"/>
      <point x="215" y="91"/>
      <point x="220" y="90" type="curve" smooth="yes"/>
      <point x="337" y="48" type="line"/>
      <point x="331" y="32" type="line"/>
      <point x="214" y="74" type="line" smooth="yes"/>
      <point x="209" y="76"/>
      <point x="207" y="82"/>
      <point x="210" y="86" type="curve" smooth="yes"/>
      <point x="235" y="123" type="line"/>
    </contour>
  </outline>
</glyph>
<glyph name="j" format="2">
  <advance width="306"/>
  <unicode hex="006A"/>
  <outline>
    <contour>
      <point x="-50" y="69" type="line"/>
      <point x="-36" y="62"/>
      <point x="-21" y="59"/>
      <point x="-7" y="59" type="curve" smooth="yes"/>
      <point x="-7" y="59"/>
      <point x="-7" y="59"/>
      <point x="-7" y="59" type="curve" smooth="yes"/>
      <point x="57" y="60"/>
      <point x="91" y="120"/>
      <point x="91" y="210" type="curve"/>
      <point x="91" y="210"/>
      <point x="91" y="210"/>
      <point x="91" y="210" type="curve"/>
      <point x="91" y="518" type="line"/>
      <point x="107" y="518" type="line"/>
      <point x="107" y="210" type="line"/>
      <point x="107" y="210"/>
      <point x="107" y="210"/>
      <point x="107" y="210" type="curve"/>
      <point x="107" y="108"/>
      <point x="65" y="44"/>
      <point x="-7" y="43" type="curve" smooth="yes"/>
      <point x="-7" y="43"/>
      <point x="-7" y="43"/>
      <point x="-7" y="43" type="curve" smooth="yes"/>
      <point x="-23" y="43"/>
      <point x="-40" y="46"/>
      <point x="-58" y="55" type="curve"/>
    </contour>
    <contour>
      <point x="110" y="580" type="line"/>
      <point x="107" y="518" type="line" smooth="yes"/>
      <point x="107" y="512"/>
      <point x="90" y="523"/>
      <point x="96" y="525" type="curve" smooth="yes"/>
      <point x="234" y="587" type="line"/>
      <point x="240" y="573" type="line"/>
      <point x="102" y="511" type="line" smooth="yes"/>
      <point x="97" y="508"/>
      <point x="91" y="512"/>
      <point x="91" y="518" type="curve" smooth="yes"/>
      <point x="94" y="580" type="line"/>
    </contour>
    <contour>
      <point x="-34" y="6" type="line"/>
      <point x="-61" y="58" type="line" smooth="yes"/>
      <point x="-62" y="60"/>
      <point x="-62" y="62"/>
      <point x="-62" y="64" type="curve" smooth="yes"/>
      <point x="-35" y="177" type="line"/>
      <point x="-19" y="173" type="line"/>
      <point x="-46" y="60" type="line" smooth="yes"/>
      <point x="-47" y="58"/>
      <point x="-48" y="67"/>
      <point x="-47" y="66" type="curve" smooth="yes"/>
      <point x="-20" y="14" type="line"/>
    </contour>
  </outline>
</glyph>
<glyph name="k" format="2">
  <advance width="432"/>
  <unicode hex="006B"/>
  <outline>
    <contour>
      <point x="6" y="518" type="line"/>
      <point x="6" y="300" type="line"/>
      <point x="6" y="300"/>
      <point x="6" y="300"/>
      <point x="6" y="300" type="curve"/>
      <point x="6" y="62" type="line"/>
      <point x="-10" y="62" type="line"/>
      <point x="-10" y="300" type="line"/>
      <point x="-10" y="300"/>
      <point x="-10" y="300"/>
      <point x="-10" y="300" type="curve"/>
      <point x="-10" y="518" type="line"/>
    </contour>
    <contour>
      <point x="205" y="58" type="line"/>
      <point x="101" y="251" type="line" smooth="yes"/>
      <point x="101" y="251"/>
      <point x="101" y="251"/>
      <point x="101" y="251" type="curve" smooth="yes"/>
      <point x="78" y="292"/>
      <point x="68" y="295"/>
      <point x="-2" y="292" type="curve" smooth="yes"/>
      <point x="-12" y="292"/>
      <point x="-13" y="308"/>
      <point x="-2" y="308" type="curve" smooth="yes"/>
      <point x="68" y="311"/>
      <point x="75" y="315"/>
      <point x="103" y="361" type="curve" smooth="yes"/>
      <point x="103" y="361"/>
      <point x="103" y="361"/>
      <point x="103" y="361" type="curve" smooth="yes"/>
      <point x="202" y="522" type="line"/>
      <point x="216" y="514" type="line"/>
      <point x="117" y="353" type="line" smooth="yes"/>
      <point x="117" y="353"/>
      <point x="117" y="353"/>
      <point x="117" y="353" type="curve" smooth="yes"/>
      <point x="85" y="303"/>
      <point x="76" y="295"/>
      <point x="-2" y="292" type="curve" smooth="yes"/>
      <point x="-12" y="292"/>
      <point x="-13" y="308"/>
      <point x="-2" y="308" type="curve" smooth="yes"/>
      <point x="76" y="311"/>
      <point x="90" y="304"/>
      <point x="115" y="259" type="curve" smooth="yes"/>
      <point x="115" y="259"/>
      <point x="115" y="259"/>
      <point x="115" y="259" type="curve" smooth="yes"/>
      <point x="219" y="66" type="line"/>
    </contour>
    <contour>
      <point x="121" y="338" type="line"/>
      <point x="1" y="293" type="line" smooth="yes"/>
      <point x="-6" y="290"/>
      <point x="-6" y="310"/>
      <point x="1" y="308" type="curve" smooth="yes"/>
      <point x="121" y="266" type="line"/>
      <point x="115" y="250" type="line"/>
      <point x="-5" y="292" type="line" smooth="yes"/>
      <point x="-12" y="295"/>
      <point x="-12" y="305"/>
      <point x="-5" y="307" type="curve" smooth="yes"/>
      <point x="115" y="352" type="line"/>
    </contour>
    <contour>
      <point x="134" y="-7" type="line"/>
      <point x="-5" y="55" type="line" smooth="yes"/>
      <point x="-11" y="57"/>
      <point x="6" y="69"/>
      <point x="6" y="63" type="curve" smooth="yes"/>
      <point x="10" y="1" type="line"/>
      <point x="-6" y="-1" type="line"/>
      <point x="-10" y="61" type="line" smooth="yes"/>
      <point x="-10" y="67"/>
      <point x="-4" y="72"/>
      <point x="1" y="69" type="curve" smooth="yes"/>
      <point x="140" y="7" type="line"/>
    </contour>
    <contour>
      <point x="10" y="579" type="line"/>
      <point x="6" y="517" type="line" smooth="yes"/>
      <point x="6" y="511"/>
      <point x="-11" y="523"/>
      <point x="-5" y="525" type="curve" smooth="yes"/>
      <point x="134" y="587" type="line"/>
      <point x="140" y="573" type="line"/>
      <point x="1" y="511" type="line" smooth="yes"/>
      <point x="-4" y="508"/>
      <point x="-10" y="513"/>
      <point x="-10" y="519" type="curve" smooth="yes"/>
      <point x="-6" y="581" type="line"/>
    </contour>
    <contour>
      <point x="394" y="-8" type="line"/>
      <point x="209" y="54" type="line" smooth="yes"/>
      <point x="203" y="57"/>
      <point x="217" y="71"/>
      <point x="219" y="65" type="curve" smooth="yes"/>
      <point x="244" y="3" type="line"/>
      <point x="230" y="-3" type="line"/>
      <point x="205" y="59" type="line" smooth="yes"/>
      <point x="202" y="65"/>
      <point x="208" y="72"/>
      <point x="215" y="70" type="curve" smooth="yes"/>
      <point x="400" y="8" type="line"/>
    </contour>
    <contour>
      <point x="252" y="576" type="line"/>
      <point x="216" y="514" type="line" smooth="yes"/>
      <point x="212" y="508"/>
      <point x="199" y="523"/>
      <point x="206" y="526" type="curve" smooth="yes"/>
      <point x="388" y="588" type="line"/>
      <point x="394" y="572" type="line"/>
      <point x="212" y="510" type="line" smooth="yes"/>
      <point x="205" y="508"/>
      <point x="198" y="516"/>
      <point x="202" y="522" type="curve" smooth="yes"/>
      <point x="238" y="584" type="line"/>
    </contour>
    <contour>
      <point x="208" y="302" type="line"/>
      <point x="112" y="297"/>
      <point x="44" y="293"/>
      <point x="-2" y="292" type="curve"/>
      <point x="-2" y="308" type="line"/>
      <point x="44" y="309"/>
      <point x="112" y="313"/>
      <point x="208" y="318" type="curve"/>
    </contour>
  </outline>
</glyph>
<glyph name="l" format="2">
  <advance width="319"/>
  <unicode hex="006C"/>
  <anchor x="129.0" y="0" name="below"/>
  <anchor x="78.0" y="580.0" name="above"/>
  <anchor x="139.0" y="397" name="right"/>
  <outline>
    <contour>
      <point x="-2" y="518" type="line"/>
      <point x="-2" y="64" type="line"/>
      <point x="-2" y="60"/>
      <point x="-14" y="72"/>
      <point x="-10" y="72" type="curve" smooth="yes"/>
      <point x="59" y="70"/>
      <point x="107" y="72"/>
      <point x="136" y="76" type="curve"/>
      <point x="138" y="60" type="line"/>
      <point x="109" y="56"/>
      <point x="59" y="54"/>
      <point x="-10" y="56" type="curve" smooth="yes"/>
      <point x="-15" y="56"/>
      <point x="-18" y="60"/>
      <point x="-18" y="64" type="curve" smooth="yes"/>
      <point x="-18" y="518" type="line"/>
    </contour>
    <contour>
      <point x="1" y="580" type="line"/>
      <point x="-2" y="518" type="line" smooth="yes"/>
      <point x="-2" y="512"/>
      <point x="-19" y="523"/>
      <point x="-13" y="525" type="curve" smooth="yes"/>
      <point x="125" y="587" type="line"/>
      <point x="131" y="573" type="line"/>
      <point x="-7" y="511" type="line" smooth="yes"/>
      <point x="-12" y="508"/>
      <point x="-18" y="512"/>
      <point x="-18" y="518" type="curve" smooth="yes"/>
      <point x="-15" y="580" type="line"/>
    </contour>
    <contour>
      <point x="248" y="-7" type="line"/>
      <point x="133" y="61" type="line" smooth="yes"/>
      <point x="128" y="64"/>
      <point x="128" y="71"/>
      <point x="132" y="74" type="curve" smooth="yes"/>
      <point x="261" y="171" type="line"/>
      <point x="271" y="159" type="line"/>
      <point x="142" y="62" type="line" smooth="yes"/>
      <point x="137" y="58"/>
      <point x="136" y="78"/>
      <point x="141" y="75" type="curve" smooth="yes"/>
      <point x="256" y="7" type="line"/>
    </contour>
    <contour>
      <point x="-15" y="0" type="line"/>
      <point x="-18" y="64" type="line" smooth="yes"/>
      <point x="-18" y="67"/>
      <point x="-16" y="70"/>
      <point x="-14" y="71" type="curve" smooth="yes"/>
      <point x="107" y="133" type="line"/>
      <point x="115" y="119" type="line"/>
      <point x="-6" y="57" type="line" smooth="yes"/>
      <point x="-9" y="55"/>
      <point x="-2" y="68"/>
      <point x="-2" y="64" type="curve" smooth="yes"/>
      <point x="1" y="0" type="line"/>
    </contour>
  </outline>
</glyph>
<glyph name="m" format="2">
  <advance width="556"/>
  <unicode hex="006D"/>
  <anchor x="233.0" y="0" name="below"/>
  <anchor x="236.0" y="580.0" name="above"/>
  <outline>
    <contour>
      <point x="335" y="62" type="line"/>
      <point x="335" y="519" type="line" smooth="yes"/>
      <point x="335" y="523"/>
      <point x="347" y="511"/>
      <point x="343" y="511" type="curve" smooth="yes"/>
      <point x="281" y="511" type="line" smooth="yes"/>
      <point x="277" y="511"/>
      <point x="290" y="521"/>
      <point x="289" y="517" type="curve" smooth="yes"/>
      <point x="171" y="61" type="line" smooth="yes"/>
      <point x="169" y="53"/>
      <point x="157" y="53"/>
      <point x="155" y="61" type="curve" smooth="yes"/>
      <point x="42" y="517" type="line" smooth="yes"/>
      <point x="41" y="521"/>
      <point x="54" y="511"/>
      <point x="50" y="511" type="curve" smooth="yes"/>
      <point x="-15" y="511" type="line" smooth="yes"/>
      <point x="-19" y="511"/>
      <point x="-7" y="523"/>
      <point x="-7" y="519" type="curve"/>
      <point x="-7" y="62" type="line"/>
      <point x="-23" y="62" type="line"/>
      <point x="-23" y="519" type="line" smooth="yes"/>
      <point x="-23" y="523"/>
      <point x="-19" y="527"/>
      <point x="-15" y="527" type="curve" smooth="yes"/>
      <point x="50" y="527" type="line" smooth="yes"/>
      <point x="54" y="527"/>
      <point x="57" y="524"/>
      <point x="58" y="521" type="curve" smooth="yes"/>
      <point x="171" y="65" type="line" smooth="yes"/>
      <point x="173" y="57"/>
      <point x="153" y="57"/>
      <point x="155" y="65" type="curve" smooth="yes"/>
      <point x="273" y="521" type="line" smooth="yes"/>
      <point x="274" y="525"/>
      <point x="277" y="527"/>
      <point x="281" y="527" type="curve" smooth="yes"/>
      <point x="343" y="527" type="line" smooth="yes"/>
      <point x="347" y="527"/>
      <point x="351" y="523"/>
      <point x="351" y="519" type="curve" smooth="yes"/>
      <point x="351" y="62" type="line"/>
    </contour>
    <contour>
      <point x="115" y="-7" type="line"/>
      <point x="-18" y="55" type="line" smooth="yes"/>
      <point x="-24" y="57"/>
      <point x="-8" y="69"/>
      <point x="-7" y="63" type="curve" smooth="yes"/>
      <point x="1" y="1" type="line"/>
      <point x="-15" y="-1" type="line"/>
      <point x="-23" y="61" type="line" smooth="yes"/>
      <point x="-24" y="67"/>
      <point x="-17" y="72"/>
      <point x="-12" y="69" type="curve" smooth="yes"/>
      <point x="121" y="7" type="line"/>
    </contour>
    <contour>
      <point x="475" y="-7" type="line"/>
      <point x="340" y="55" type="line" smooth="yes"/>
      <point x="334" y="57"/>
      <point x="350" y="69"/>
      <point x="351" y="63" type="curve" smooth="yes"/>
      <point x="357" y="1" type="line"/>
      <point x="341" y="-1" type="line"/>
      <point x="335" y="61" type="line" smooth="yes"/>
      <point x="334" y="67"/>
      <point x="341" y="72"/>
      <point x="346" y="69" type="curve" smooth="yes"/>
      <point x="481" y="7" type="line"/>
    </contour>
    <contour>
      <point x="1" y="579" type="line"/>
      <point x="-7" y="518" type="line" smooth="yes"/>
      <point x="-7" y="515"/>
      <point x="-11" y="527"/>
      <point x="-10" y="525" type="curve" smooth="yes"/>
      <point x="105" y="418" type="line" smooth="yes"/>
      <point x="112" y="412"/>
      <point x="96" y="401"/>
      <point x="93" y="409" type="curve" smooth="yes"/>
      <point x="43" y="516" type="line" smooth="yes"/>
      <point x="41" y="519"/>
      <point x="43" y="524"/>
      <point x="46" y="526" type="curve" smooth="yes"/>
      <point x="163" y="587" type="line"/>
      <point x="171" y="573" type="line"/>
      <point x="54" y="512" type="line" smooth="yes"/>
      <point x="50" y="510"/>
      <point x="55" y="526"/>
      <point x="57" y="522" type="curve" smooth="yes"/>
      <point x="107" y="415" type="line" smooth="yes"/>
      <point x="111" y="407"/>
      <point x="101" y="400"/>
      <point x="95" y="406" type="curve" smooth="yes"/>
      <point x="-20" y="513" type="line" smooth="yes"/>
      <point x="-22" y="515"/>
      <point x="-23" y="517"/>
      <point x="-23" y="520" type="curve" smooth="yes"/>
      <point x="-15" y="581" type="line"/>
    </contour>
    <contour>
      <point x="318" y="576" type="line"/>
      <point x="288" y="515" type="line" smooth="yes"/>
      <point x="287" y="513"/>
      <point x="285" y="527"/>
      <point x="287" y="524" type="curve" smooth="yes"/>
      <point x="374" y="422" type="line" smooth="yes"/>
      <point x="380" y="416"/>
      <point x="362" y="407"/>
      <point x="360" y="415" type="curve" smooth="yes"/>
      <point x="335" y="517" type="line" smooth="yes"/>
      <point x="334" y="521"/>
      <point x="336" y="525"/>
      <point x="340" y="526" type="curve" smooth="yes"/>
      <point x="475" y="587" type="line"/>
      <point x="481" y="573" type="line"/>
      <point x="346" y="512" type="line" smooth="yes"/>
      <point x="343" y="510"/>
      <point x="350" y="525"/>
      <point x="351" y="521" type="curve" smooth="yes"/>
      <point x="376" y="419" type="line" smooth="yes"/>
      <point x="378" y="411"/>
      <point x="367" y="405"/>
      <point x="362" y="412" type="curve" smooth="yes"/>
      <point x="275" y="514" type="line" smooth="yes"/>
      <point x="273" y="516"/>
      <point x="272" y="520"/>
      <point x="274" y="523" type="curve" smooth="yes"/>
      <point x="304" y="584" type="line"/>
    </contour>
    <contour>
      <point x="194" y="-4" type="line"/>
      <point x="156" y="59" type="line" smooth="yes"/>
      <point x="152" y="66"/>
      <point x="160" y="74"/>
      <point x="167" y="70" type="curve" smooth="yes"/>
      <point x="265" y="7" type="line"/>
      <point x="257" y="-7" type="line"/>
      <point x="159" y="56" type="line" smooth="yes"/>
      <point x="152" y="61"/>
      <point x="165" y="74"/>
      <point x="170" y="67" type="curve" smooth="yes"/>
      <point x="208" y="4" type="line"/>
    </contour>
    <contour>
      <point x="156" y="66" type="line"/>
      <point x="230" y="233" type="line"/>
      <point x="244" y="227" type="line"/>
      <point x="170" y="60" type="line"/>
    </contour>
  </outline>
</glyph>
<glyph name="n" format="2">
  <advance width="445"/>
  <unicode hex="006E"/>
  <anchor x="180.0" y="0" name="below"/>
  <anchor x="180.0" y="580.0" name="above"/>
  <outline>
    <contour>
      <point x="-22" y="62" type="line"/>
      <point x="-22" y="519" type="line" smooth="yes"/>
      <point x="-22" y="527"/>
      <point x="-11" y="530"/>
      <point x="-7" y="523" type="curve" smooth="yes"/>
      <point x="239" y="64" type="line" smooth="yes"/>
      <point x="243" y="56"/>
      <point x="224" y="52"/>
      <point x="224" y="60" type="curve" smooth="yes"/>
      <point x="224" y="518" type="line"/>
      <point x="240" y="518" type="line"/>
      <point x="240" y="60" type="line" smooth="yes"/>
      <point x="240" y="52"/>
      <point x="229" y="49"/>
      <point x="225" y="56" type="curve" smooth="yes"/>
      <point x="-21" y="515" type="line" smooth="yes"/>
      <point x="-25" y="523"/>
      <point x="-6" y="527"/>
      <point x="-6" y="519" type="curve" smooth="yes"/>
      <point x="-6" y="62" type="line"/>
    </contour>
    <contour>
      <point x="118" y="-7" type="line"/>
      <point x="-17" y="55" type="line" smooth="yes"/>
      <point x="-23" y="57"/>
      <point x="-7" y="69"/>
      <point x="-6" y="63" type="curve" smooth="yes"/>
      <point x="1" y="1" type="line"/>
      <point x="-15" y="-1" type="line"/>
      <point x="-22" y="61" type="line" smooth="yes"/>
      <point x="-23" y="67"/>
      <point x="-16" y="72"/>
      <point x="-11" y="69" type="curve" smooth="yes"/>
      <point x="124" y="7" type="line"/>
    </contour>
    <contour>
      <point x="247" y="579" type="line"/>
      <point x="240" y="517" type="line" smooth="yes"/>
      <point x="239" y="511"/>
      <point x="223" y="523"/>
      <point x="229" y="525" type="curve" smooth="yes"/>
      <point x="364" y="587" type="line"/>
      <point x="370" y="573" type="line"/>
      <point x="235" y="511" type="line" smooth="yes"/>
      <point x="230" y="508"/>
      <point x="223" y="513"/>
      <point x="224" y="519" type="curve" smooth="yes"/>
      <point x="231" y="581" type="line"/>
    </contour>
    <contour>
      <point x="1" y="579" type="line"/>
      <point x="-6" y="518" type="line" smooth="yes"/>
      <point x="-7" y="511"/>
      <point x="-24" y="522"/>
      <point x="-18" y="526" type="curve" smooth="yes"/>
      <point x="79" y="587" type="line"/>
      <point x="87" y="573" type="line"/>
      <point x="-10" y="512" type="line" smooth="yes"/>
      <point x="-15" y="509"/>
      <point x="-23" y="513"/>
      <point x="-22" y="520" type="curve" smooth="yes"/>
      <point x="-15" y="581" type="line"/>
    </contour>
    <contour>
      <point x="357" y="-7" type="line"/>
      <point x="229" y="53" type="line" smooth="yes"/>
      <point x="221" y="56"/>
      <point x="234" y="71"/>
      <point x="239" y="64" type="curve" smooth="yes"/>
      <point x="277" y="4" type="line"/>
      <point x="263" y="-4" type="line"/>
      <point x="225" y="56" type="line" smooth="yes"/>
      <point x="221" y="62"/>
      <point x="228" y="71"/>
      <point x="235" y="67" type="curve" smooth="yes"/>
      <point x="363" y="7" type="line"/>
    </contour>
    <contour>
      <point x="-7" y="522" type="line"/>
      <point x="109" y="319" type="line"/>
      <point x="95" y="311" type="line"/>
      <point x="-21" y="514" type="line"/>
    </contour>
    <contour>
      <point x="266" y="256" type="line"/>
      <point x="240" y="59" type="line"/>
      <point x="224" y="61" type="line"/>
      <point x="250" y="258" type="line"/>
    </contour>
  </outline>
</glyph>
<glyph name="p" format="2">
  <advance width="386"/>
  <unicode hex="0070"/>
  <outline>
    <contour>
      <point x="-18" y="62" type="line"/>
      <point x="-18" y="520" type="line" smooth="yes"/>
      <point x="-18" y="524"/>
      <point x="-14" y="528"/>
      <point x="-10" y="528" type="curve" smooth="yes"/>
      <point x="96" y="528" type="line"/>
      <point x="96" y="528"/>
      <point x="96" y="528"/>
      <point x="96" y="528" type="curve"/>
      <point x="171" y="528"/>
      <point x="217" y="467"/>
      <point x="217" y="375" type="curve"/>
      <point x="217" y="375"/>
      <point x="217" y="375"/>
      <point x="217" y="375" type="curve"/>
      <point x="217" y="283"/>
      <point x="171" y="222"/>
      <point x="96" y="222" type="curve"/>
      <point x="96" y="222"/>
      <point x="96" y="222"/>
      <point x="96" y="222" type="curve"/>
      <point x="-10" y="222" type="line"/>
      <point x="-10" y="238" type="line"/>
      <point x="96" y="238" type="line"/>
      <point x="96" y="238"/>
      <point x="96" y="238"/>
      <point x="96" y="238" type="curve"/>
      <point x="163" y="238"/>
      <point x="201" y="293"/>
      <point x="201" y="375" type="curve"/>
      <point x="201" y="375"/>
      <point x="201" y="375"/>
      <point x="201" y="375" type="curve"/>
      <point x="201" y="457"/>
      <point x="163" y="512"/>
      <point x="96" y="512" type="curve"/>
      <point x="96" y="512"/>
      <point x="96" y="512"/>
      <point x="96" y="512" type="curve"/>
      <point x="-10" y="512" type="line" smooth="yes"/>
      <point x="-14" y="512"/>
      <point x="-2" y="524"/>
      <point x="-2" y="520" type="curve" smooth="yes"/>
      <point x="-2" y="62" type="line"/>
    </contour>
    <contour>
      <point x="125" y="-7" type="line"/>
      <point x="-13" y="55" type="line" smooth="yes"/>
      <point x="-19" y="57"/>
      <point x="-2" y="68"/>
      <point x="-2" y="62" type="curve" smooth="yes"/>
      <point x="1" y="0" type="line"/>
      <point x="-15" y="0" type="line"/>
      <point x="-18" y="62" type="line" smooth="yes"/>
      <point x="-18" y="68"/>
      <point x="-12" y="72"/>
      <point x="-7" y="69" type="curve" smooth="yes"/>
      <point x="131" y="7" type="line"/>
    </contour>
    <contour>
      <point x="113" y="282" type="line"/>
      <point x="-6" y="223" type="line" smooth="yes"/>
      <point x="-12" y="220"/>
      <point x="-12" y="240"/>
      <point x="-6" y="237" type="curve" smooth="yes"/>
      <point x="114" y="177" type="line"/>
      <point x="106" y="163" type="line"/>
      <point x="-14" y="223" type="line" smooth="yes"/>
      <point x="-19" y="226"/>
      <point x="-19" y="234"/>
      <point x="-14" y="237" type="curve" smooth="yes"/>
      <point x="105" y="296" type="line"/>
    </contour>
    <contour>
      <point x="1" y="580" type="line"/>
      <point x="-2" y="520" type="line" smooth="yes"/>
      <point x="-2" y="516"/>
      <point x="-9" y="529"/>
      <point x="-7" y="527" type="curve" smooth="yes"/>
      <point x="115" y="468" type="line"/>
      <point x="109" y="454" type="line"/>
      <point x="-13" y="513" type="line" smooth="yes"/>
      <point x="-16" y="514"/>
      <point x="-18" y="517"/>
      <point x="-18" y="520" type="curve" smooth="yes"/>
      <point x="-15" y="580" type="line"/>
    </contour>
  </outline>
</glyph>
<glyph name="q" format="2">
  <advance width="452"/>
  <unicode hex="0071"/>
  <outline>
    <contour>
      <point x="113" y="56" type="curve"/>
      <point x="113" y="56"/>
      <point x="113" y="56"/>
      <point x="113" y="56" type="curve"/>
      <point x="138" y="56"/>
      <point x="161" y="64"/>
      <point x="181" y="80" type="curve" smooth="yes"/>
      <point x="181" y="80"/>
      <point x="181" y="80"/>
      <point x="181" y="80" type="curve" smooth="yes"/>
      <point x="229" y="117"/>
      <point x="258" y="193"/>
      <point x="258" y="291" type="curve"/>
      <point x="258" y="291"/>
      <point x="258" y="291"/>
      <point x="258" y="291" type="curve"/>
      <point x="258" y="429"/>
      <point x="199" y="524"/>
      <point x="113" y="524" type="curve"/>
      <point x="113" y="524"/>
      <point x="113" y="524"/>
      <point x="113" y="524" type="curve"/>
      <point x="26" y="524"/>
      <point x="-33" y="430"/>
      <point x="-33" y="291" type="curve"/>
      <point x="-33" y="291"/>
      <point x="-33" y="291"/>
      <point x="-33" y="291" type="curve"/>
      <point x="-33" y="152"/>
      <point x="26" y="56"/>
    </contour>
    <contour>
      <point x="113" y="40" type="curve"/>
      <point x="18" y="40"/>
      <point x="-49" y="140"/>
      <point x="-49" y="291" type="curve"/>
      <point x="-49" y="291"/>
      <point x="-49" y="291"/>
      <point x="-49" y="291" type="curve"/>
      <point x="-49" y="442"/>
      <point x="18" y="540"/>
      <point x="113" y="540" type="curve"/>
      <point x="113" y="540"/>
      <point x="113" y="540"/>
      <point x="113" y="540" type="curve"/>
      <point x="207" y="540"/>
      <point x="274" y="441"/>
      <point x="274" y="291" type="curve"/>
      <point x="274" y="291"/>
      <point x="274" y="291"/>
      <point x="274" y="291" type="curve"/>
      <point x="274" y="187"/>
      <point x="241" y="107"/>
      <point x="191" y="68" type="curve" smooth="yes"/>
      <point x="191" y="68"/>
      <point x="191" y="68"/>
      <point x="191" y="68" type="curve" smooth="yes"/>
      <point x="169" y="50"/>
      <point x="142" y="40"/>
      <point x="113" y="40" type="curve"/>
      <point x="113" y="40"/>
      <point x="113" y="40"/>
    </contour>
    <contour>
      <point x="468" y="-69" type="line"/>
      <point x="365" y="-101"/>
      <point x="255" y="-68"/>
      <point x="179" y="70" type="curve"/>
      <point x="193" y="78" type="line"/>
      <point x="265" y="-52"/>
      <point x="367" y="-83"/>
      <point x="464" y="-53" type="curve"/>
    </contour>
    <contour>
      <point x="228" y="-8" type="line"/>
      <point x="179" y="70" type="line" smooth="yes"/>
      <point x="176" y="75"/>
      <point x="180" y="83"/>
      <point x="187" y="82" type="curve" smooth="yes"/>
      <point x="324" y="70" type="line"/>
      <point x="322" y="54" type="line"/>
      <point x="185" y="66" type="line" smooth="yes"/>
      <point x="179" y="67"/>
      <point x="189" y="84"/>
      <point x="193" y="78" type="curve" smooth="yes"/>
      <point x="242" y="0" type="line"/>
    </contour>
  </outline>
</glyph>
<glyph name="r" format="2">
  <advance width="406"/>
  <unicode hex="0072"/>
  <anchor x="178.0" y="0" name="below"/>
  <anchor x="151.0" y="580" name="above"/>
  <outline>
    <contour>
      <point x="-18" y="62" type="line"/>
      <point x="-18" y="260" type="line"/>
      <point x="-18" y="260"/>
      <point x="-18" y="260"/>
      <point x="-18" y="260" type="curve"/>
      <point x="-18" y="520" type="line" smooth="yes"/>
      <point x="-18" y="524"/>
      <point x="-14" y="528"/>
      <point x="-10" y="528" type="curve" smooth="yes"/>
      <point x="83" y="528" type="line"/>
      <point x="83" y="528"/>
      <point x="83" y="528"/>
      <point x="83" y="528" type="curve"/>
      <point x="157" y="528"/>
      <point x="203" y="473"/>
      <point x="203" y="390" type="curve"/>
      <point x="203" y="390"/>
      <point x="203" y="390"/>
      <point x="203" y="390" type="curve"/>
      <point x="203" y="318"/>
      <point x="168" y="265"/>
      <point x="116" y="252" type="curve" smooth="yes"/>
      <point x="115" y="252"/>
      <point x="115" y="252"/>
      <point x="114" y="252" type="curve" smooth="yes"/>
      <point x="-10" y="252" type="line"/>
      <point x="-10" y="268" type="line"/>
      <point x="114" y="268" type="line" smooth="yes"/>
      <point x="115" y="268"/>
      <point x="111" y="268"/>
      <point x="112" y="268" type="curve" smooth="yes"/>
      <point x="158" y="279"/>
      <point x="187" y="326"/>
      <point x="187" y="390" type="curve"/>
      <point x="187" y="390"/>
      <point x="187" y="390"/>
      <point x="187" y="390" type="curve"/>
      <point x="187" y="463"/>
      <point x="149" y="512"/>
      <point x="83" y="512" type="curve"/>
      <point x="83" y="512"/>
      <point x="83" y="512"/>
      <point x="83" y="512" type="curve"/>
      <point x="-10" y="512" type="line" smooth="yes"/>
      <point x="-14" y="512"/>
      <point x="-2" y="524"/>
      <point x="-2" y="520" type="curve" smooth="yes"/>
      <point x="-2" y="260" type="line"/>
      <point x="-2" y="260"/>
      <point x="-2" y="260"/>
      <point x="-2" y="260" type="curve"/>
      <point x="-2" y="62" type="line"/>
    </contour>
    <contour>
      <point x="121" y="263" type="line"/>
      <point x="211" y="65" type="line"/>
      <point x="197" y="59" type="line"/>
      <point x="107" y="257" type="line"/>
    </contour>
    <contour>
      <point x="125" y="-7" type="line"/>
      <point x="-13" y="55" type="line" smooth="yes"/>
      <point x="-19" y="57"/>
      <point x="-2" y="68"/>
      <point x="-2" y="62" type="curve" smooth="yes"/>
      <point x="1" y="0" type="line"/>
      <point x="-15" y="0" type="line"/>
      <point x="-18" y="62" type="line" smooth="yes"/>
      <point x="-18" y="68"/>
      <point x="-12" y="72"/>
      <point x="-7" y="69" type="curve" smooth="yes"/>
      <point x="131" y="7" type="line"/>
    </contour>
    <contour>
      <point x="378" y="-8" type="line"/>
      <point x="201" y="54" type="line" smooth="yes"/>
      <point x="195" y="57"/>
      <point x="209" y="71"/>
      <point x="212" y="65" type="curve" smooth="yes"/>
      <point x="234" y="3" type="line"/>
      <point x="218" y="-3" type="line"/>
      <point x="196" y="59" type="line" smooth="yes"/>
      <point x="194" y="66"/>
      <point x="200" y="72"/>
      <point x="207" y="70" type="curve" smooth="yes"/>
      <point x="384" y="8" type="line"/>
    </contour>
    <contour>
      <point x="1" y="580" type="line"/>
      <point x="-2" y="520" type="line" smooth="yes"/>
      <point x="-2" y="516"/>
      <point x="-9" y="529"/>
      <point x="-6" y="527" type="curve" smooth="yes"/>
      <point x="115" y="468" type="line"/>
      <point x="107" y="454" type="line"/>
      <point x="-14" y="513" type="line" smooth="yes"/>
      <point x="-16" y="514"/>
      <point x="-18" y="517"/>
      <point x="-18" y="520" type="curve" smooth="yes"/>
      <point x="-15" y="580" type="line"/>
    </contour>
    <contour>
      <point x="112" y="310" type="line"/>
      <point x="-7" y="253" type="line" smooth="yes"/>
      <point x="-13" y="250"/>
      <point x="-13" y="270"/>
      <point x="-7" y="267" type="curve" smooth="yes"/>
      <point x="113" y="210" type="line"/>
      <point x="107" y="196" type="line"/>
      <point x="-13" y="253" type="line" smooth="yes"/>
      <point x="-20" y="256"/>
      <point x="-20" y="264"/>
      <point x="-13" y="267" type="curve" smooth="yes"/>
      <point x="106" y="324" type="line"/>
    </contour>
    <contour>
      <point x="151" y="198" type="line"/>
      <point x="108" y="255" type="line" smooth="yes"/>
      <point x="103" y="261"/>
      <point x="108" y="269"/>
      <point x="116" y="268" type="curve" smooth="yes"/>
      <point x="253" y="241" type="line"/>
      <point x="249" y="225" type="line"/>
      <point x="112" y="252" type="line" smooth="yes"/>
      <point x="105" y="254"/>
      <point x="116" y="271"/>
      <point x="120" y="265" type="curve" smooth="yes"/>
      <point x="163" y="208" type="line"/>
    </contour>
  </outline>
</glyph>
<glyph name="t" format="2">
  <advance width="363"/>
  <unicode hex="0074"/>
  <anchor x="181.0" y="0" name="below"/>
  <anchor x="181.0" y="580.0" name="above"/>
  <outline>
    <contour>
      <point x="191" y="506" type="line"/>
      <point x="162" y="510"/>
      <point x="125" y="512"/>
      <point x="68" y="512" type="curve"/>
      <point x="68" y="512"/>
      <point x="68" y="512"/>
      <point x="68" y="512" type="curve"/>
      <point x="12" y="512"/>
      <point x="-26" y="510"/>
      <point x="-54" y="506" type="curve"/>
      <point x="-56" y="522" type="line"/>
      <point x="-28" y="526"/>
      <point x="11" y="528"/>
      <point x="68" y="528" type="curve"/>
      <point x="68" y="528"/>
      <point x="68" y="528"/>
      <point x="68" y="528" type="curve"/>
      <point x="125" y="528"/>
      <point x="164" y="526"/>
      <point x="193" y="522" type="curve"/>
    </contour>
    <contour>
      <point x="76" y="520" type="line"/>
      <point x="76" y="62" type="line"/>
      <point x="60" y="62" type="line"/>
      <point x="60" y="520" type="line"/>
    </contour>
    <contour>
      <point x="204" y="-7" type="line"/>
      <point x="65" y="55" type="line" smooth="yes"/>
      <point x="59" y="57"/>
      <point x="76" y="69"/>
      <point x="76" y="63" type="curve" smooth="yes"/>
      <point x="80" y="1" type="line"/>
      <point x="64" y="-1" type="line"/>
      <point x="60" y="61" type="line" smooth="yes"/>
      <point x="60" y="67"/>
      <point x="66" y="72"/>
      <point x="71" y="69" type="curve" smooth="yes"/>
      <point x="210" y="7" type="line"/>
    </contour>
    <contour>
      <point x="310" y="573" type="line"/>
      <point x="196" y="507" type="line" smooth="yes"/>
      <point x="191" y="504"/>
      <point x="192" y="524"/>
      <point x="197" y="520" type="curve" smooth="yes"/>
      <point x="311" y="436" type="line"/>
      <point x="301" y="424" type="line"/>
      <point x="187" y="508" type="line" smooth="yes"/>
      <point x="183" y="511"/>
      <point x="183" y="518"/>
      <point x="188" y="521" type="curve" smooth="yes"/>
      <point x="302" y="587" type="line"/>
    </contour>
    <contour>
      <point x="-36" y="428" type="line"/>
      <point x="-63" y="512" type="line" smooth="yes"/>
      <point x="-63" y="513"/>
      <point x="-63" y="515"/>
      <point x="-62" y="517" type="curve" smooth="yes"/>
      <point x="-35" y="583" type="line"/>
      <point x="-21" y="577" type="line"/>
      <point x="-48" y="511" type="line" smooth="yes"/>
      <point x="-48" y="509"/>
      <point x="-48" y="518"/>
      <point x="-47" y="516" type="curve" smooth="yes"/>
      <point x="-20" y="432" type="line"/>
    </contour>
    <contour>
      <point x="81" y="456" type="line"/>
      <point x="60" y="517" type="line" smooth="yes"/>
      <point x="58" y="524"/>
      <point x="65" y="530"/>
      <point x="72" y="527" type="curve" smooth="yes"/>
      <point x="194" y="466" type="line"/>
      <point x="186" y="452" type="line"/>
      <point x="64" y="513" type="line" smooth="yes"/>
      <point x="58" y="516"/>
      <point x="73" y="529"/>
      <point x="76" y="523" type="curve" smooth="yes"/>
      <point x="97" y="462" type="line"/>
    </contour>
  </outline>
</glyph>
<glyph name="u" format="2">
  <advance width="438"/>
  <unicode hex="0075"/>
  <anchor x="249.0" y="580" name="horn"/>
  <anchor x="177.0" y="-5" name="below"/>
  <anchor x="177.0" y="580.0" name="above"/>
  <outline>
    <contour>
      <point x="237" y="518" type="line"/>
      <point x="237" y="214" type="line"/>
      <point x="237" y="214"/>
      <point x="237" y="214"/>
      <point x="237" y="214" type="curve"/>
      <point x="237" y="107"/>
      <point x="183" y="40"/>
      <point x="106" y="40" type="curve"/>
      <point x="106" y="40"/>
      <point x="106" y="40"/>
      <point x="106" y="40" type="curve"/>
      <point x="28" y="40"/>
      <point x="-25" y="107"/>
      <point x="-25" y="214" type="curve"/>
      <point x="-25" y="214"/>
      <point x="-25" y="214"/>
      <point x="-25" y="214" type="curve"/>
      <point x="-25" y="518" type="line"/>
      <point x="-9" y="518" type="line"/>
      <point x="-9" y="214" type="line"/>
      <point x="-9" y="214"/>
      <point x="-9" y="214"/>
      <point x="-9" y="214" type="curve"/>
      <point x="-9" y="117"/>
      <point x="36" y="56"/>
      <point x="106" y="56" type="curve"/>
      <point x="106" y="56"/>
      <point x="106" y="56"/>
      <point x="106" y="56" type="curve"/>
      <point x="175" y="56"/>
      <point x="221" y="117"/>
      <point x="221" y="214" type="curve"/>
      <point x="221" y="214"/>
      <point x="221" y="214"/>
      <point x="221" y="214" type="curve"/>
      <point x="221" y="518" type="line"/>
    </contour>
    <contour>
      <point x="-6" y="580" type="line"/>
      <point x="-9" y="518" type="line" smooth="yes"/>
      <point x="-9" y="512"/>
      <point x="-26" y="523"/>
      <point x="-20" y="525" type="curve" smooth="yes"/>
      <point x="118" y="587" type="line"/>
      <point x="124" y="573" type="line"/>
      <point x="-14" y="511" type="line" smooth="yes"/>
      <point x="-19" y="508"/>
      <point x="-25" y="512"/>
      <point x="-25" y="518" type="curve" smooth="yes"/>
      <point x="-22" y="580" type="line"/>
    </contour>
    <contour>
      <point x="240" y="580" type="line"/>
      <point x="237" y="518" type="line" smooth="yes"/>
      <point x="237" y="512"/>
      <point x="220" y="523"/>
      <point x="226" y="525" type="curve" smooth="yes"/>
      <point x="364" y="587" type="line"/>
      <point x="370" y="573" type="line"/>
      <point x="232" y="511" type="line" smooth="yes"/>
      <point x="227" y="508"/>
      <point x="221" y="512"/>
      <point x="221" y="518" type="curve" smooth="yes"/>
      <point x="224" y="580" type="line"/>
    </contour>
  </outline>
</glyph>
<glyph name="v" format="2">
  <advance width="428"/>
  <unicode hex="0076"/>
  <outline>
    <contour>
      <point x="252" y="579" type="line"/>
      <point x="240" y="509" type="line" smooth="yes"/>
      <point x="239" y="502"/>
      <point x="223" y="515"/>
      <point x="229" y="517" type="curve" smooth="yes"/>
      <point x="382" y="587" type="line"/>
      <point x="388" y="573" type="line"/>
      <point x="235" y="503" type="line" smooth="yes"/>
      <point x="229" y="500"/>
      <point x="223" y="505"/>
      <point x="224" y="511" type="curve" smooth="yes"/>
      <point x="236" y="581" type="line"/>
    </contour>
    <contour>
      <point x="-34" y="582" type="line"/>
      <point x="-18" y="512" type="line" smooth="yes"/>
      <point x="-17" y="507"/>
      <point x="-34" y="515"/>
      <point x="-30" y="517" type="curve" smooth="yes"/>
      <point x="105" y="587" type="line"/>
      <point x="113" y="573" type="line"/>
      <point x="-22" y="503" type="line" smooth="yes"/>
      <point x="-27" y="500"/>
      <point x="-33" y="503"/>
      <point x="-34" y="508" type="curve" smooth="yes"/>
      <point x="-50" y="578" type="line"/>
    </contour>
    <contour>
      <point x="-18" y="512" type="line"/>
      <point x="-9" y="469"/>
      <point x="7" y="402"/>
      <point x="39" y="283" type="curve" smooth="yes"/>
      <point x="39" y="283"/>
      <point x="39" y="283"/>
      <point x="39" y="283" type="curve" smooth="yes"/>
      <point x="54" y="226"/>
      <point x="74" y="151"/>
      <point x="88" y="92" type="curve" smooth="yes"/>
      <point x="89" y="88"/>
      <point x="76" y="98"/>
      <point x="80" y="98" type="curve" smooth="yes"/>
      <point x="126" y="98" type="line" smooth="yes"/>
      <point x="130" y="98"/>
      <point x="117" y="88"/>
      <point x="118" y="92" type="curve" smooth="yes"/>
      <point x="132" y="150"/>
      <point x="153" y="226"/>
      <point x="168" y="283" type="curve" smooth="yes"/>
      <point x="168" y="283"/>
      <point x="168" y="283"/>
      <point x="168" y="283" type="curve" smooth="yes"/>
      <point x="200" y="403"/>
      <point x="216" y="470"/>
      <point x="224" y="511" type="curve"/>
      <point x="240" y="509" type="line"/>
      <point x="232" y="466"/>
      <point x="216" y="399"/>
      <point x="184" y="279" type="curve" smooth="yes"/>
      <point x="184" y="279"/>
      <point x="184" y="279"/>
      <point x="184" y="279" type="curve" smooth="yes"/>
      <point x="169" y="222"/>
      <point x="148" y="146"/>
      <point x="134" y="88" type="curve" smooth="yes"/>
      <point x="133" y="85"/>
      <point x="130" y="82"/>
      <point x="126" y="82" type="curve" smooth="yes"/>
      <point x="80" y="82" type="line" smooth="yes"/>
      <point x="76" y="82"/>
      <point x="73" y="85"/>
      <point x="72" y="88" type="curve" smooth="yes"/>
      <point x="58" y="147"/>
      <point x="38" y="222"/>
      <point x="23" y="279" type="curve" smooth="yes"/>
      <point x="23" y="279"/>
      <point x="23" y="279"/>
      <point x="23" y="279" type="curve" smooth="yes"/>
      <point x="-9" y="398"/>
      <point x="-25" y="465"/>
      <point x="-34" y="508" type="curve"/>
    </contour>
    <contour>
      <point x="112" y="-3" type="line"/>
      <point x="73" y="87" type="line" smooth="yes"/>
      <point x="71" y="90"/>
      <point x="72" y="93"/>
      <point x="74" y="96" type="curve" smooth="yes"/>
      <point x="171" y="192" type="line" smooth="yes"/>
      <point x="178" y="198"/>
      <point x="188" y="190"/>
      <point x="184" y="182" type="curve" smooth="yes"/>
      <point x="133" y="86" type="line" smooth="yes"/>
      <point x="131" y="83"/>
      <point x="129" y="98"/>
      <point x="131" y="96" type="curve" smooth="yes"/>
      <point x="230" y="6" type="line"/>
      <point x="220" y="-6" type="line"/>
      <point x="121" y="84" type="line" smooth="yes"/>
      <point x="118" y="87"/>
      <point x="117" y="91"/>
      <point x="119" y="94" type="curve" smooth="yes"/>
      <point x="170" y="190" type="line" smooth="yes"/>
      <point x="174" y="198"/>
      <point x="189" y="187"/>
      <point x="183" y="180" type="curve" smooth="yes"/>
      <point x="86" y="84" type="line" smooth="yes"/>
      <point x="83" y="82"/>
      <point x="86" y="96"/>
      <point x="87" y="93" type="curve" smooth="yes"/>
      <point x="126" y="3" type="line"/>
    </contour>
  </outline>
</glyph>
<glyph name="w" format="2">
  <advance width="563"/>
  <unicode hex="0077"/>
  <anchor x="282.0" y="0" name="below"/>
  <anchor x="282.0" y="580.0" name="above"/>
  <outline>
    <contour>
      <point x="380" y="516" type="line"/>
      <point x="280" y="49" type="line" smooth="yes"/>
      <point x="278" y="41"/>
      <point x="266" y="41"/>
      <point x="264" y="49" type="curve" smooth="yes"/>
      <point x="163" y="509" type="line" smooth="yes"/>
      <point x="161" y="518"/>
      <point x="181" y="518"/>
      <point x="179" y="509" type="curve" smooth="yes"/>
      <point x="77" y="49" type="line" smooth="yes"/>
      <point x="75" y="41"/>
      <point x="63" y="41"/>
      <point x="61" y="49" type="curve" smooth="yes"/>
      <point x="-41" y="516" type="line"/>
      <point x="-25" y="520" type="line"/>
      <point x="77" y="53" type="line" smooth="yes"/>
      <point x="79" y="44"/>
      <point x="59" y="44"/>
      <point x="61" y="53" type="curve" smooth="yes"/>
      <point x="163" y="513" type="line" smooth="yes"/>
      <point x="165" y="521"/>
      <point x="177" y="521"/>
      <point x="179" y="513" type="curve" smooth="yes"/>
      <point x="280" y="53" type="line" smooth="yes"/>
      <point x="282" y="44"/>
      <point x="262" y="44"/>
      <point x="264" y="53" type="curve" smooth="yes"/>
      <point x="364" y="520" type="line"/>
    </contour>
    <contour>
      <point x="-30" y="581" type="line"/>
      <point x="-25" y="519" type="line" smooth="yes"/>
      <point x="-25" y="513"/>
      <point x="-41" y="523"/>
      <point x="-36" y="525" type="curve" smooth="yes"/>
      <point x="100" y="587" type="line"/>
      <point x="106" y="573" type="line"/>
      <point x="-30" y="511" type="line" smooth="yes"/>
      <point x="-35" y="508"/>
      <point x="-41" y="512"/>
      <point x="-41" y="517" type="curve" smooth="yes"/>
      <point x="-46" y="579" type="line"/>
    </contour>
    <contour>
      <point x="390" y="579" type="line"/>
      <point x="380" y="517" type="line" smooth="yes"/>
      <point x="379" y="511"/>
      <point x="363" y="523"/>
      <point x="369" y="525" type="curve" smooth="yes"/>
      <point x="514" y="587" type="line"/>
      <point x="520" y="573" type="line"/>
      <point x="375" y="511" type="line" smooth="yes"/>
      <point x="369" y="508"/>
      <point x="363" y="513"/>
      <point x="364" y="519" type="curve" smooth="yes"/>
      <point x="374" y="581" type="line"/>
    </contour>
    <contour>
      <point x="208" y="577" type="line"/>
      <point x="178" y="508" type="line" smooth="yes"/>
      <point x="175" y="501"/>
      <point x="160" y="514"/>
      <point x="167" y="518" type="curve" smooth="yes"/>
      <point x="281" y="587" type="line"/>
      <point x="289" y="573" type="line"/>
      <point x="175" y="504" type="line" smooth="yes"/>
      <point x="168" y="500"/>
      <point x="161" y="507"/>
      <point x="164" y="514" type="curve" smooth="yes"/>
      <point x="194" y="583" type="line"/>
    </contour>
    <contour>
      <point x="231" y="313" type="line"/>
      <point x="163" y="508" type="line"/>
      <point x="179" y="514" type="line"/>
      <point x="247" y="319" type="line"/>
    </contour>
    <contour>
      <point x="91" y="-4" type="line"/>
      <point x="62" y="47" type="line" smooth="yes"/>
      <point x="58" y="54"/>
      <point x="65" y="62"/>
      <point x="72" y="58" type="curve" smooth="yes"/>
      <point x="177" y="7" type="line"/>
      <point x="171" y="-7" type="line"/>
      <point x="66" y="44" type="line" smooth="yes"/>
      <point x="58" y="47"/>
      <point x="72" y="62"/>
      <point x="76" y="55" type="curve" smooth="yes"/>
      <point x="105" y="4" type="line"/>
    </contour>
    <contour>
      <point x="297" y="-4" type="line"/>
      <point x="265" y="47" type="line" smooth="yes"/>
      <point x="261" y="54"/>
      <point x="268" y="62"/>
      <point x="275" y="58" type="curve" smooth="yes"/>
      <point x="383" y="7" type="line"/>
      <point x="377" y="-7" type="line"/>
      <point x="269" y="44" type="line" smooth="yes"/>
      <point x="261" y="47"/>
      <point x="275" y="62"/>
      <point x="279" y="55" type="curve" smooth="yes"/>
      <point x="311" y="4" type="line"/>
    </contour>
    <contour>
      <point x="151" y="263" type="line"/>
      <point x="77" y="48" type="line"/>
      <point x="61" y="54" type="line"/>
      <point x="135" y="269" type="line"/>
    </contour>
    <contour>
      <point x="351" y="269" type="line"/>
      <point x="280" y="49" type="line"/>
      <point x="264" y="53" type="line"/>
      <point x="335" y="273" type="line"/>
    </contour>
  </outline>
</glyph>
<glyph name="y" format="2">
  <advance width="399"/>
  <unicode hex="0079"/>
  <anchor x="162.0" y="0" name="below"/>
  <anchor x="157.0" y="580.0" name="above"/>
  <outline>
    <contour>
      <point x="-19" y="521" type="line"/>
      <point x="98" y="231" type="line" smooth="yes"/>
      <point x="101" y="224"/>
      <point x="81" y="224"/>
      <point x="84" y="231" type="curve" smooth="yes"/>
      <point x="198" y="521" type="line"/>
      <point x="212" y="515" type="line"/>
      <point x="98" y="225" type="line" smooth="yes"/>
      <point x="96" y="218"/>
      <point x="86" y="218"/>
      <point x="84" y="225" type="curve" smooth="yes"/>
      <point x="-33" y="515" type="line"/>
    </contour>
    <contour>
      <point x="169" y="344" type="line"/>
      <point x="98" y="224" type="line" smooth="yes"/>
      <point x="97" y="223"/>
      <point x="99" y="229"/>
      <point x="99" y="228" type="curve" smooth="yes"/>
      <point x="99" y="62" type="line"/>
      <point x="83" y="62" type="line"/>
      <point x="83" y="228" type="line" smooth="yes"/>
      <point x="83" y="229"/>
      <point x="83" y="231"/>
      <point x="84" y="232" type="curve" smooth="yes"/>
      <point x="155" y="352" type="line"/>
    </contour>
    <contour>
      <point x="226" y="-7" type="line"/>
      <point x="88" y="55" type="line" smooth="yes"/>
      <point x="82" y="57"/>
      <point x="99" y="68"/>
      <point x="99" y="62" type="curve" smooth="yes"/>
      <point x="102" y="0" type="line"/>
      <point x="86" y="0" type="line"/>
      <point x="83" y="62" type="line" smooth="yes"/>
      <point x="83" y="68"/>
      <point x="89" y="72"/>
      <point x="94" y="69" type="curve" smooth="yes"/>
      <point x="232" y="7" type="line"/>
    </contour>
    <contour>
      <point x="-38" y="582" type="line"/>
      <point x="-18" y="520" type="line" smooth="yes"/>
      <point x="-17" y="516"/>
      <point x="-34" y="523"/>
      <point x="-30" y="525" type="curve" smooth="yes"/>
      <point x="93" y="587" type="line"/>
      <point x="101" y="573" type="line"/>
      <point x="-22" y="511" type="line" smooth="yes"/>
      <point x="-27" y="509"/>
      <point x="-32" y="511"/>
      <point x="-34" y="516" type="curve" smooth="yes"/>
      <point x="-54" y="578" type="line"/>
    </contour>
    <contour>
      <point x="236" y="577" type="line"/>
      <point x="213" y="515" type="line" smooth="yes"/>
      <point x="210" y="509"/>
      <point x="196" y="523"/>
      <point x="202" y="525" type="curve" smooth="yes"/>
      <point x="357" y="587" type="line"/>
      <point x="363" y="573" type="line"/>
      <point x="208" y="511" type="line" smooth="yes"/>
      <point x="202" y="508"/>
      <point x="195" y="514"/>
      <point x="197" y="521" type="curve" smooth="yes"/>
      <point x="220" y="583" type="line"/>
    </contour>
    <contour>
      <point x="113" y="224" type="line"/>
      <point x="93" y="220" type="line" smooth="yes"/>
      <point x="83" y="218"/>
      <point x="81" y="236"/>
      <point x="91" y="236" type="curve" smooth="yes"/>
      <point x="213" y="240" type="line"/>
      <point x="213" y="224" type="line"/>
      <point x="91" y="220" type="line" smooth="yes"/>
      <point x="81" y="220"/>
      <point x="80" y="234"/>
      <point x="89" y="236" type="curve" smooth="yes"/>
      <point x="109" y="240" type="line"/>
    </contour>
  </outline>
</glyph>
<glyph name="bar" format="2">
  <advance width="273"/>
  <unicode hex="007C"/>
  <outline>
    <contour>
      <point x="31" y="688" type="line"/>
      <point x="31" y="-13" type="line"/>
      <point x="15" y="-13" type="line"/>
      <point x="15" y="688" type="line"/>
    </contour>
    <contour>
      <point x="139" y="-82" type="line"/>
      <point x="19" y="-20" type="line" smooth="yes"/>
      <point x="13" y="-17"/>
      <point x="28" y="-3"/>
      <point x="31" y="-10" type="curve" smooth="yes"/>
      <point x="53" y="-72" type="line"/>
      <point x="37" y="-78" type="line"/>
      <point x="15" y="-16" type="line" smooth="yes"/>
      <point x="13" y="-9"/>
      <point x="20" y="-3"/>
      <point x="27" y="-6" type="curve" smooth="yes"/>
      <point x="147" y="-68" type="line"/>
    </contour>
    <contour>
      <point x="53" y="747" type="line"/>
      <point x="31" y="685" type="line" smooth="yes"/>
      <point x="28" y="678"/>
      <point x="13" y="692"/>
      <point x="19" y="695" type="curve" smooth="yes"/>
      <point x="139" y="757" type="line"/>
      <point x="147" y="743" type="line"/>
      <point x="27" y="681" type="line" smooth="yes"/>
      <point x="20" y="678"/>
      <point x="13" y="684"/>
      <point x="15" y="691" type="curve" smooth="yes"/>
      <point x="37" y="753" type="line"/>
    </contour>
  </outline>
</glyph>
<glyph name="asciitilde" format="2">
  <advance width="451"/>
  <unicode hex="007E"/>
  <outline>
    <contour>
      <point x="-44" y="233" type="line"/>
      <point x="-39" y="327"/>
      <point x="-4" y="372"/>
      <point x="41" y="372" type="curve"/>
      <point x="41" y="372"/>
      <point x="41" y="372"/>
      <point x="41" y="372" type="curve"/>
      <point x="78" y="372"/>
      <point x="99" y="339"/>
      <point x="120" y="303" type="curve" smooth="yes"/>
      <point x="120" y="303"/>
      <point x="120" y="303"/>
      <point x="120" y="303" type="curve" smooth="yes"/>
      <point x="137" y="276"/>
      <point x="156" y="246"/>
      <point x="183" y="246" type="curve"/>
      <point x="183" y="246"/>
      <point x="183" y="246"/>
      <point x="183" y="246" type="curve"/>
      <point x="221" y="246"/>
      <point x="248" y="291"/>
      <point x="253" y="371" type="curve"/>
      <point x="269" y="369" type="line"/>
      <point x="262" y="275"/>
      <point x="228" y="230"/>
      <point x="183" y="230" type="curve"/>
      <point x="183" y="230"/>
      <point x="183" y="230"/>
      <point x="183" y="230" type="curve"/>
      <point x="149" y="230"/>
      <point x="128" y="260"/>
      <point x="106" y="295" type="curve" smooth="yes"/>
      <point x="106" y="295"/>
      <point x="106" y="295"/>
      <point x="106" y="295" type="curve" smooth="yes"/>
      <point x="89" y="323"/>
      <point x="70" y="356"/>
      <point x="41" y="356" type="curve"/>
      <point x="41" y="356"/>
      <point x="41" y="356"/>
      <point x="41" y="356" type="curve"/>
      <point x="2" y="356"/>
      <point x="-23" y="312"/>
      <point x="-28" y="233" type="curve"/>
    </contour>
    <contour>
      <point x="66" y="164" type="line"/>
      <point x="-40" y="226" type="line" smooth="yes"/>
      <point x="-47" y="230"/>
      <point x="-33" y="244"/>
      <point x="-29" y="237" type="curve" smooth="yes"/>
      <point x="3" y="175" type="line"/>
      <point x="-11" y="167" type="line"/>
      <point x="-43" y="229" type="line" smooth="yes"/>
      <point x="-47" y="236"/>
      <point x="-39" y="244"/>
      <point x="-32" y="240" type="curve" smooth="yes"/>
      <point x="74" y="178" type="line"/>
    </contour>
    <contour>
      <point x="303" y="428" type="line"/>
      <point x="268" y="366" type="line" smooth="yes"/>
      <point x="264" y="359"/>
      <point x="250" y="373"/>
      <point x="257" y="377" type="curve" smooth="yes"/>
      <point x="366" y="439" type="line"/>
      <point x="374" y="425" type="line"/>
      <point x="265" y="363" type="line" smooth="yes"/>
      <point x="258" y="359"/>
      <point x="250" y="367"/>
      <point x="254" y="374" type="curve" smooth="yes"/>
      <point x="289" y="436" type="line"/>
    </contour>
  </outline>
</glyph>
<glyph name="exclamdown" format="2">
  <advance width="205"/>
  <unicode hex="00A1"/>
  <outline>
    <contour>
      <point x="113" y="512" type="line"/>
      <point x="-14" y="592" type="line" smooth="yes"/>
      <point x="-17" y="594"/>
      <point x="-18" y="597"/>
      <point x="-18" y="600" type="curve" smooth="yes"/>
      <point x="-5" y="681" type="line"/>
      <point x="11" y="679" type="line"/>
      <point x="-2" y="598" type="line" smooth="yes"/>
      <point x="-3" y="595"/>
      <point x="-8" y="607"/>
      <point x="-6" y="606" type="curve" smooth="yes"/>
      <point x="121" y="526" type="line"/>
    </contour>
    <contour>
      <point x="121" y="673" type="line"/>
      <point x="-6" y="592" type="line" smooth="yes"/>
      <point x="-8" y="591"/>
      <point x="-3" y="603"/>
      <point x="-2" y="600" type="curve" smooth="yes"/>
      <point x="11" y="520" type="line"/>
      <point x="-5" y="518" type="line"/>
      <point x="-18" y="598" type="line" smooth="yes"/>
      <point x="-18" y="601"/>
      <point x="-17" y="604"/>
      <point x="-14" y="606" type="curve" smooth="yes"/>
      <point x="113" y="687" type="line"/>
    </contour>
    <contour>
      <point x="-2" y="377" type="line"/>
      <point x="-2" y="62" type="line"/>
      <point x="-18" y="62" type="line"/>
      <point x="-18" y="377" type="line"/>
    </contour>
    <contour>
      <point x="29" y="418" type="line"/>
      <point x="-3" y="372" type="line" smooth="yes"/>
      <point x="-8" y="366"/>
      <point x="-21" y="381"/>
      <point x="-13" y="384" type="curve" smooth="yes"/>
      <point x="95" y="430" type="line"/>
      <point x="101" y="416" type="line"/>
      <point x="-7" y="370" type="line" smooth="yes"/>
      <point x="-14" y="366"/>
      <point x="-21" y="375"/>
      <point x="-17" y="382" type="curve" smooth="yes"/>
      <point x="15" y="428" type="line"/>
    </contour>
    <contour>
      <point x="123" y="-7" type="line"/>
      <point x="-13" y="55" type="line" smooth="yes"/>
      <point x="-19" y="57"/>
      <point x="-2" y="69"/>
      <point x="-2" y="63" type="curve" smooth="yes"/>
      <point x="2" y="1" type="line"/>
      <point x="-14" y="-1" type="line"/>
      <point x="-18" y="61" type="line" smooth="yes"/>
      <point x="-18" y="68"/>
      <point x="-12" y="72"/>
      <point x="-7" y="69" type="curve" smooth="yes"/>
      <point x="129" y="7" type="line"/>
    </contour>
  </outline>
</glyph>
<glyph name="cent" format="2">
  <advance width="331"/>
  <unicode hex="00A2"/>
  <outline>
    <contour>
      <point x="85" y="623" type="line"/>
      <point x="81" y="509" type="line"/>
      <point x="65" y="509" type="line"/>
      <point x="69" y="623" type="line"/>
    </contour>
    <contour>
      <point x="136" y="492" type="line"/>
      <point x="115" y="501"/>
      <point x="92" y="504"/>
      <point x="74" y="501" type="curve" smooth="yes"/>
      <point x="74" y="501"/>
      <point x="74" y="501"/>
      <point x="74" y="501" type="curve" smooth="yes"/>
      <point x="8" y="490"/>
      <point x="-34" y="418"/>
      <point x="-34" y="313" type="curve"/>
      <point x="-34" y="313"/>
      <point x="-34" y="313"/>
      <point x="-34" y="313" type="curve"/>
      <point x="-34" y="216"/>
      <point x="2" y="147"/>
      <point x="60" y="129" type="curve" smooth="yes"/>
      <point x="60" y="129"/>
      <point x="60" y="129"/>
      <point x="60" y="129" type="curve" smooth="yes"/>
      <point x="84" y="121"/>
      <point x="112" y="123"/>
      <point x="136" y="134" type="curve"/>
      <point x="142" y="120" type="line"/>
      <point x="114" y="107"/>
      <point x="82" y="105"/>
      <point x="56" y="113" type="curve" smooth="yes"/>
      <point x="56" y="113"/>
      <point x="56" y="113"/>
      <point x="56" y="113" type="curve" smooth="yes"/>
      <point x="-8" y="133"/>
      <point x="-50" y="206"/>
      <point x="-50" y="313" type="curve"/>
      <point x="-50" y="313"/>
      <point x="-50" y="313"/>
      <point x="-50" y="313" type="curve"/>
      <point x="-50" y="428"/>
      <point x="-2" y="504"/>
      <point x="72" y="517" type="curve" smooth="yes"/>
      <point x="72" y="517"/>
      <point x="72" y="517"/>
      <point x="72" y="517" type="curve" smooth="yes"/>
      <point x="92" y="520"/>
      <point x="119" y="517"/>
      <point x="142" y="506" type="curve"/>
    </contour>
    <contour>
      <point x="66" y="121" type="line"/>
      <point x="61" y="7" type="line"/>
      <point x="45" y="7" type="line"/>
      <point x="50" y="121" type="line"/>
    </contour>
    <contour>
      <point x="257" y="535" type="line"/>
      <point x="142" y="492" type="line" smooth="yes"/>
      <point x="136" y="489"/>
      <point x="140" y="509"/>
      <point x="144" y="505" type="curve" smooth="yes"/>
      <point x="259" y="406" type="line"/>
      <point x="249" y="394" type="line"/>
      <point x="134" y="493" type="line" smooth="yes"/>
      <point x="129" y="497"/>
      <point x="131" y="504"/>
      <point x="136" y="506" type="curve" smooth="yes"/>
      <point x="251" y="549" type="line"/>
    </contour>
    <contour>
      <point x="259" y="220" type="line"/>
      <point x="144" y="121" type="line" smooth="yes"/>
      <point x="140" y="117"/>
      <point x="136" y="137"/>
      <point x="142" y="134" type="curve" smooth="yes"/>
      <point x="257" y="91" type="line"/>
      <point x="251" y="77" type="line"/>
      <point x="136" y="120" type="line" smooth="yes"/>
      <point x="131" y="122"/>
      <point x="129" y="129"/>
      <point x="134" y="133" type="curve" smooth="yes"/>
      <point x="249" y="232" type="line"/>
    </contour>
    <contour>
      <point x="113" y="676" type="line"/>
      <point x="84" y="619" type="line" smooth="yes"/>
      <point x="81" y="613"/>
      <point x="67" y="627"/>
      <point x="74" y="630" type="curve" smooth="yes"/>
      <point x="192" y="687" type="line"/>
      <point x="198" y="673" type="line"/>
      <point x="80" y="616" type="line" smooth="yes"/>
      <point x="74" y="612"/>
      <point x="66" y="620"/>
      <point x="70" y="627" type="curve" smooth="yes"/>
      <point x="99" y="684" type="line"/>
    </contour>
    <contour>
      <point x="108" y="552" type="line"/>
      <point x="80" y="505" type="line" smooth="yes"/>
      <point x="76" y="498"/>
      <point x="62" y="513"/>
      <point x="70" y="516" type="curve" smooth="yes"/>
      <point x="187" y="572" type="line"/>
      <point x="193" y="558" type="line"/>
      <point x="76" y="502" type="line" smooth="yes"/>
      <point x="69" y="498"/>
      <point x="62" y="506"/>
      <point x="66" y="513" type="curve" smooth="yes"/>
      <point x="94" y="560" type="line"/>
    </contour>
    <contour>
      <point x="161" y="-57" type="line"/>
      <point x="49" y="0" type="line" smooth="yes"/>
      <point x="43" y="3"/>
      <point x="57" y="17"/>
      <point x="60" y="10" type="curve" smooth="yes"/>
      <point x="84" y="-47" type="line"/>
      <point x="70" y="-53" type="line"/>
      <point x="46" y="4" type="line" smooth="yes"/>
      <point x="43" y="11"/>
      <point x="50" y="18"/>
      <point x="57" y="14" type="curve" smooth="yes"/>
      <point x="169" y="-43" type="line"/>
    </contour>
    <contour>
      <point x="166" y="52" type="line"/>
      <point x="54" y="114" type="line" smooth="yes"/>
      <point x="47" y="118"/>
      <point x="61" y="132"/>
      <point x="65" y="125" type="curve" smooth="yes"/>
      <point x="89" y="84" type="line"/>
      <point x="75" y="76" type="line"/>
      <point x="51" y="117" type="line" smooth="yes"/>
      <point x="47" y="124"/>
      <point x="55" y="132"/>
      <point x="62" y="128" type="curve" smooth="yes"/>
      <point x="174" y="66" type="line"/>
    </contour>
  </outline>
</glyph>
<glyph name="brokenbar" format="2">
  <advance width="273"/>
  <unicode hex="00A6"/>
  <outline>
    <contour>
      <point x="31" y="688" type="line"/>
      <point x="31" y="432" type="line"/>
      <point x="15" y="432" type="line"/>
      <point x="15" y="688" type="line"/>
    </contour>
    <contour>
      <point x="15" y="-13" type="line"/>
      <point x="15" y="243" type="line"/>
      <point x="31" y="243" type="line"/>
      <point x="31" y="-13" type="line"/>
    </contour>
    <contour>
      <point x="139" y="-82" type="line"/>
      <point x="19" y="-20" type="line" smooth="yes"/>
      <point x="13" y="-17"/>
      <point x="28" y="-3"/>
      <point x="31" y="-10" type="curve" smooth="yes"/>
      <point x="53" y="-72" type="line"/>
      <point x="37" y="-78" type="line"/>
      <point x="15" y="-16" type="line" smooth="yes"/>
      <point x="13" y="-9"/>
      <point x="20" y="-3"/>
      <point x="27" y="-6" type="curve" smooth="yes"/>
      <point x="147" y="-68" type="line"/>
    </contour>
    <contour>
      <point x="53" y="747" type="line"/>
      <point x="31" y="685" type="line" smooth="yes"/>
      <point x="28" y="678"/>
      <point x="13" y="692"/>
      <point x="19" y="695" type="curve" smooth="yes"/>
      <point x="139" y="757" type="line"/>
      <point x="147" y="743" type="line"/>
      <point x="27" y="681" type="line" smooth="yes"/>
      <point x="20" y="678"/>
      <point x="13" y="684"/>
      <point x="15" y="691" type="curve" smooth="yes"/>
      <point x="37" y="753" type="line"/>
    </contour>
    <contour>
      <point x="139" y="363" type="line"/>
      <point x="19" y="425" type="line" smooth="yes"/>
      <point x="13" y="428"/>
      <point x="28" y="442"/>
      <point x="31" y="435" type="curve" smooth="yes"/>
      <point x="53" y="373" type="line"/>
      <point x="37" y="367" type="line"/>
      <point x="15" y="429" type="line" smooth="yes"/>
      <point x="13" y="436"/>
      <point x="20" y="442"/>
      <point x="27" y="439" type="curve" smooth="yes"/>
      <point x="147" y="377" type="line"/>
    </contour>
    <contour>
      <point x="53" y="302" type="line"/>
      <point x="31" y="240" type="line" smooth="yes"/>
      <point x="28" y="233"/>
      <point x="13" y="247"/>
      <point x="19" y="250" type="curve" smooth="yes"/>
      <point x="139" y="312" type="line"/>
      <point x="147" y="298" type="line"/>
      <point x="27" y="236" type="line" smooth="yes"/>
      <point x="20" y="233"/>
      <point x="13" y="239"/>
      <point x="15" y="246" type="curve" smooth="yes"/>
      <point x="37" y="308" type="line"/>
    </contour>
  </outline>
</glyph>
<glyph name="section" format="2">
  <advance width="357"/>
  <unicode hex="00A7"/>
  <outline>
    <contour>
      <point x="160" y="295" type="curve"/>
      <point x="160" y="295"/>
      <point x="160" y="295"/>
      <point x="160" y="295" type="curve"/>
      <point x="160" y="352"/>
      <point x="127" y="394"/>
      <point x="71" y="394" type="curve"/>
      <point x="71" y="394"/>
      <point x="71" y="394"/>
      <point x="71" y="394" type="curve"/>
      <point x="10" y="394"/>
      <point x="-30" y="346"/>
      <point x="-30" y="286" type="curve"/>
      <point x="-30" y="286"/>
      <point x="-30" y="286"/>
      <point x="-30" y="286" type="curve"/>
      <point x="-30" y="230"/>
      <point x="3" y="186"/>
      <point x="59" y="186" type="curve"/>
      <point x="59" y="186"/>
      <point x="59" y="186"/>
      <point x="59" y="186" type="curve"/>
      <point x="120" y="186"/>
      <point x="160" y="234"/>
    </contour>
    <contour>
      <point x="143" y="612" type="line"/>
      <point x="125" y="619"/>
      <point x="108" y="623"/>
      <point x="91" y="623" type="curve"/>
      <point x="91" y="623"/>
      <point x="91" y="623"/>
      <point x="91" y="623" type="curve"/>
      <point x="33" y="623"/>
      <point x="-8" y="586"/>
      <point x="-8" y="530" type="curve"/>
      <point x="-8" y="530"/>
      <point x="-8" y="530"/>
      <point x="-8" y="530" type="curve"/>
      <point x="-8" y="475"/>
      <point x="34" y="454"/>
      <point x="75" y="431" type="curve" smooth="yes"/>
      <point x="75" y="431"/>
      <point x="75" y="431"/>
      <point x="75" y="431" type="curve" smooth="yes"/>
      <point x="124" y="403"/>
      <point x="176" y="375"/>
      <point x="176" y="295" type="curve"/>
      <point x="160" y="295" type="line"/>
      <point x="160" y="367"/>
      <point x="112" y="391"/>
      <point x="67" y="417" type="curve" smooth="yes"/>
      <point x="67" y="417"/>
      <point x="67" y="417"/>
      <point x="67" y="417" type="curve" smooth="yes"/>
      <point x="20" y="442"/>
      <point x="-24" y="467"/>
      <point x="-24" y="530" type="curve"/>
      <point x="-24" y="530"/>
      <point x="-24" y="530"/>
      <point x="-24" y="530" type="curve"/>
      <point x="-24" y="594"/>
      <point x="23" y="639"/>
      <point x="91" y="639" type="curve"/>
      <point x="91" y="639"/>
      <point x="91" y="639"/>
      <point x="91" y="639" type="curve"/>
      <point x="110" y="639"/>
      <point x="129" y="635"/>
      <point x="149" y="626" type="curve"/>
    </contour>
    <contour>
      <point x="176" y="295" type="curve"/>
      <point x="176" y="226"/>
      <point x="128" y="170"/>
      <point x="59" y="170" type="curve"/>
      <point x="59" y="170"/>
      <point x="59" y="170"/>
      <point x="59" y="170" type="curve"/>
      <point x="-5" y="170"/>
      <point x="-46" y="222"/>
      <point x="-46" y="286" type="curve"/>
      <point x="-46" y="286"/>
      <point x="-46" y="286"/>
      <point x="-46" y="286" type="curve"/>
      <point x="-46" y="354"/>
      <point x="2" y="410"/>
      <point x="71" y="410" type="curve"/>
      <point x="71" y="410"/>
      <point x="71" y="410"/>
      <point x="71" y="410" type="curve"/>
      <point x="135" y="410"/>
      <point x="176" y="360"/>
      <point x="176" y="295" type="curve"/>
      <point x="176" y="295"/>
      <point x="176" y="295"/>
    </contour>
    <contour>
      <point x="-30" y="286" type="line"/>
      <point x="-30" y="213"/>
      <point x="18" y="184"/>
      <point x="65" y="159" type="curve" smooth="yes"/>
      <point x="65" y="159"/>
      <point x="65" y="159"/>
      <point x="65" y="159" type="curve" smooth="yes"/>
      <point x="115" y="131"/>
      <point x="162" y="108"/>
      <point x="162" y="48" type="curve"/>
      <point x="162" y="48"/>
      <point x="162" y="48"/>
      <point x="162" y="48" type="curve"/>
      <point x="162" y="-14"/>
      <point x="114" y="-60"/>
      <point x="42" y="-60" type="curve"/>
      <point x="42" y="-60"/>
      <point x="42" y="-60"/>
      <point x="42" y="-60" type="curve"/>
      <point x="21" y="-60"/>
      <point x="-2" y="-55"/>
      <point x="-25" y="-45" type="curve"/>
      <point x="-19" y="-31" type="line"/>
      <point x="2" y="-39"/>
      <point x="23" y="-44"/>
      <point x="42" y="-44" type="curve"/>
      <point x="42" y="-44"/>
      <point x="42" y="-44"/>
      <point x="42" y="-44" type="curve"/>
      <point x="104" y="-44"/>
      <point x="146" y="-6"/>
      <point x="146" y="48" type="curve"/>
      <point x="146" y="48"/>
      <point x="146" y="48"/>
      <point x="146" y="48" type="curve"/>
      <point x="146" y="100"/>
      <point x="101" y="121"/>
      <point x="57" y="145" type="curve" smooth="yes"/>
      <point x="57" y="145"/>
      <point x="57" y="145"/>
      <point x="57" y="145" type="curve" smooth="yes"/>
      <point x="6" y="172"/>
      <point x="-46" y="205"/>
      <point x="-46" y="286" type="curve"/>
    </contour>
    <contour>
      <point x="264" y="663" type="line"/>
      <point x="149" y="612" type="line" smooth="yes"/>
      <point x="144" y="609"/>
      <point x="147" y="629"/>
      <point x="151" y="625" type="curve" smooth="yes"/>
      <point x="266" y="528" type="line"/>
      <point x="256" y="516" type="line"/>
      <point x="141" y="613" type="line" smooth="yes"/>
      <point x="136" y="617"/>
      <point x="137" y="624"/>
      <point x="143" y="626" type="curve" smooth="yes"/>
      <point x="258" y="677" type="line"/>
    </contour>
    <contour>
      <point x="-2" y="-93" type="line"/>
      <point x="-29" y="-42" type="line" smooth="yes"/>
      <point x="-30" y="-40"/>
      <point x="-30" y="-38"/>
      <point x="-30" y="-36" type="curve" smooth="yes"/>
      <point x="-3" y="62" type="line"/>
      <point x="13" y="58" type="line"/>
      <point x="-14" y="-40" type="line" smooth="yes"/>
      <point x="-15" y="-42"/>
      <point x="-16" y="-32"/>
      <point x="-15" y="-34" type="curve" smooth="yes"/>
      <point x="12" y="-85" type="line"/>
    </contour>
    <contour>
      <point x="-30" y="286" type="line"/>
      <point x="-30" y="167"/>
      <point x="183" y="148"/>
      <point x="225" y="180" type="curve"/>
      <point x="235" y="168" type="line"/>
      <point x="187" y="130"/>
      <point x="-46" y="149"/>
      <point x="-46" y="286" type="curve"/>
    </contour>
    <contour>
      <point x="160" y="295" type="line"/>
      <point x="160" y="412"/>
      <point x="81" y="431"/>
      <point x="46" y="399" type="curve"/>
      <point x="36" y="411" type="line"/>
      <point x="77" y="449"/>
      <point x="176" y="432"/>
      <point x="176" y="295" type="curve"/>
    </contour>
  </outline>
</glyph>
<glyph name="dieresis" format="2">
  <advance width="409"/>
  <unicode hex="00A8"/>
  <outline>
    <contour>
      <point x="28" y="757" type="line"/>
      <point x="14" y="677" type="line" smooth="yes"/>
      <point x="13" y="673"/>
      <point x="8" y="686"/>
      <point x="10" y="685" type="curve" smooth="yes"/>
      <point x="138" y="604" type="line"/>
      <point x="130" y="590" type="line"/>
      <point x="2" y="671" type="line" smooth="yes"/>
      <point x="-1" y="673"/>
      <point x="-2" y="676"/>
      <point x="-2" y="679" type="curve" smooth="yes"/>
      <point x="12" y="759" type="line"/>
    </contour>
    <contour>
      <point x="12" y="596" type="line"/>
      <point x="-2" y="677" type="line" smooth="yes"/>
      <point x="-2" y="680"/>
      <point x="-1" y="683"/>
      <point x="2" y="685" type="curve" smooth="yes"/>
      <point x="130" y="765" type="line"/>
      <point x="138" y="751" type="line"/>
      <point x="10" y="671" type="line" smooth="yes"/>
      <point x="7" y="669"/>
      <point x="13" y="683"/>
      <point x="14" y="679" type="curve" smooth="yes"/>
      <point x="28" y="598" type="line"/>
    </contour>
    <contour>
      <point x="198" y="757" type="line"/>
      <point x="184" y="677" type="line" smooth="yes"/>
      <point x="183" y="673"/>
      <point x="178" y="686"/>
      <point x="180" y="685" type="curve" smooth="yes"/>
      <point x="308" y="604" type="line"/>
      <point x="300" y="590" type="line"/>
      <point x="172" y="671" type="line" smooth="yes"/>
      <point x="169" y="673"/>
      <point x="168" y="676"/>
      <point x="168" y="679" type="curve" smooth="yes"/>
      <point x="182" y="759" type="line"/>
    </contour>
    <contour>
      <point x="182" y="596" type="line"/>
      <point x="168" y="677" type="line" smooth="yes"/>
      <point x="168" y="680"/>
      <point x="169" y="683"/>
      <point x="172" y="685" type="curve" smooth="yes"/>
      <point x="300" y="765" type="line"/>
      <point x="308" y="751" type="line"/>
      <point x="180" y="671" type="line" smooth="yes"/>
      <point x="177" y="669"/>
      <point x="183" y="683"/>
      <point x="184" y="679" type="curve" smooth="yes"/>
      <point x="198" y="598" type="line"/>
    </contour>
  </outline>
</glyph>
<glyph name="ordfeminine" format="2">
  <advance width="351"/>
  <unicode hex="00AA"/>
  <outline>
    <contour>
      <point x="164" y="486" type="curve"/>
      <point x="164" y="486"/>
      <point x="164" y="486"/>
      <point x="164" y="486" type="curve"/>
      <point x="164" y="390"/>
      <point x="117" y="324"/>
      <point x="58" y="324" type="curve"/>
      <point x="58" y="324"/>
      <point x="58" y="324"/>
      <point x="58" y="324" type="curve"/>
      <point x="-1" y="324"/>
      <point x="-46" y="389"/>
      <point x="-46" y="488" type="curve"/>
      <point x="-46" y="488"/>
      <point x="-46" y="488"/>
      <point x="-46" y="488" type="curve"/>
      <point x="-46" y="588"/>
      <point x="-1" y="652"/>
      <point x="60" y="652" type="curve"/>
      <point x="60" y="652"/>
      <point x="60" y="652"/>
      <point x="60" y="652" type="curve"/>
      <point x="118" y="652"/>
      <point x="164" y="586"/>
    </contour>
    <contour>
      <point x="161" y="160" type="line"/>
      <point x="-29" y="160" type="line"/>
      <point x="-29" y="176" type="line"/>
      <point x="161" y="176" type="line"/>
    </contour>
    <contour>
      <point x="-2" y="109" type="line"/>
      <point x="-36" y="164" type="line" smooth="yes"/>
      <point x="-37" y="166"/>
      <point x="-37" y="170"/>
      <point x="-36" y="172" type="curve" smooth="yes"/>
      <point x="-2" y="226" type="line"/>
      <point x="12" y="218" type="line"/>
      <point x="-22" y="164" type="line" smooth="yes"/>
      <point x="-24" y="161"/>
      <point x="-24" y="175"/>
      <point x="-22" y="172" type="curve" smooth="yes"/>
      <point x="12" y="117" type="line"/>
    </contour>
    <contour>
      <point x="272" y="215" type="line"/>
      <point x="165" y="161" type="line" smooth="yes"/>
      <point x="159" y="158"/>
      <point x="159" y="178"/>
      <point x="165" y="175" type="curve" smooth="yes"/>
      <point x="272" y="120" type="line"/>
      <point x="264" y="106" type="line"/>
      <point x="157" y="161" type="line" smooth="yes"/>
      <point x="152" y="164"/>
      <point x="152" y="172"/>
      <point x="157" y="175" type="curve" smooth="yes"/>
      <point x="264" y="229" type="line"/>
    </contour>
    <contour>
      <point x="148" y="486" type="curve"/>
      <point x="148" y="573"/>
      <point x="110" y="636"/>
      <point x="60" y="636" type="curve"/>
      <point x="60" y="636"/>
      <point x="60" y="636"/>
      <point x="60" y="636" type="curve"/>
      <point x="7" y="636"/>
      <point x="-30" y="576"/>
      <point x="-30" y="488" type="curve"/>
      <point x="-30" y="488"/>
      <point x="-30" y="488"/>
      <point x="-30" y="488" type="curve"/>
      <point x="-30" y="401"/>
      <point x="7" y="340"/>
      <point x="58" y="340" type="curve"/>
      <point x="58" y="340"/>
      <point x="58" y="340"/>
      <point x="58" y="340" type="curve"/>
      <point x="109" y="340"/>
      <point x="148" y="402"/>
      <point x="148" y="486" type="curve"/>
      <point x="148" y="486"/>
      <point x="148" y="486"/>
    </contour>
    <contour>
      <point x="164" y="638" type="line"/>
      <point x="164" y="337" type="line"/>
      <point x="148" y="337" type="line"/>
      <point x="148" y="638" type="line"/>
    </contour>
    <contour>
      <point x="265" y="288" type="line"/>
      <point x="153" y="330" type="line" smooth="yes"/>
      <point x="146" y="332"/>
      <point x="158" y="348"/>
      <point x="163" y="341" type="curve" smooth="yes"/>
      <point x="191" y="299" type="line"/>
      <point x="177" y="291" type="line"/>
      <point x="149" y="333" type="line" smooth="yes"/>
      <point x="145" y="339"/>
      <point x="152" y="347"/>
      <point x="159" y="344" type="curve" smooth="yes"/>
      <point x="271" y="302" type="line"/>
    </contour>
    <contour>
      <point x="191" y="676" type="line"/>
      <point x="163" y="634" type="line" smooth="yes"/>
      <point x="158" y="627"/>
      <point x="146" y="643"/>
      <point x="153" y="645" type="curve" smooth="yes"/>
      <point x="265" y="687" type="line"/>
      <point x="271" y="673" type="line"/>
      <point x="159" y="631" type="line" smooth="yes"/>
      <point x="152" y="628"/>
      <point x="145" y="636"/>
      <point x="149" y="642" type="curve" smooth="yes"/>
      <point x="177" y="684" type="line"/>
    </contour>
  </outline>
</glyph>
<glyph name="guillemetleft" format="2">
  <advance width="532"/>
  <unicode hex="00AB"/>
  <outline>
    <contour>
      <point x="241" y="575" type="line"/>
      <point x="157" y="463"/>
      <point x="75" y="374"/>
      <point x="-16" y="297" type="curve" smooth="yes"/>
      <point x="-20" y="294"/>
      <point x="-19" y="312"/>
      <point x="-16" y="309" type="curve" smooth="yes"/>
      <point x="74" y="232"/>
      <point x="157" y="143"/>
      <point x="241" y="31" type="curve"/>
      <point x="229" y="21" type="line"/>
      <point x="145" y="133"/>
      <point x="62" y="220"/>
      <point x="-26" y="297" type="curve" smooth="yes"/>
      <point x="-30" y="300"/>
      <point x="-30" y="306"/>
      <point x="-26" y="309" type="curve" smooth="yes"/>
      <point x="63" y="386"/>
      <point x="145" y="473"/>
      <point x="229" y="585" type="curve"/>
    </contour>
    <contour>
      <point x="-39" y="311" type="line"/>
      <point x="-21" y="311" type="line"/>
      <point x="-21" y="311"/>
      <point x="-21" y="311"/>
      <point x="-21" y="311" type="curve"/>
      <point x="138" y="311" type="line"/>
      <point x="138" y="295" type="line"/>
      <point x="-21" y="295" type="line"/>
      <point x="-21" y="295"/>
      <point x="-21" y="295"/>
      <point x="-21" y="295" type="curve"/>
      <point x="-39" y="295" type="line"/>
    </contour>
    <contour>
      <point x="467" y="575" type="line"/>
      <point x="384" y="463"/>
      <point x="301" y="374"/>
      <point x="210" y="297" type="curve" smooth="yes"/>
      <point x="206" y="294"/>
      <point x="207" y="312"/>
      <point x="210" y="309" type="curve" smooth="yes"/>
      <point x="300" y="232"/>
      <point x="384" y="143"/>
      <point x="467" y="31" type="curve"/>
      <point x="455" y="21" type="line"/>
      <point x="372" y="133"/>
      <point x="288" y="220"/>
      <point x="200" y="297" type="curve" smooth="yes"/>
      <point x="196" y="300"/>
      <point x="196" y="306"/>
      <point x="200" y="309" type="curve" smooth="yes"/>
      <point x="289" y="386"/>
      <point x="372" y="473"/>
      <point x="455" y="585" type="curve"/>
    </contour>
    <contour>
      <point x="188" y="311" type="line"/>
      <point x="205" y="311" type="line"/>
      <point x="205" y="311"/>
      <point x="205" y="311"/>
      <point x="205" y="311" type="curve"/>
      <point x="364" y="311" type="line"/>
      <point x="364" y="295" type="line"/>
      <point x="205" y="295" type="line"/>
      <point x="205" y="295"/>
      <point x="205" y="295"/>
      <point x="205" y="295" type="curve"/>
      <point x="188" y="295" type="line"/>
    </contour>
  </outline>
</glyph>
<glyph name="registered" format="2">
  <advance width="434"/>
  <unicode hex="00AE"/>
  <outline>
    <contour>
      <point x="83" y="355" type="line"/>
      <point x="83" y="558" type="line" smooth="yes"/>
      <point x="83" y="562"/>
      <point x="87" y="566"/>
      <point x="91" y="566" type="curve" smooth="yes"/>
      <point x="139" y="566" type="line"/>
      <point x="139" y="566"/>
      <point x="139" y="566"/>
      <point x="139" y="566" type="curve"/>
      <point x="176" y="566"/>
      <point x="200" y="538"/>
      <point x="200" y="494" type="curve"/>
      <point x="200" y="494"/>
      <point x="200" y="494"/>
      <point x="200" y="494" type="curve"/>
      <point x="200" y="451"/>
      <point x="176" y="423"/>
      <point x="143" y="423" type="curve"/>
      <point x="143" y="423"/>
      <point x="143" y="423"/>
      <point x="143" y="423" type="curve"/>
      <point x="91" y="423" type="line"/>
      <point x="91" y="439" type="line"/>
      <point x="143" y="439" type="line"/>
      <point x="143" y="439"/>
      <point x="143" y="439"/>
      <point x="143" y="439" type="curve"/>
      <point x="168" y="439"/>
      <point x="184" y="461"/>
      <point x="184" y="494" type="curve"/>
      <point x="184" y="494"/>
      <point x="184" y="494"/>
      <point x="184" y="494" type="curve"/>
      <point x="184" y="528"/>
      <point x="168" y="550"/>
      <point x="139" y="550" type="curve"/>
      <point x="139" y="550"/>
      <point x="139" y="550"/>
      <point x="139" y="550" type="curve"/>
      <point x="91" y="550" type="line" smooth="yes"/>
      <point x="87" y="550"/>
      <point x="99" y="562"/>
      <point x="99" y="558" type="curve" smooth="yes"/>
      <point x="99" y="355" type="line"/>
    </contour>
    <contour>
      <point x="163" y="436" type="line"/>
      <point x="199" y="358" type="line"/>
      <point x="185" y="352" type="line"/>
      <point x="149" y="430" type="line"/>
    </contour>
    <contour>
      <point x="156" y="306" type="line"/>
      <point x="87" y="348" type="line" smooth="yes"/>
      <point x="81" y="351"/>
      <point x="99" y="362"/>
      <point x="99" y="355" type="curve" smooth="yes"/>
      <point x="100" y="313" type="line"/>
      <point x="84" y="313" type="line"/>
      <point x="83" y="355" type="line" smooth="yes"/>
      <point x="83" y="361"/>
      <point x="90" y="365"/>
      <point x="95" y="362" type="curve" smooth="yes"/>
      <point x="164" y="320" type="line"/>
    </contour>
    <contour>
      <point x="282" y="306" type="line"/>
      <point x="189" y="348" type="line" smooth="yes"/>
      <point x="182" y="351"/>
      <point x="197" y="365"/>
      <point x="199" y="358" type="curve" smooth="yes"/>
      <point x="215" y="316" type="line"/>
      <point x="201" y="310" type="line"/>
      <point x="185" y="352" type="line" smooth="yes"/>
      <point x="182" y="359"/>
      <point x="189" y="365"/>
      <point x="195" y="362" type="curve" smooth="yes"/>
      <point x="288" y="320" type="line"/>
    </contour>
    <contour>
      <point x="156" y="454" type="line"/>
      <point x="94" y="424" type="line" smooth="yes"/>
      <point x="88" y="421"/>
      <point x="88" y="441"/>
      <point x="94" y="438" type="curve" smooth="yes"/>
      <point x="156" y="408" type="line"/>
      <point x="150" y="394" type="line"/>
      <point x="88" y="424" type="line" smooth="yes"/>
      <point x="81" y="427"/>
      <point x="81" y="435"/>
      <point x="88" y="438" type="curve" smooth="yes"/>
      <point x="150" y="468" type="line"/>
    </contour>
    <contour>
      <point x="173" y="396" type="line"/>
      <point x="150" y="428" type="line" smooth="yes"/>
      <point x="145" y="434"/>
      <point x="151" y="442"/>
      <point x="158" y="441" type="curve" smooth="yes"/>
      <point x="228" y="426" type="line"/>
      <point x="224" y="410" type="line"/>
      <point x="154" y="425" type="line" smooth="yes"/>
      <point x="147" y="427"/>
      <point x="158" y="444"/>
      <point x="162" y="438" type="curve" smooth="yes"/>
      <point x="185" y="406" type="line"/>
    </contour>
    <contour>
      <point x="100" y="589" type="line"/>
      <point x="99" y="558" type="line" smooth="yes"/>
      <point x="99" y="555"/>
      <point x="92" y="567"/>
      <point x="95" y="565" type="curve" smooth="yes"/>
      <point x="157" y="534" type="line"/>
      <point x="149" y="520" type="line"/>
      <point x="87" y="551" type="line" smooth="yes"/>
      <point x="85" y="552"/>
      <point x="83" y="555"/>
      <point x="83" y="558" type="curve" smooth="yes"/>
      <point x="84" y="589" type="line"/>
    </contour>
  </outline>
</glyph>
